<svg xmlns="http://www.w3.org/2000/svg" viewBox="0 0 500 500"><g id="freepik--background-complete--inject-7"><path d="M92.2,226.55c-.16-1.7-.54-3.38-.82-5.07-1.12-4-2.21-8-4.31-11.66a16.85,16.85,0,0,0-2-2.81c-2.38-2.65-5.23-3-8.27-1.18a17.51,17.51,0,0,0-5.46,5.51c-3.16,4.77-5.33,9.95-4.93,15.76a17.83,17.83,0,0,0,7.91,14.18c5.58,3.78,12.15,2.22,15.59-3.58A18,18,0,0,0,92.2,226.55Z" style="fill:#ebebeb"></path><path d="M121.79,230.85c3.27-6,3.4-12.24,0-18.24a26.44,26.44,0,0,0-14.17-12.05,12.42,12.42,0,0,0-3.37-.71,5.71,5.71,0,0,0-6.36,4.05,20.57,20.57,0,0,0-.85,9.18c.2,2.33.55,4.65.83,7,.76,4.26,2.11,8.25,5,11.58a13.92,13.92,0,0,0,6.83,4.53A10.4,10.4,0,0,0,121.79,230.85Z" style="fill:#ebebeb"></path><path d="M139.57,253c5.3-3.89,7.44-9.29,6.89-15.79A19.63,19.63,0,0,0,146,235,22.44,22.44,0,0,0,140,223.48c-.3-.29-.63-.58-1-.84-3.38-2.59-6.61-2.27-9.4,1a23.39,23.39,0,0,0-4.27,8.18c-1.27,3.86-2.36,7.76-1.85,11.91a14.69,14.69,0,0,0,2.59,7C129.38,255.23,135,256.28,139.57,253Z" style="fill:#ebebeb"></path><path d="M73.47,279.94c.06.62.17,1.24.29,2.05,1.5,5.95,5.59,9.42,11.59,10.72,6.34,1.37,12.27-.06,17.77-3.24a18.46,18.46,0,0,1,11.65-2.5c6.23.67,12.12-.41,17.33-4.05,4.37-3.05,7-7.18,6.74-12.69a15.11,15.11,0,0,0-5.27-10.72,30.3,30.3,0,0,0-5.71-4,46.22,46.22,0,0,1-12-9.22,17.87,17.87,0,0,0-26-.4A17.58,17.58,0,0,0,85.26,254a24.42,24.42,0,0,1-5.85,10.83,20.83,20.83,0,0,0-6,13.65A10.46,10.46,0,0,0,73.47,279.94Z" style="fill:#ebebeb"></path><path d="M53.28,254.19c1.61,7.12,5.4,11.64,11.69,13.83s12.23-1.26,13.23-7.84a14.36,14.36,0,0,0-.63-6.82c-1.74-5.21-5.31-9.12-9.27-12.7a21,21,0,0,0-4.74-3.16c-3.54-1.73-6.62-.66-8.54,2.77A18.83,18.83,0,0,0,52.93,250C53,251.62,53.2,253.22,53.28,254.19Z" style="fill:#ebebeb"></path><path d="M200.77,83.25c-.11-2.61-.55-5.21-.83-7.81-1.38-6.22-2.7-12.45-5.61-18.18a25.73,25.73,0,0,0-2.82-4.45c-3.41-4.24-7.73-5.06-12.52-2.5a26.87,26.87,0,0,0-8.81,7.95c-5.22,7-9,14.75-8.86,23.66s3.59,16.75,10.9,22.32c8.19,6.24,18.36,4.4,24.11-4.17A27.48,27.48,0,0,0,200.77,83.25Z" style="fill:#ebebeb"></path><path d="M245.58,92.3c5.51-8.93,6.23-18.41,1.61-27.85a40.52,40.52,0,0,0-20.63-19.6,19.29,19.29,0,0,0-5.08-1.37c-4.76-.67-8.12,1.26-10.07,5.66s-2.2,9.19-2.06,14c.1,3.57.45,7.14.68,10.71.8,6.57,2.52,12.77,6.65,18.1a21.21,21.21,0,0,0,10,7.49A15.87,15.87,0,0,0,245.58,92.3Z" style="fill:#ebebeb"></path><path d="M270.88,127.54C279.3,122.05,283,114,282.72,104a26.66,26.66,0,0,0-.49-3.29c-1.1-6.79-3.57-13-8.26-18.14a16.44,16.44,0,0,0-1.4-1.37c-4.95-4.24-9.9-4-14.43.69A35.9,35.9,0,0,0,250.93,94c-2.26,5.79-4.26,11.65-3.83,18a22.52,22.52,0,0,0,3.37,10.85C255.12,130.18,263.65,132.25,270.88,127.54Z" style="fill:#ebebeb"></path><path d="M167.66,163.2c0,1,.16,1.91.27,3.16,1.8,9.2,7.76,14.86,16.81,17.34,9.56,2.63,18.74.94,27.41-3.46a28.31,28.31,0,0,1,18-2.83c9.45,1.55,18.54.39,26.8-4.72,6.93-4.3,11.24-10.39,11.36-18.81a23,23,0,0,0-7.15-16.82,45.83,45.83,0,0,0-8.38-6.62,71.06,71.06,0,0,1-17.6-15.09,27.31,27.31,0,0,0-39.72-2.8,26.58,26.58,0,0,0-7.6,12,37.4,37.4,0,0,1-9.85,16c-5.73,5.57-9.56,12.19-10.28,20.33A17.17,17.17,0,0,0,167.66,163.2Z" style="fill:#ebebeb"></path><path d="M139,122.18c1.86,11,7.27,18.23,16.69,22.11,9.63,4,18.78-.9,20.87-10.86a22.13,22.13,0,0,0-.39-10.48c-2.23-8.1-7.35-14.37-13.1-20.16a31.87,31.87,0,0,0-7-5.23c-5.26-2.94-10-1.57-13.27,3.52-2.83,4.47-3.82,9.5-4,14.69C138.73,118.23,139,120.69,139,122.18Z" style="fill:#ebebeb"></path><path d="M405.75,188.89c.84-1.49,1.49-3.09,2.22-4.64,1.37-3.93,2.77-7.85,3.12-12a16.48,16.48,0,0,0,0-3.44c-.44-3.53-2.56-5.47-6.11-5.69a17.64,17.64,0,0,0-7.63,1.4c-5.31,2.13-10.06,5.14-13.05,10.14a17.91,17.91,0,0,0-1.59,16.16c2.42,6.28,8.71,8.75,14.85,5.95A17.88,17.88,0,0,0,405.75,188.89Z" style="fill:#ebebeb"></path><path d="M427.6,209.3c6.13-3.08,9.77-8.11,10.44-15a26.46,26.46,0,0,0-4.76-18,12.42,12.42,0,0,0-2.36-2.5,5.71,5.71,0,0,0-7.54-.31,20.42,20.42,0,0,0-5.93,7.06c-1.17,2-2.2,4.13-3.3,6.2-1.81,3.93-3,8-2.51,12.35a13.92,13.92,0,0,0,3,7.61A10.39,10.39,0,0,0,427.6,209.3Z" style="fill:#ebebeb"></path><path d="M429.59,237.59c6.57-.16,11.41-3.38,14.66-9a19.74,19.74,0,0,0,.86-2,22.51,22.51,0,0,0,1.62-12.93,10.86,10.86,0,0,0-.31-1.25c-1.3-4-4.13-5.63-8.26-4.56A23.54,23.54,0,0,0,430,212.1c-3.24,2.45-6.36,5-8.31,8.72a14.6,14.6,0,0,0-1.84,7.19C419.91,233.65,424,237.74,429.59,237.59Z" style="fill:#ebebeb"></path><path d="M359.9,222c-.31.55-.56,1.12-.93,1.85-2.16,5.74-.78,10.93,3.4,15.42,4.42,4.74,10.11,6.95,16.45,7.48a18.51,18.51,0,0,1,11,4.6c4.72,4.1,10.18,6.58,16.54,6.56,5.33,0,9.82-1.92,12.77-6.57a15,15,0,0,0,1.79-11.81,30,30,0,0,0-2.39-6.57,46.4,46.4,0,0,1-4.62-14.43,17.85,17.85,0,0,0-21.15-15.18,17.29,17.29,0,0,0-8.35,4.07,24.53,24.53,0,0,1-11,5.55,20.85,20.85,0,0,0-12.7,7.79A12.56,12.56,0,0,0,359.9,222Z" style="fill:#ebebeb"></path><path d="M358,189.37c-2.74,6.77-2.21,12.64,1.7,18s10.77,5.94,15.34,1.11a14.24,14.24,0,0,0,3.38-6c1.54-5.28.84-10.52-.37-15.72a20.83,20.83,0,0,0-2.09-5.3c-1.92-3.44-5.05-4.32-8.59-2.6a18.74,18.74,0,0,0-7.27,6.81C359.22,187.07,358.5,188.52,358,189.37Z" style="fill:#ebebeb"></path></g><g id="freepik--Floor--inject-7"><polygon points="44.45 444.7 95.84 444.45 147.23 444.37 250 444.2 352.77 444.36 404.16 444.45 455.55 444.7 404.16 444.94 352.77 445.03 250 445.2 147.23 445.03 95.84 444.94 44.45 444.7" style="fill:#263238"></polygon></g><g id="freepik--Hearts--inject-7"><path d="M215.19,139.56c6.48,4.41,15.74,4,15.74,4s5.16-7.7,4.74-15.52c-.35-6.52-5.06-11.13-9.72-10.08-6.69,1.49-2.54,12.26-2.54,12.26s-7.08-9.12-11.82-4.16C208.28,129.48,209.79,135.89,215.19,139.56Z" style="fill:#024959"></path><path d="M234.35,98.31c1.8,4.86,7,8.17,7,8.17s5.73-2.16,8.51-6.54c2.31-3.65,1.54-7.94-1.37-9.17-4.18-1.76-6.08,5.64-6.08,5.64s-.31-7.63-4.77-6.79C234.49,90.22,232.85,94.25,234.35,98.31Z" style="fill:#024959"></path><path d="M410.11,213.38c1.05,5.08,5.66,9.13,5.66,9.13s6-1.28,9.39-5.19c2.84-3.26,2.72-7.62,0-9.27-3.87-2.37-6.86,4.66-6.86,4.66s.84-7.59-3.7-7.42C411.47,205.41,409.24,209.15,410.11,213.38Z" style="fill:#024959"></path><path d="M77.92,222.55C85.53,230,98,231.62,98,231.62s8.76-9.05,10.07-19.61c1.09-8.81-4.1-16.1-10.59-15.83-9.3.4-6.34,15.8-6.34,15.8s-7.28-13.89-14.81-8.41C71.1,207.4,71.58,216.34,77.92,222.55Z" style="fill:#024959"></path></g><g id="freepik--Plants--inject-7"><path d="M93.6,415.06c-4.88,3-10.29,6.35-16.22,5.43-5.48-.86-11.37-3.41-13.72-8.8-.67-1.54-.83-2.63,1.07-2.88,2.91-.38,6.21,1.22,8.89,2.15a58.44,58.44,0,0,0,10.58,2.7c2.53.37,5.1.47,7.65.78.32,0,.64.08,1,.13l.36.05.15-.08a.3.3,0,0,1,.26,0l.09.07A.29.29,0,0,1,93.6,415.06Z" style="fill:#455a64"></path><path d="M93.67,414.6c-4.43,2.37-9,5.21-14.22,4.19a23.35,23.35,0,0,1-6.83-2.67c-1-.54-3.86-2.15-3.78-3.48.15-2.41,9.41,1.89,10.52,2.18a24.49,24.49,0,0,0,12.49-.38c.32,0,.64.08,1,.13A27.56,27.56,0,0,1,84,415.83c-4.15-.12-7.41-1.89-11.28-3.1-.84-.26-3.46-1.24-3.41.26,0,1,2.84,2.57,3.45,2.91a22.86,22.86,0,0,0,6.47,2.55c5.2,1.11,9.85-1.63,14.37-3.92Z" style="fill:#fff"></path><path d="M98.05,416.57l.21.65v0a.16.16,0,0,1,0,.15.25.25,0,0,1-.32.05.19.19,0,0,1-.07-.12s0-.06,0-.1l0-.2h0l0,0c-2.73-2.81-5-6.05-7.76-8.83s-5.48-5.13-7.92-8c-1.53-1.8-8.63-11.19-3.43-12.43,2.3-.54,5.27,1.57,7,2.87A24.1,24.1,0,0,1,91.32,397C95.11,403,96,409.92,98.05,416.57Z" style="fill:#455a64"></path><path d="M98.26,417.22c-.06-.18-.11-.35-.17-.52a.42.42,0,0,0,0-.12c-.14-.26-.29-.51-.44-.75a116.64,116.64,0,0,0-5.19-12.73,27.86,27.86,0,0,0-4.58-6.5c-.63-.67-3.7-3.87-4.91-3.07-.79.51,0,2.21.2,2.78,1,2.43,3,4.33,4.67,6.28A106.94,106.94,0,0,1,97,415.27l.36.93.3.75s0,0,0,0l.11.26a1.89,1.89,0,0,0,.09.21.23.23,0,0,0,.31-.05l-.23-.6.27.45Zm-6.84-10.54c-1.49-2-3.07-3.85-4.69-5.7a25.67,25.67,0,0,1-2.59-3.29c-.55-.9-2.34-4.41.62-3.27,2.14.83,4.28,3.94,5.49,5.75a39.56,39.56,0,0,1,3.41,6.39c1.09,2.51,2,5.1,3,7.66Q94.21,410.32,91.42,406.68Z" style="fill:#fff"></path><path d="M108.38,428.76h0l-.17.12c-4.69,2.32-10.53,6.14-16,5.24-4-.66-9.25-3.53-10.45-7.76-1.35-4.78,7.16-2.9,9.35-2.52a159.17,159.17,0,0,1,17.24,4.63l.11,0h0C108.54,428.58,108.47,428.68,108.38,428.76Z" style="fill:#455a64"></path><path d="M108.46,428.54l-1.06-.05c-4.05-.21-8.1-.6-12.11-1.19-1-.15-8.7-1.85-8.56.21.08,1.25,2.9,2.32,3.82,2.7a16,16,0,0,0,5.19,1.15c4.1.2,8-1.45,12-2.46l.56-.14h.12C108.47,428.68,108.54,428.59,108.46,428.54ZM98,431a16.25,16.25,0,0,1-5.42-.46c-1.17-.3-5.39-1.52-5.3-3,0-.8.54-.66,1.47-.71a10.76,10.76,0,0,1,1.27,0c1,.08,2.08.27,3.11.44q2.72.46,5.44.78c3,.37,6,.6,9,.74C104.33,429.42,101.25,430.7,98,431Z" style="fill:#fff"></path><path d="M111.47,414.71a30.91,30.91,0,0,1-.2,18,.15.15,0,0,1-.06.09.24.24,0,0,1-.28.05.22.22,0,0,1-.12-.28c0-.12.06-.24.1-.36-2.71-6.62-5.31-13.25-8.15-19.82-.67-1.55-4.73-11.52-1-11.6,2.29-.05,4.54,3.71,5.65,5.34A31,31,0,0,1,111.47,414.71Z" style="fill:#455a64"></path><path d="M111.53,427.65a37.83,37.83,0,0,0-.66-7,35,35,0,0,0-2.09-6.88c-.86-2-2-4.89-3.61-6.44-.44-.43-1-.81-1.39-.13-.72,1.32,1.28,5.95,1.78,7.27,2,5.43,3.52,10.9,5,16.46l.39,1.42c0,.17,0,.35-.07.52a.23.23,0,0,0,.28,0,.8.8,0,0,0,0-.15c0-.23.07-.47.09-.71A34.67,34.67,0,0,0,111.53,427.65ZM111,432c0-.2-.07-.39-.12-.58a103.2,103.2,0,0,0-3.56-12.94c-.76-2.15-1.65-4.23-2.34-6.4-.28-.91-1.19-3.48-.72-4.24s1,.16,1.33.65.64,1,.84,1.39a36.08,36.08,0,0,1,4.61,21.78C111.06,431.76,111,431.87,111,432Z" style="fill:#fff"></path><path d="M119.2,445.2H118c-.27-.47-.55-.93-.82-1.39-1.91-3.18-3.85-6.34-5.86-9.47-1.14-1.79-2.29-3.55-3.5-5.26,0-.06-.08-.11-.12-.18l-.3-.41c-.1-.15-.22-.3-.33-.45a45.06,45.06,0,0,0-9.78-10.16c-1.28-.93-2.59-1.81-3.94-2.66h0L93,415h0l-.1-.06h0l-.39-.23h0l-.29-.18h0c-4.18-2.53-8.58-4.73-12.86-7-1.23-.65-2.46-1.31-3.67-2l-.22-.12-.28-.14c-5.41-2.94-10.79-5.93-16.26-8.72-.21-.1,0-.4.18-.29,3.67,1.82,7.38,3.56,11.08,5.33l1.48.71,2.92,1.4,0,0c2,.92,3.86,1.87,5.78,2.86a149.37,149.37,0,0,1,16,8.89l1.11.79c.24.16.47.33.69.5s.53.38.79.58A48.28,48.28,0,0,1,110,429.93h0c.2.33.42.65.63,1l.3.47.16.24c.06.11.13.21.2.33l.15.25c.18.28.35.57.53.86q2.91,4.76,5.71,9.55Z" style="fill:#455a64"></path><path d="M59.51,402.19c-4.37-2-11.44-7.11-9.77-12.76a4.48,4.48,0,0,1,5-3.3c2.73.32,5.08,2.49,6.94,4.34,5,4.93,9.43,10.29,14.75,14.87,0,0,.45.4.57.49s0,.26-.16.17l-.52-.45C70.73,404.88,64.69,404.52,59.51,402.19Z" style="fill:#455a64"></path><path d="M76.47,405.34l-.12-.06a48,48,0,0,1-4.76-3,96.7,96.7,0,0,1-9-7.62c-1.1-1-6.34-6.2-7.17-2.52-.35,1.56.8,3.32,1.66,4.5a17.69,17.69,0,0,0,5.14,4.72c4,2.46,8.56,3.44,13.13,4l.62.08.17.1a0,0,0,0,0,0,0l.12.06a.08.08,0,0,0,.08,0h0a.16.16,0,0,0,.14-.18h0A.13.13,0,0,0,76.47,405.34Zm-1.36-.13a38.24,38.24,0,0,1-11-3.13,20.43,20.43,0,0,1-4.9-3.39,15.78,15.78,0,0,1-1.75-2A10.17,10.17,0,0,1,56.43,395c-.67-1.29-.92-3-.24-3.52.83-.68,1.44-.31,2.65.41a10.58,10.58,0,0,1,1.17.81,34.91,34.91,0,0,1,2.67,2.34c1.43,1.34,2.86,2.67,4.34,3.95,1,.87,2,1.72,3.09,2.52a49.58,49.58,0,0,0,5.71,3.79Z" style="fill:#fff"></path><path d="M416.76,400.75c-2.47,2.93-5.14,5.7-7.83,8.43-1.53,1.56-3.07,3.09-4.6,4.65-1.68,1.71-3.57,3.34-4.33,5.68h0a2,2,0,0,1-.15.29l-.05,0a.29.29,0,0,1-.36-.35.88.88,0,0,1,.05-.15s0,0,0-.06a9.26,9.26,0,0,1,.39-2.11,51.19,51.19,0,0,1,6.27-16.52,40.08,40.08,0,0,1,6.7-8.27c2.08-1.95,5.14-4.89,8-5.54,2.61-.59,2.25,2.83,1.85,4.43C421.81,394.88,419.1,398,416.76,400.75Z" style="fill:#455a64"></path><path d="M418.31,392.11c-1.17-.76-4.46,2.45-5.93,3.81a38.41,38.41,0,0,0-6.09,7.19,49.9,49.9,0,0,0-6.64,15.5c-.06.22-.12.44-.17.66,0,0,0,.05,0,.07a1.55,1.55,0,0,0,0,.15.28.28,0,0,0,.37.34,12.31,12.31,0,0,1,.53-1.17.61.61,0,0,1,.05-.12c.05-.09.09-.19.15-.28.13-.29.28-.57.43-.84,2.17-4,5.26-7.59,8.21-11.07C412.64,402.27,419.85,393.12,418.31,392.11Zm-1.59,3.82c-.34.59-.71,1.16-1.09,1.73-.77,1.16-1.62,2.28-2.47,3.38-1.87,2.39-3.87,4.68-5.82,7a52.81,52.81,0,0,0-7.07,10c-.28.56-.53,1.12-.76,1.69.12-.45.24-.9.37-1.34a55.38,55.38,0,0,1,5.79-13.71,39.79,39.79,0,0,1,5.08-6.7,38.3,38.3,0,0,1,3.29-3.08c.49-.4,3.39-3,4-2.37C418.48,393,416.75,395.87,416.72,395.93Z" style="fill:#fff"></path><path d="M429.38,421.5c-4.85,2.78-10.53,3.64-16,4-2.94.17-5.9.2-8.85.3a38.48,38.48,0,0,0-7.88.63l-.34.08a10.33,10.33,0,0,0-2.07.8.17.17,0,0,1-.14,0l-.19.14s-.11,0-.07-.07l.16-.2h0a.16.16,0,0,1,.09-.17l.08,0c.06-.06.11-.13.16-.19,3.78-4.48,10.4-7.19,15.73-9.08s11-2.88,16.61-1.71c1.4.3,4.72.77,5.27,2.42S430.41,420.91,429.38,421.5Z" style="fill:#455a64"></path><path d="M426.06,419.37c-.36-1.67-5-1.11-6.11-1a58.8,58.8,0,0,0-10.1,2,52.87,52.87,0,0,0-15.35,6.3h0l-.19.06-.17.19-.08,0a.17.17,0,0,0-.09.18l.26-.08c.67-.22,1.35-.41,2-.58l.34-.09a116.29,116.29,0,0,1,14.57-2.16,54.6,54.6,0,0,0,10.06-2C422.07,422,426.36,420.78,426.06,419.37ZM423.67,421c-5.24,2.55-11.6,2.76-17.3,3.4A60.67,60.67,0,0,0,395,426.51,56.81,56.81,0,0,1,409,421a75.41,75.41,0,0,1,8.39-1.91,29.9,29.9,0,0,1,4.64-.46,11.92,11.92,0,0,1,2.78.23C426.48,419.34,424.57,420.56,423.67,421Z" style="fill:#fff"></path><path d="M387.06,436.77a.33.33,0,0,1-.29,0v.11a.07.07,0,0,1-.08.09.07.07,0,0,1-.1-.06c-1.34-6.6-2-14-.48-20.58a26.42,26.42,0,0,1,3.15-7.93c1-1.67,3.08-5,5.27-5.32,4.38-.56.33,11.31-.29,13.1-1.12,3.26-2.51,6.41-3.7,9.65-1.29,3.54-2.33,7.17-3.36,10.8A.25.25,0,0,1,387.06,436.77Z" style="fill:#455a64"></path><path d="M392.9,407.46c-.85.26-3.13,4.64-3.63,5.83a36.29,36.29,0,0,0-2.26,8.5,59.09,59.09,0,0,0-.36,14.74c0,.15,0,.29,0,.43a.09.09,0,0,0,.08-.1.34.34,0,0,1,0-.1l.08,0a.28.28,0,0,0,.22,0h0c0-.36,0-.71.06-1.07a56.51,56.51,0,0,1,3.82-17,53.49,53.49,0,0,0,2.76-8.36C393.84,409.61,394.55,407,392.9,407.46Zm.6,2.42a14.73,14.73,0,0,1-.67,2.79c-.43,1.28-.89,2.55-1.38,3.82-1,2.53-2,5.06-2.73,7.66a44.08,44.08,0,0,0-1.87,11.47,68.34,68.34,0,0,1,.18-11.35,41.17,41.17,0,0,1,1.7-8.57,29.72,29.72,0,0,1,1.26-3.24,19.06,19.06,0,0,1,1.29-2.4c1.23-1.86,1.69-2.24,2-2.11S393.68,408.41,393.5,409.88Z" style="fill:#fff"></path><path d="M406.11,435.23a16.7,16.7,0,0,1-6.1,3.71c-4.46,1.71-9.21,2.46-13.76,3.85-.68.21-1.36.44-2,.68-.08,0-.81.51-.77.46l.59-.62h0c1.81-1.88,7.37-7.49,11.21-9.71a34,34,0,0,1,7.55-3.43c1.27-.35,4.13-1,5.16.21S407,434.33,406.11,435.23Z" style="fill:#455a64"></path><path d="M404.87,432.56c-.82-1.74-8.47,2.28-9.48,2.79a47.59,47.59,0,0,0-10.3,7c-.36.3-.7.62-1,.94l-.51.54-.07.07a1.28,1.28,0,0,0,.23-.12l.16-.1.22-.14.15-.09.34-.12.67-.23,1-.32h0c3-1.3,6.09-2.55,9.1-3.92a45.18,45.18,0,0,0,6.27-3.4C402.07,435.18,405.23,433.32,404.87,432.56Zm-1.55,1.53c-5.53,4.23-12.33,6-18.55,8.88l-.31.14.41-.34a54.45,54.45,0,0,1,8.45-5.94,52.85,52.85,0,0,1,5.66-2.76,27.91,27.91,0,0,1,3.22-1.26c.49-.12,1.83-.42,2-.1S403.68,433.81,403.32,434.09Z" style="fill:#fff"></path><path d="M449.41,398.78c-10.18,6.73-23.72,4.13-34.24,10.15l-.05,0q-.48.27-1,.57a.22.22,0,0,1-.34-.15.18.18,0,0,1,.09-.17l.23-.14c4.38-5.16,10.47-9.46,16.39-12.69,5.16-2.79,11-4.75,16.92-4.14,1.46.15,4.38.35,5,2.08S450.66,398,449.41,398.78Z" style="fill:#455a64"></path><path d="M445.47,396.8c-.27-.72-1.36-.76-2-.82a18.56,18.56,0,0,0-4.47.1,30.94,30.94,0,0,0-8.76,2.66,64.06,64.06,0,0,0-13.49,8c-.92.74-1.81,1.51-2.66,2.33l-.32.3a.23.23,0,0,0,.34.16c.3-.19.58-.36.88-.53l0,0,.09-.05a37.76,37.76,0,0,1,6.38-3.46,88.13,88.13,0,0,1,10.82-3.27C433.8,401.83,446.41,399.28,445.47,396.8Zm-2.06,1.75c-2.67,1.4-5.76,1.94-8.66,2.72s-5.85,1.55-8.76,2.39a42.22,42.22,0,0,0-6.74,2.55,33.22,33.22,0,0,0-5.17,3.07,44.27,44.27,0,0,1,4.65-3.66.09.09,0,0,1,.06,0,83.76,83.76,0,0,1,9.08-5.32l.12-.06a38.6,38.6,0,0,1,8.61-3.37,22,22,0,0,1,5-.64c1.9,0,3.44.2,3.5.85C445.12,397.49,444.2,398.14,443.41,398.55Z" style="fill:#fff"></path><path d="M428,400.51c-2.94,1.85-5.86,3.77-8.76,5.7l-4.08,2.73-.09.05,0,0-1.43,1c-4.44,3-9.12,5.91-13,9.57a44.51,44.51,0,0,0-5.53,6.37l0,0-.52.71h0l-.27.39c-.06.07-.1.15-.15.22-1.41,2-2.72,4.09-4,6.12-1.77,2.83-3.33,5.75-4.86,8.7h0a1.26,1.26,0,0,0-.13.26c-.08.13-.15.26-.22.4a1.86,1.86,0,0,0-.1.2l-.21.38-1,1.85h-1.21a67.41,67.41,0,0,1,4.17-8.49h0a1,1,0,0,1,.1-.17c.15-.28.32-.57.48-.84s.39-.68.6-1c0,0,0,0,0,0,.5-.81,1-1.62,1.48-2.41,2.89-4.62,6-9.36,10-13.19l.33-.31a.86.86,0,0,1,.14-.13l.23-.23.39-.35.7-.61.21-.18h0a108.18,108.18,0,0,1,12.11-8.31c.75-.47,1.49-.94,2.25-1.4l1.25-.76,1.93-1.14a.09.09,0,0,1,.06,0c3-1.79,6.07-3.51,9.08-5.32C428,400.19,428.15,400.43,428,400.51Z" style="fill:#455a64"></path></g><g id="freepik--Dog--inject-7"><path d="M357.71,359.51s18.56,53.79,27.7,75.63a28.37,28.37,0,0,0,6.87,9.31c1.55,1.55,62.05.22,63.16,0S449,429.71,444.8,427.72s-36.12,3.87-36.12,3.87-1.18-63.15-.81-65.07a54.16,54.16,0,0,0,.29-7l.74,9.67s2.14-7.24,2.22-10.57-2-36.19-2-36.19Z" style="fill:#024959"></path><path d="M357.71,359.51s18.56,53.79,27.7,75.63a28.37,28.37,0,0,0,6.87,9.31c1.55,1.55,62.05.22,63.16,0S449,429.71,444.8,427.72s-36.12,3.87-36.12,3.87-1.18-63.15-.81-65.07a54.16,54.16,0,0,0,.29-7l.74,9.67s2.14-7.24,2.22-10.57-2-36.19-2-36.19Z" style="opacity:0.4"></path><path d="M441.32,434.81c3.14,2,6.56,6,5.25,10-.21-4-3.07-6.81-5.25-10Z" style="fill:#263238"></path><path d="M447.52,434.44c3.15,2,6.57,6,5.26,10-.22-4-3.07-6.81-5.26-10Z" style="fill:#263238"></path><path d="M409.89,335c-5.86,11.45-14.53,23.68-17.5,26.22A227.58,227.58,0,0,1,364.9,380c-4.19-11.82-7.19-20.51-7.19-20.51l51.41-37.09S409.48,328.11,409.89,335Z" style="opacity:0.1"></path><path d="M169.29,399.32l-3.58,14.33c-29.8-23-58.13-60.09-68.76-95.38-2.29-7.64-7.53-24.2-7.63-31-.11-7.17,3.66-17.49,4-18.32-.1.76-1.29,10.18,0,18.2.06-1.29.16-2.55.3-3.82,4.53-41.3,62.55-76.87,62.55-76.87s-28.19,43-24.9,100c1.16,20.14,8.37,40.14,16.19,56.4-3.61-7.9-7-20.71-7.16-21.5.6,1.43,16.74,39.4,22.79,49.06l.61.94c.16.23.29.43.41.62C167.25,396.66,169.29,399.32,169.29,399.32Z" style="fill:#024959"></path><path d="M169.29,399.32l-3.58,14.33c-29.8-23-58.13-60.09-68.76-95.38-2.29-7.64-7.53-24.2-7.63-31-.11-7.17,3.66-17.49,4-18.32-.1.76-1.29,10.18,0,18.2.06-1.29.16-2.55.3-3.82,4.53-41.3,62.55-76.87,62.55-76.87s-28.19,43-24.9,100c1.16,20.14,8.37,40.14,16.19,56.4-3.61-7.9-7-20.71-7.16-21.5.6,1.43,16.74,39.4,22.79,49.06l.61.94c.16.23.29.43.41.62C167.25,396.66,169.29,399.32,169.29,399.32Z" style="opacity:0.4"></path><path d="M169.29,399.32l-3.58,14.33c-3.79-2.92-7.55-6.06-11.24-9.41L160,384.89c1.17,2.28,2.2,4.17,3.05,5.52l.61.94c.16.23.29.43.41.62C167.25,396.66,169.29,399.32,169.29,399.32Z" style="opacity:0.1"></path><path d="M160.27,419.82c.38,5.09-.66,24.38,18.61,24.38h95.29c12.41,0,99.58-71.6,114.27-88.2s27.33-36.56,29.1-52.52S402.4,215.07,384,181.16c0,0-.15-15.95-4.36-28.8S363.7,121.11,350.4,116.9s-75.34,6.43-81.55,18.61-5.76,33.69-5.76,33.69-53.4,22.82-53.18,26.59,21.27,26.37,39,28.14,51.85-11.74,51.85-11.74,1.55,6.42-.22,12.18-46.76,67.61-55,73.69S192,320.77,182,337.83,158.28,393,160.27,419.82Z" style="fill:#024959"></path><path d="M160.27,419.82c.38,5.09-.66,24.38,18.61,24.38h95.29c12.41,0,99.58-71.6,114.27-88.2s27.33-36.56,29.1-52.52S402.4,215.07,384,181.16c0,0-.15-15.95-4.36-28.8S363.7,121.11,350.4,116.9s-75.34,6.43-81.55,18.61-5.76,33.69-5.76,33.69-53.4,22.82-53.18,26.59,21.27,26.37,39,28.14,51.85-11.74,51.85-11.74,1.55,6.42-.22,12.18-46.76,67.61-55,73.69S192,320.77,182,337.83,158.28,393,160.27,419.82Z" style="fill:#024959"></path><path d="M160.27,419.82c.38,5.09-.66,24.38,18.61,24.38h95.29c12.41,0,99.58-71.6,114.27-88.2s27.33-36.56,29.1-52.52S402.4,215.07,384,181.16c0,0-.15-15.95-4.36-28.8S363.7,121.11,350.4,116.9s-75.34,6.43-81.55,18.61-5.76,33.69-5.76,33.69-53.4,22.82-53.18,26.59,21.27,26.37,39,28.14,51.85-11.74,51.85-11.74,1.55,6.42-.22,12.18-46.76,67.61-55,73.69S192,320.77,182,337.83,158.28,393,160.27,419.82Z" style="opacity:0.30000000000000004"></path><path d="M190.86,335.83c-7.1,9.32-15.48,62.95-6.42,82,7.71,16.21,51.49,25.06,77.77,26.38H178.89c-19.29,0-18.25-19.29-18.62-24.38-2-26.81,11.74-64.93,21.72-82s55.39-33.68,63.6-39.77,53.18-67.93,55-73.69.23-12.18.23-12.18,13.56-6.42,18.56-9.19c0,0,3.56,13,3.57,20.33s-61,74-71.48,78.86S198,326.53,190.86,335.83Z" style="opacity:0.1"></path><path d="M233.29,304.59c-1.35,16.54-9.65,40.82-22.06,54.67-12.6,14.07-37.71,16.22-44.78,16.55,4.45-15.27,10.48-29.33,15.54-38C189.43,325.12,216.56,312.64,233.29,304.59Z" style="opacity:0.2"></path><path d="M245.92,311.87c1.46,6.42,14.4,7.46,20.61,4.69s9.75-12.5,4.65-18.5S244.14,304.08,245.92,311.87Z" style="opacity:0.2"></path><path d="M291.78,260.61c-.33,7.86-7.19,20.5-14.62,23-5.51,1.9-12.62.3-16.27-3.29,8.3-10.61,18.22-24.05,26.07-35.16C290.38,247.74,292,254.77,291.78,260.61Z" style="opacity:0.2"></path><path d="M376.66,276c1.31-6.17,2.1-12.59,1.37-18.66a.55.55,0,0,1,1-.39c.93,1,3.55,3.85,3.94,4.29,0-.38,0-.76-.07-1.12-.11-1.27-.28-2.53-.5-3.77a47.8,47.8,0,0,0-2-7.36,44.91,44.91,0,0,0-3.18-6.91c-1.27-2.24-2.79-4.3-4.25-6.44-.06-.09.11-.21.2-.13a30,30,0,0,1,5.2,6.1,41.73,41.73,0,0,1,3.7,6.74,40,40,0,0,1,2.36,7.39c.28,1.32.49,2.64.64,4a11.15,11.15,0,0,1,0,3.95c-.21.86-1.48.73-1.84.13-.22-.37-3.54-4.45-4.05-5a38.52,38.52,0,0,1-2.05,17.32C377.05,276.37,376.6,276.28,376.66,276Z" style="opacity:0.1"></path><path d="M300.23,211.52c-.82.33-2.6,1-5.05,1.88Z" style="opacity:0.1"></path><path d="M272,433.09s-2.54,9-.59,11,84.65,1,84.8,0-12.7-18.39-20.83-19.28-34.12,6.65-34.12,6.65S348.74,372.3,334.8,337c-6.13-15.55-42.9-21.6-90-2.58-42.82,17.28-32.5,94.14-9,102.56S272,433.09,272,433.09Z" style="fill:#024959"></path><path d="M272,433.09s-2.54,9-.59,11,84.65,1,84.8,0-12.7-18.39-20.83-19.28-34.12,6.65-34.12,6.65S348.74,372.3,334.8,337c-6.13-15.55-42.9-21.6-90-2.58-42.82,17.28-32.5,94.14-9,102.56S272,433.09,272,433.09Z" style="opacity:0.30000000000000004"></path><path d="M247.77,332.92c21.21-8.55,65.3-20.55,83.61-2.39C346,346,336,373.18,328,389.8a232.19,232.19,0,0,1-26.74,41.63c4.84-6.68,9.41-13.54,13.64-20.6,11.46-19.26,32.25-57.26,16.18-77.89-16.7-19-62.21-7.25-83.26,0Z" style="fill:#263238"></path><path d="M256.55,326.71a30.69,30.69,0,0,1,14.22-.79,134.78,134.78,0,0,1-14.22.79Z" style="fill:#263238"></path><path d="M271.64,444.2a1.66,1.66,0,0,1-1-1.43,25.27,25.27,0,0,1-.17-5.43,101,101,0,0,1,2.89-17.77c.31-1.16.6-2.32,1-3.47-.14,1.19-.33,2.38-.48,3.57-.33,2.23-1.26,8.33-1.62,10.64-.52,3.54-1.12,7.08-1.31,10.65,0,1.09-.36,2.58.77,3.24Z" style="fill:#263238"></path><path d="M271.74,417.7c.4,2.06.6,4.19.83,6.24.61,4.45-1.1-.29-1.22-2a9.57,9.57,0,0,1,.39-4.28Z" style="fill:#263238"></path><path d="M339.45,434.81c3.15,2,6.57,6,5.26,10-.22-4-3.07-6.81-5.26-10Z" style="fill:#263238"></path><path d="M345.66,434.44c3.14,2,6.56,6,5.25,10-.21-4-3.06-6.81-5.25-10Z" style="fill:#263238"></path><path d="M384,180.29s2.34-22.72,3.4-24.66,12.24-4.65,15.34-2.38-17.17,28.82-17.17,28.82Z" style="fill:#455a64"></path><path d="M389.22,177.16c-.28.4-.56.77-.81,1.13-1.36-.51-2.69-1-4-1.45,0-.43.1-.88.15-1.36Q386.86,176.27,389.22,177.16Zm3.35-11c-2.26-.81-4.46-1.59-6.63-2.32-.06.44-.12.89-.17,1.35,2.1.72,4.25,1.46,6.44,2.26l1.25.46c.61.21,1.23.44,1.84.68l.77-1.14c-.76-.29-1.5-.57-2.25-.82C393.39,166.4,393,166.26,392.57,166.11Zm4.27-10.72-1.25-.44c-1.36-.49-2.72-1-4-1.41-.75.23-1.44.47-2,.72,1.88.64,3.8,1.29,5.76,2l1.24.44c1.64.58,3.29,1.2,5,1.84.21-.43.41-.83.59-1.22Q399.42,156.32,396.84,155.39Zm-.64-2.82-.61,2.38c-.11.43-.23.86-.33,1.3q-1.26,4.71-2.69,9.86l-.36,1.29c-.87,3.07-1.8,6.24-2.78,9.48.74-1,1.54-2.11,2.36-3.28.58-1.95,1.14-3.87,1.67-5.74l.36-1.28c1-3.44,1.86-6.75,2.68-9.89.13-.43.24-.87.34-1.3.27-1,.52-2,.78-2.95C397.15,152.46,396.68,152.52,396.2,152.57Z" style="fill:#37474f"></path><path d="M384,180.29s2.57-24,7-24.49S385.65,177.41,384,180.29Z" style="opacity:0.30000000000000004"></path><path d="M385.08,180.07s16.66-7,18.41-7.18c3.25-.3,6.56,5.59,6.19,8.62s-25.23.34-25.23.34Z" style="fill:#455a64"></path><path d="M405.71,173.55l-2.19,1.12-1.17.61c.16.41.33.82.5,1.24l1.19-.61c.93-.48,1.85-.95,2.75-1.43A7,7,0,0,0,405.71,173.55ZM404,175.91l-.52-1.24c-.23-.56-.44-1.1-.68-1.64l-1.25.41.76,1.84c.16.41.33.82.5,1.24q1.26,3.09,2.5,6.33c.49,0,1-.07,1.37-.12C405.84,180.41,404.93,178.13,404,175.91Z" style="fill:#37474f"></path><path d="M393.7,181.1c.21.52.41,1.06.63,1.58l-1.47-.1-.36-.89c-.51.24-1,.49-1.53.75l-2.64-.22,3.68-1.77c-.38-.95-.76-1.87-1.14-2.79l1.23-.5,1.09,2.7c3.2-1.57,6.27-3.1,9.16-4.58.16.41.33.82.5,1.24C400,178,396.9,179.53,393.7,181.1Z" style="fill:#37474f"></path><path d="M385.08,180.07s17.66-7.52,19.69-4.62S387.71,180.1,385.08,180.07Z" style="opacity:0.30000000000000004"></path><path d="M300.45,211.88c.88,3.22,65.9,20.59,70.89,18.27,3.73-1.74,16.8-47.15,13.82-51.23-1.26-1.72-3.75,2.54-34.32,15.4C336.66,200.29,299.73,209.28,300.45,211.88Z" style="fill:#455a64"></path><path d="M309.67,207.62a.41.41,0,0,0,0-.08l-1.25.44a.21.21,0,0,0,0,.07c.22.63.48,1.28.7,1.93.43-.12.86-.24,1.3-.34C310.16,209,309.91,208.28,309.67,207.62Zm1.2,3.27-1.28.36c.61,1.71,1.24,3.46,1.87,5.26l1.57.5C312.31,214.91,311.59,212.86,310.87,210.89Zm14.74,7.44c-.13-.43-.28-.84-.41-1.26h0c-1.11-3.28-2.22-6.44-3.31-9.44-.16-.42-.31-.84-.45-1.25l-.82-2.18-1.29.4c.27.7.55,1.44.81,2.17.16.41.31.82.47,1.25,1.09,3,2.21,6.17,3.31,9.45.14.41.29.84.42,1.27l.6,1.81,1.54.43C326.2,220.09,325.9,219.19,325.61,218.33ZM347.45,211l-1.26.45q1.57,4.63,3.1,9.58c.43-.14.84-.29,1.27-.45C349.55,217.33,348.49,214.13,347.45,211Zm0,0-1.26.45q1.57,4.63,3.1,9.58c.43-.14.84-.29,1.27-.45C349.55,217.33,348.49,214.13,347.45,211Zm0,0-1.26.45q1.57,4.63,3.1,9.58c.43-.14.84-.29,1.27-.45C349.55,217.33,348.49,214.13,347.45,211Zm-10.87,3.78c-.15-.43-.28-.85-.43-1.28-1.12-3.29-2.25-6.46-3.34-9.46-.16-.41-.32-.83-.47-1.24l-.73-2c-.43.14-.86.27-1.3.39.26.67.5,1.33.76,2,.15.42.31.84.47,1.27,1.11,3,2.23,6.16,3.33,9.45.15.41.29.84.43,1.26,1,2.86,1.92,5.82,2.84,8.84l1.37.35.15,0a.19.19,0,0,0,0-.08C338.64,221.11,337.62,217.91,336.58,214.82ZM347.45,211l-1.26.45q1.57,4.63,3.1,9.58c.43-.14.84-.29,1.27-.45C349.55,217.33,348.49,214.13,347.45,211Zm0,0-1.26.45q1.57,4.63,3.1,9.58c.43-.14.84-.29,1.27-.45C349.55,217.33,348.49,214.13,347.45,211Zm0,0-1.26.45q1.57,4.63,3.1,9.58c.43-.14.84-.29,1.27-.45C349.55,217.33,348.49,214.13,347.45,211Zm5.16,16.5q-.83-2.86-1.67-5.66c-.13-.42-.26-.85-.38-1.26-1-3.29-2.07-6.49-3.11-9.58-.14-.43-.29-.84-.44-1.27-1.13-3.3-2.28-6.48-3.38-9.46-.16-.43-.32-.84-.47-1.26-.21-.57-.43-1.13-.64-1.67l-1.26.42c.21.56.42,1.14.64,1.71.16.4.3.82.46,1.25,1.12,3,2.25,6.16,3.4,9.46-3.15,1.12-6.36,2.24-9.61,3.32.15.43.28.85.43,1.28,3.26-1.09,6.46-2.21,9.61-3.33q1.57,4.63,3.1,9.58c.14.43.27.84.39,1.27.49,1.6,1,3.21,1.44,4.85h0Zm12,.08c-.9-3.3-1.85-6.55-2.85-9.72,3.29-1.25,6.48-2.49,9.54-3.72-.14-.42-.28-.84-.41-1.25-3.05,1.21-6.24,2.45-9.52,3.7-1-3.3-2.1-6.51-3.16-9.59-.16-.43-.3-.85-.44-1.27-1.15-3.32-2.31-6.49-3.45-9.47-.16-.43-.32-.84-.46-1.26-.23-.58-.46-1.14-.67-1.72,0,0,0,0,0,0-.4.2-.77.36-1.13.53,0,0-.05,0-.08,0,.23.56.44,1.12.65,1.69l.48,1.26c1.12,3,2.28,6.14,3.44,9.46q-4.64,1.77-9.53,3.53c.15.43.3.84.44,1.27,3.25-1.18,6.44-2.35,9.53-3.52,1.07,3.08,2.13,6.29,3.16,9.59.13.42.27.83.4,1.26q1.48,4.75,2.84,9.71c.12.43.24.86.35,1.28h0c0,.12.05.25.09.37l1.44.22c-.09-.35-.19-.71-.28-1Zm7.92-13.93c-.13-.43-.27-.84-.4-1.27q-1.61-4.95-3.23-9.61c-.14-.41-.29-.84-.44-1.25-1.18-3.34-2.37-6.53-3.5-9.49-.16-.43-.32-.82-.48-1.24-.28-.72-.56-1.42-.83-2.12l-1.21.55c.27.68.53,1.37.81,2.08l.47,1.24c1.15,3,2.32,6.14,3.5,9.47.15.42.3.84.44,1.27q1.65,4.62,3.23,9.61c.13.41.27.83.41,1.25,1,3.16,2,6.41,2.91,9.72.06.25.13.5.21.77.13-.32.27-.67.4-1s.27-.67.4-1C374.37,219.59,373.48,216.61,372.55,213.69Zm7-15.3c-.16-.41-.31-.84-.46-1.25-1.21-3.36-2.41-6.53-3.56-9.48l-.48-1.23c-.37-.92-.72-1.81-1.06-2.67l-1.2.59c.34.84.69,1.71,1,2.6.16.4.32.82.48,1.23,1.14,3,2.34,6.13,3.57,9.49.13.41.28.83.44,1.24.79,2.2,1.57,4.48,2.36,6.82.21-.77.42-1.53.62-2.3C380.72,201.71,380.13,200,379.55,198.39Zm5.95-16.57c-.37-.93-1-2.28-1.36-3.22a8.73,8.73,0,0,0-1.25.49c.41,1,1,2.31,1.4,3.28.16.4.32.81.48,1.24s.36.89.55,1.36c.08-.6.13-1.16.18-1.68s.07-.88.08-1.27h0C385.56,181.94,385.53,181.89,385.5,181.82ZM309.12,210q-4.2,1.17-8.42,2.23c.08.07.17.13.28.21l.37.23a8.67,8.67,0,0,0,1,.52q3.61-.91,7.22-1.92C309.43,210.82,309.28,210.4,309.12,210Zm76.38-28.16c-.4.19-.8.38-1.21.55-2.83,1.27-5.9,2.62-9.24,4.06-.4.16-.81.34-1.22.52-2.95,1.26-6.05,2.55-9.33,3.88-.4.18-.81.34-1.23.51-3,1.21-6.14,2.46-9.39,3.7l-1.26.48q-4.59,1.78-9.46,3.53l-1.26.46c-3.12,1.12-6.32,2.24-9.56,3.33l-1.27.41c-3.16,1.07-6.38,2.11-9.63,3.12l-1.3.39c-3.21,1-6.46,1.94-9.72,2.88.14.41.29.84.45,1.25q4.92-1.38,9.74-2.88c.43-.12.85-.25,1.28-.39q4.91-1.51,9.65-3.1c1.11,3,2.23,6.16,3.33,9.45.43-.13.85-.28,1.28-.43-1.12-3.29-2.25-6.46-3.34-9.46,3.23-1.09,6.43-2.2,9.55-3.32,1.12,3,2.25,6.16,3.4,9.46-3.15,1.12-6.36,2.24-9.61,3.32.15.43.28.85.43,1.28,3.26-1.09,6.46-2.21,9.61-3.33l1.26-.45c3.25-1.18,6.44-2.35,9.53-3.52.42-.18.83-.32,1.25-.48,3.26-1.25,6.42-2.49,9.45-3.72-.14-.43-.29-.85-.44-1.27q-4.55,1.84-9.45,3.72c-1.15-3.32-2.31-6.49-3.45-9.47,3.24-1.26,6.39-2.5,9.4-3.72,1.15,3,2.32,6.14,3.5,9.47l1.24-.49c-1.18-3.34-2.37-6.53-3.5-9.49,3.28-1.32,6.4-2.62,9.33-3.89l1.22-.52c3.34-1.43,6.43-2.79,9.24-4l.73-.32c0-.45.07-.88.08-1.27h0v-.21Zm-29,24.42q-4.64,1.77-9.53,3.53c-1.13-3.3-2.28-6.48-3.38-9.46q4.86-1.77,9.47-3.53C354.22,199.75,355.38,202.92,356.54,206.24Zm22.55-9.1-1.21.53c-3,1.25-6.1,2.56-9.4,3.89l-1.24.49q-4.55,1.84-9.45,3.72l-1.23.47h0q-4.64,1.77-9.53,3.53c-.41.16-.84.31-1.25.45-3.15,1.12-6.36,2.24-9.61,3.32-.43.15-.85.3-1.28.43q-4.77,1.59-9.67,3.09h0c-.43.12-.86.26-1.28.39l-4.77,1.41.62.19c.59.16,1.17.33,1.76.51l2.81-.84,1.27-.4c3.26-1,6.5-2,9.69-3.1l1.28-.41c3.26-1.09,6.46-2.21,9.61-3.33l1.26-.45c3.25-1.18,6.44-2.35,9.53-3.52.42-.18.83-.32,1.25-.48,3.26-1.25,6.42-2.49,9.45-3.72.42-.17.83-.33,1.24-.51q4.95-2,9.4-3.9l1.23-.52c1.17-.49,2.31-1,3.42-1.47.13-.53.25-1.08.39-1.61Q381.29,196.21,379.09,197.14Zm-6.94,15.28-1.24.51c-3.05,1.21-6.24,2.45-9.52,3.7-1-3.3-2.1-6.51-3.16-9.59-.42.16-.83.3-1.25.48,1.07,3.08,2.13,6.29,3.16,9.59q-4.68,1.77-9.58,3.51c-.43.16-.84.31-1.27.45q-4.74,1.68-9.66,3.31l-.12,0,.15,0,2.24.56c2.63-.88,5.22-1.78,7.78-2.68.42-.15.85-.3,1.26-.46,3.28-1.15,6.48-2.33,9.6-3.51l1.24-.47c3.29-1.25,6.48-2.49,9.54-3.72l1.23-.49c2.26-.91,4.48-1.81,6.6-2.69l.48-1.64C377.23,210.36,374.73,211.38,372.15,212.42Zm2.08,11.48c-3.09,1.22-6.31,2.48-9.6,3.72l-1.25.46-2.89,1.07,2.58.46h0l.64-.25h0c.41-.14.84-.3,1.25-.46,3.15-1.19,6.2-2.36,9.16-3.54.09-.22.2-.45.29-.69s.27-.67.4-1Z" style="fill:#37474f"></path><path d="M379.89,208.45c-3.18,10.94-6.85,20.9-8.55,21.7-4.06,1.89-47.92-9.28-64.55-15.22,16.69,4.92,59.21,11.66,63.12,9.74C372.6,223.35,378.21,211.84,379.89,208.45Z" style="opacity:0.1"></path><path d="M301.35,296.52s31.32,21.16,49.2,24.78,53.33-24.11,53.33-24.11,13.78,21.52,15.9,24.11,13.35,4,15.42,1.91,1.92-12,0-17.5-22.61-29.25-30.88-28.51S372,290.3,370.21,290.05c-2.8-.39-18.24-19.2-29.56-33.68" style="fill:#024959"></path><path d="M301.35,296.52s31.32,21.16,49.2,24.78,53.33-24.11,53.33-24.11,13.78,21.52,15.9,24.11,13.35,4,15.42,1.91,1.92-12,0-17.5-22.61-29.25-30.88-28.51S372,290.3,370.21,290.05c-2.8-.39-18.24-19.2-29.56-33.68" style="opacity:0.30000000000000004"></path><path d="M435.2,323.21c-2.07,2.13-13.3.68-15.42-1.91s-15.9-24.11-15.9-24.11-35.46,27.72-53.34,24.11c-11.58-2.34-28.8-12.06-39.48-18.6C317.21,306,346.15,313,354.24,314c8.42,1,49.64-18.41,49.64-18.41s17.54,22,19.31,23,8.68,3.65,10.75,3c1.27-.4,2.47-4.61,2.7-7.56C436.85,318.09,436.4,322,435.2,323.21Z" style="opacity:0.1"></path><path d="M426.51,314.44c3.15,2,6.57,6,5.26,10-.22-4-3.07-6.82-5.26-10Z" style="fill:#263238"></path><path d="M432.57,311c2.56,2.88,5.26,8.05,2.87,11.69.91-4.14-1.49-7.88-2.87-11.69Z" style="fill:#263238"></path><path d="M308.59,302c11.8,5.88,23.58,12,35.93,16.63l3.09,1c.53.12,1.83.48,2.33.6,16,2.4,40.33-14.7,53.94-23.06-10.5,8.09-21.51,15.77-33.71,21.14-6.65,2.72-14.15,5.37-21.45,3.61-5.94-1.54-11.54-4.27-17-6.93-7.94-3.93-15.62-8.32-23.12-13Z" style="fill:#263238"></path><path d="M400.78,292.41c4.76,6.94,9.69,14.35,14,21.57a101.59,101.59,0,0,1-14-21.57Z" style="fill:#263238"></path><path d="M313.17,308c4.16.81,8,2,12.13,3a20.74,20.74,0,0,1-12.13-3Z" style="fill:#263238"></path><path d="M344.74,261.56l14.62,16.52c3.53,3.73,6.71,7.93,10.83,11a46.25,46.25,0,0,0,5-2c6.74-2.9,13.47-5.92,20.46-8.36a36.94,36.94,0,0,1,8.16-2.1,6,6,0,0,1,2.91.6,34.75,34.75,0,0,1,9.22,6.16,38.5,38.5,0,0,0-9.56-5.24,5.14,5.14,0,0,0-2.47-.38,40.38,40.38,0,0,0-7.72,2.42c-5.9,2.33-14.31,6.15-20.21,8.74-1.63.65-3.56,1.57-5.3,2.06a1.77,1.77,0,0,1-1.28-.13,17.35,17.35,0,0,1-3.92-3.37c-2.56-2.71-5-5.5-7.3-8.35-4.69-5.69-9.14-11.56-13.44-17.54Z" style="fill:#263238"></path><path d="M351,264.94a12.69,12.69,0,0,1,3.88,9c-1.24-3.13-2.73-5.87-3.88-9Z" style="fill:#263238"></path><path d="M319.32,117c9.66,8.76,12.32,44.52,21,56.92s39.59,8.57,44.1-8.71S364.58,119.13,350.4,116,319.32,117,319.32,117Z" style="fill:#024959"></path><path d="M319.32,117c9.66,8.76,12.32,44.52,21,56.92s39.59,8.57,44.1-8.71S364.58,119.13,350.4,116,319.32,117,319.32,117Z" style="opacity:0.6000000000000001"></path><path d="M206.81,195.24c-.26,2.87,11.41,12.3,16.51,11.64s9.82-16.58,7.64-19.95S207.14,191.59,206.81,195.24Z" style="fill:#263238"></path><path d="M221.38,203.93c4.08,3,15.73,13.66,20.6,10.9,4.14-2.5,5.08-8.26,5.89-12.71-.25,4.73-1,10.79-5.45,13.56-5.85,3.23-17-7.81-21-11.75Z" style="fill:#263238"></path><path d="M228.37,214c1.52.84,3.24,2.14,4.86,2.46-.13,0-.13.19-.14.14-3-4.15-7.06-7.42-10.29-11.44a61.16,61.16,0,0,1,8.12,7.3c1.07,1.26,2.37,2.39,2.93,4,0,2.4-4.79-1.85-5.48-2.46Z" style="fill:#263238"></path><path d="M280.83,151c11.85-6.75,23-1,29.06,9.58,4.91,8.61,2.88,21.41-8.5,27.89s-24.3.17-28.91-7.92S268,158.29,280.83,151Z" style="opacity:0.2"></path><path d="M276.83,164.45c5.85-4.64,12.36-2.48,16.52,2.76a11.21,11.21,0,0,1-2.28,15.8c-5.62,4.46-13.14,2.12-16.3-1.88A11.77,11.77,0,0,1,276.83,164.45Z" style="fill:#263238"></path><path d="M277.14,166c5.5-4.36,11.61-2.34,15.53,2.6a10.54,10.54,0,0,1-2.14,14.85c-5.28,4.19-12.35,2-15.33-1.77A11.08,11.08,0,0,1,277.14,166Z" style="fill:#fff"></path><path d="M276.34,168.38c4.49-3.56,9.48-1.9,12.68,2.12a8.61,8.61,0,0,1-1.75,12.13c-4.31,3.42-10.08,1.62-12.51-1.44A9,9,0,0,1,276.34,168.38Z" style="fill:#263238"></path></g><g id="freepik--Cat--inject-7"><path d="M64.12,294.42c.78-6.86,4-26.12,5.2-27.78s15.06,4.87,21,17.82Z" style="fill:#024959"></path><path d="M65.64,293.84c.58-5.61,3-21.21,3.86-22.57s11.39,4.51,15.83,15.1Z" style="opacity:0.1"></path><path d="M71.51,291.55s.43-2.77-.09-3.53a9.54,9.54,0,0,0-1.33-1.46,8.67,8.67,0,0,1,2.32,1,9.87,9.87,0,0,1,1.13,1.25,4.32,4.32,0,0,0-1.22-3,18.47,18.47,0,0,0-3.23-2s4.25,0,5.76.94,3.32,1.6,4.18,2.05a14.79,14.79,0,0,0,3.27.76Z" style="fill:#024959"></path><path d="M128,375.83c-2.32,1.69-10.5,16.69-8.84,22S130.9,421.88,131.65,423s6.2,16,5.95,16.69-6.89,3.4-6.89,4.5,16.6.89,16.85.41a20.32,20.32,0,0,0,.33-3.72c0-.25,8.63-20.7,10.13-24.44s-2.49-21.58-2.49-23.24S153.58,357.24,128,375.83Z" style="fill:#024959"></path><g style="opacity:0.1"><path d="M128,375.83c-2.32,1.69-10.5,16.69-8.84,22S130.9,421.88,131.65,423s6.2,16,5.95,16.69-6.89,3.4-6.89,4.5,16.6.89,16.85.41a20.32,20.32,0,0,0,.33-3.72c0-.25,8.63-20.7,10.13-24.44s-2.49-21.58-2.49-23.24S153.58,357.24,128,375.83Z"></path></g><path d="M99.82,375.83c-2.32,1.69-7,16.69-5.32,22s15.92,23.83,16.67,25,7.35,17,7.1,17.68-5.54,2.95-5.54,4,17,.58,17.25.1a48.22,48.22,0,0,0,.69-5.46c0-.25,9.22-15.72,10.72-19.46s5.66-18.65,5.66-20.31S125.39,357.24,99.82,375.83Z" style="fill:#024959"></path><path d="M226.64,341.42c4.7,4.51,12.65,22.85,13.14,28.91s-3.07,35.11-2.65,36.36A187.79,187.79,0,0,0,246.37,423c.5.78,2.64,3.73,2.71,4.07.25,1.16-1.33,4.73-1.91,5.48s-11.51,10.15-12.17,9.49,1.79-7.11,1.79-7.53-18.56-10.7-19.84-11.76c-2.4-2-19.92-21.67-21.58-32.22S212.09,327.46,226.64,341.42Z" style="fill:#024959"></path><path d="M223.83,339.55,211.61,417c-6.08-7.12-15.08-19-16.24-26.46C193.81,380.7,209.83,334,223.83,339.55Z" style="opacity:0.1"></path><path d="M111.52,281.33c2.74-4.81,17.1-20.89,20.09-21.15s9.63,21.15,10.71,25.72,0,20.36,0,20.36Z" style="fill:#024959"></path><path d="M112.36,282c2.16-3.81,12.78-16.81,15.15-17s7.62,16.74,8.47,20.35.1,15.86.1,15.86Z" style="opacity:0.1"></path><path d="M117.53,286.2s2.81-2.1,3.12-3.31a13,13,0,0,0,.3-2.67,11.71,11.71,0,0,1,1.1,3.23,12.94,12.94,0,0,1-.28,2.28,5.82,5.82,0,0,0,2-4,25.26,25.26,0,0,0-.85-5.07s3.77,4.37,4.18,6.74.74,5.81,1.05,7.09,1.4,5.39,1.4,5.39Z" style="fill:#024959"></path><path d="M61.63,311.14c-.66,1.66-9,15.45-8.49,19.43S63,349.66,83.38,357.63c0,0,2.16,1.82,2.66,7.47s-2.14,19.09-1.89,23.13a13,13,0,0,0,1.5,5s-.21-5.26.45-6.36c0,0,1.14,7,2.22,9.38a8.14,8.14,0,0,0,3.11,3.15l-2.18-5.78s3.39,6.9,15.38,12.95c10.18,5.13,50.59,3.54,55.35,3.54s43.71-5.75,47.43-13.28c1.22-2.49,13.82-25.22,14.78-31.33.51-3.3,8.7-16.57,6.34-21.78s-10.42-14.29-18.47-18.95c-6.31-3.65-35-4.48-58.44,5a15.82,15.82,0,0,0-1.94-1.66,8.07,8.07,0,0,0-3.14-1.27s-3.83-23-5.16-25.85-20.59-18.37-26-20.47-27.23.77-31.33,1.66-18.92,9.74-19.92,12.28S61.63,311.14,61.63,311.14Z" style="fill:#024959"></path><path d="M126.23,410c-9.18-.44-17.66-1.42-21.6-3.41C93,400.69,89.47,394,89.26,393.62l2.17,5.76a8.14,8.14,0,0,1-3.11-3.15c-1.08-2.41-2.22-9.38-2.22-9.38-.66,1.1-.45,6.36-.45,6.36a13,13,0,0,1-1.5-5c-.25-4,2.38-17.49,1.89-23.13s-2.66-7.47-2.66-7.47c-20.42-8-29.74-23.07-30.24-27.06S61,312.8,61.63,311.14c0,0,1.49-14.17,2.49-16.72-1.44,7.95-.69,17.58-.86,18.25s-5.85,14.36-4.5,17.9,20,24.16,31.55,26.91c0,0,3.83,10.89,3.36,15.88s.41,18.79,1.38,21.94,5.15,5.52,8.84,8.9S125.13,409.82,126.23,410Z" style="opacity:0.1"></path><path d="M172.55,408c-4,.94-8.06,1.85-12.16,2.51-6.9.62-13.8.48-20.72.42-5.54-.17-11.1-.13-16.59-1.13-5.5-1.46-10.29-4.39-14.72-7.67,2.39,1.38,4.82,2.67,7.32,3.8,7.44,3.88,15.88,3.18,24,3.52,6.84.07,13.75.38,20.58.16,2.82-.31,9.38-1.25,12.27-1.61Z" style="fill:#263238"></path><path d="M83.38,357.63c1.73.56,16.75-.91,20-2,2.7-.89,18.43-12.16,30.41-20.35,7-4.79,13.37-8.65,13.86-8.65,0,0,3.53,1.72,4,2.57,0,0-7,2.23-9.05,3.49s-8.11,5.22-8.11,5.22-23.58,20.76-29.06,22-20.54,1.41-20.54,1.41a8.35,8.35,0,0,1-1.2-2.16C83.53,358.48,83.38,357.63,83.38,357.63Z" style="fill:#455a64"></path><path d="M133.52,338.49a69.48,69.48,0,0,1,10-6.85,35.81,35.81,0,0,1,8.09-1.91c-2.57,1-5.18,1.75-7.71,2.8-3.24,1.77-7,4.47-10.39,6Z" style="fill:#263238"></path><path d="M146.54,326.8c-1.22.74-2.89,1.88-4.12,2.64a20.11,20.11,0,0,0-1.81,1.51,15.72,15.72,0,0,1-2,1.47,19.23,19.23,0,0,1,2.73-3.43,11.07,11.07,0,0,1,5.21-2.19Z" style="fill:#263238"></path><path d="M74.31,302.78c-4.56-.47-7.31,3.85-7.86,9.16-.44,4.3,1.82,9,6.19,9.42s7.6-4.44,8-8.48S79.25,303.29,74.31,302.78Z" style="fill:#263238"></path><path d="M74.63,303.94c-4.28-.44-6.87,3.61-7.38,8.61-.42,4,1.7,8.43,5.81,8.85s7.15-4.17,7.54-8S79.28,304.41,74.63,303.94Z" style="fill:#fff"></path><path d="M76,304.07c-3.36-.34-5.38,2.83-5.78,6.74-.33,3.17,1.33,6.6,4.55,6.93s5.59-3.26,5.9-6.24S79.67,304.44,76,304.07Z" style="fill:#263238"></path><path d="M108.26,302.46c6.2-1.19,10.24,3,11.3,8.54a9.48,9.48,0,0,1-7.9,11c-6,1.14-10.68-3.57-11.49-7.8A10,10,0,0,1,108.26,302.46Z" style="fill:#263238"></path><path d="M107.88,303.74c5.84-1.12,9.63,2.8,10.63,8a8.91,8.91,0,0,1-7.43,10.3c-5.6,1.07-10-3.35-10.8-7.33A9.37,9.37,0,0,1,107.88,303.74Z" style="fill:#fff"></path><path d="M110.29,304.2c4.76-.91,7.86,2.29,8.68,6.56a7.28,7.28,0,0,1-6.07,8.41,7.76,7.76,0,0,1-8.81-6A7.65,7.65,0,0,1,110.29,304.2Z" style="fill:#263238"></path><path d="M91,315.22c-.06.57-3.46,2.69-3.85,2.69s-3.88-2.08-4-2.64,3.08-.79,3.9-.8S91.08,314.66,91,315.22Z" style="fill:#263238"></path><path d="M80.67,319.32c.57.8,1.14,1.59,1.77,2.31a6.43,6.43,0,0,0,1,1,1,1,0,0,0,.48.19.92.92,0,0,0,.44-.21,3.56,3.56,0,0,0,.77-1,9.1,9.1,0,0,0,.57-1.27,19.94,19.94,0,0,0,.82-2.73l.39-1.69.58,1.64a20.44,20.44,0,0,0,1.44,3.16,8.61,8.61,0,0,0,.95,1.4,2.65,2.65,0,0,0,1.22.9l.16,0h.17a2.38,2.38,0,0,0,.37-.06,2.78,2.78,0,0,0,.74-.31,6.64,6.64,0,0,0,1.34-1.06,17.53,17.53,0,0,0,2.19-2.78,13.19,13.19,0,0,1-1.85,3.09,6.59,6.59,0,0,1-1.35,1.28,2.65,2.65,0,0,1-1.93.55,3.3,3.3,0,0,1-1.71-1.05,10.64,10.64,0,0,1-1.12-1.5,19.37,19.37,0,0,1-1.57-3.32l1-.05a20.19,20.19,0,0,1-.93,2.85,10.94,10.94,0,0,1-.7,1.36,3.84,3.84,0,0,1-1.08,1.21,1.58,1.58,0,0,1-.9.29,1.51,1.51,0,0,1-.84-.4,5.65,5.65,0,0,1-1-1.16A16.73,16.73,0,0,1,80.67,319.32Z" style="fill:#263238"></path><path d="M64.79,315.86c-2.5-.11-5-.14-7.5-.11s-5,.09-7.5.27c-1.25.05-2.49.16-3.74.25s-2.49.24-3.73.38c-2.49.25-5,.63-7.44,1,1.22-.27,2.44-.56,3.68-.78s2.47-.43,3.71-.6c2.49-.36,5-.57,7.49-.74s5-.21,7.53-.16c1.25,0,2.51.08,3.76.15S63.55,315.69,64.79,315.86Z" style="fill:#263238"></path><path d="M63.82,317.35c-1.12.09-2.25.17-3.37.29s-2.25.21-3.37.34c-2.24.24-4.48.5-6.71.84-1.12.14-2.23.32-3.34.49l-3.33.57-1.67.3-1.66.34c-1.11.19-2.2.47-3.31.68,2.16-.66,4.35-1.24,6.56-1.7s4.44-.85,6.68-1.18,4.49-.57,6.75-.73S61.56,317.32,63.82,317.35Z" style="fill:#263238"></path><path d="M64.51,318.74c-.92.19-1.84.37-2.76.58s-1.84.39-2.76.61c-1.83.43-3.66.85-5.47,1.32s-3.64.94-5.45,1.44-3.62,1-5.44,1.53c.88-.35,1.76-.68,2.65-1s1.78-.62,2.68-.9c1.79-.59,3.61-1.09,5.43-1.56s3.67-.87,5.53-1.21S62.63,318.91,64.51,318.74Z" style="fill:#263238"></path><path d="M122.42,319.71c1.54-.2,3.09-.3,4.64-.42s3.11-.14,4.67-.17c3.11-.06,6.22,0,9.33.18s6.21.45,9.3.88c1.54.2,3.08.46,4.61.72.77.12,1.53.28,2.29.44l2.28.48c-3.07-.46-6.14-.94-9.23-1.25-1.54-.18-3.09-.32-4.63-.46s-3.1-.24-4.65-.31c-3.09-.21-6.2-.27-9.3-.3S125.52,319.54,122.42,319.71Z" style="fill:#263238"></path><path d="M123.63,321.55c2.8,0,5.6.12,8.4.33s5.59.53,8.37.89,5.55.86,8.29,1.44,5.47,1.25,8.16,2c-1.38-.27-2.73-.62-4.11-.87l-2.06-.42-2.06-.37c-1.38-.26-2.76-.48-4.14-.71s-2.76-.43-4.15-.61c-2.77-.4-5.55-.72-8.33-1-1.39-.15-2.79-.28-4.18-.4S125,321.65,123.63,321.55Z" style="fill:#263238"></path><path d="M122.78,323.29c2.33.22,4.64.6,6.93,1s4.58.94,6.86,1.49,4.52,1.19,6.75,1.9c1.12.35,2.22.72,3.33,1.09s2.2.8,3.29,1.21c-2.25-.64-4.48-1.31-6.73-1.93s-4.5-1.22-6.77-1.78-4.53-1.1-6.8-1.61c-1.14-.26-2.28-.49-3.43-.73S123.93,323.5,122.78,323.29Z" style="fill:#263238"></path><path d="M69.64,297.44a4.94,4.94,0,0,1,3.16-3.12,5.13,5.13,0,0,1,4.42.29,15.75,15.75,0,0,1-2,.91,52.51,52.51,0,0,1-5.63,1.92Z" style="fill:#263238"></path><path d="M119.06,299a51.44,51.44,0,0,1-5.53-2.22,15.39,15.39,0,0,1-1.9-1,5.12,5.12,0,0,1,4.44-.06,4.92,4.92,0,0,1,3,3.28Z" style="fill:#263238"></path><path d="M93.27,341a17.71,17.71,0,0,1-3.33-4.58.17.17,0,0,0-.31.05c-.08.4-.29,1.55-.32,1.73-.06-.1-.11-.2-.16-.3-.18-.34-.33-.69-.48-1.05a14.08,14.08,0,0,1-.67-2.21,13.42,13.42,0,0,1-.29-2.28c0-.78,0-1.56.06-2.34,0,0-.06,0-.07,0a9,9,0,0,0-.36,2.4,13,13,0,0,0,.13,2.33,11.82,11.82,0,0,0,.58,2.27,11.2,11.2,0,0,0,.47,1.13,3.45,3.45,0,0,0,.62,1c.2.19.5,0,.49-.26s.2-1.71.24-1.94A12.09,12.09,0,0,0,91.12,339a12.46,12.46,0,0,0,2,2.08C93.23,341.13,93.33,341,93.27,341Z" style="fill:#263238"></path><path d="M130.77,312.89a57.72,57.72,0,0,1,6,13.32c1,4-6.27,9-9.18,11,1.79-1.64,3.56-3.29,5.19-5.05,1.24-1.49,2.87-3,3.13-5a18.23,18.23,0,0,0-1.18-4.19c-1.18-3.27-2.68-6.85-3.92-10.13Z" style="opacity:0.1"></path><path d="M146.8,361.61c-2.75,4.56-9.07,31.1-5.64,37.41s34.31,19.26,35.42,20.59S183,440,182.67,440.53s-6,2.94-5.87,4.08c.1.76,14,.23,14.83.23s1.85-2.91,1.72-2.7,15.17-27.15,18.23-32.55c1.51-2.65-4.17-10.95-4.17-12.78s13.32-18.1,13.28-26.73c0-4.86-7.8-24.58-26.23-27.23S153.11,351.15,146.8,361.61Z" style="fill:#024959"></path><path d="M184.18,440.88c-2.51,1.23-4.76,2.16-5.39,3.32-.12.22.09.48.51.77-1.47-.05-2.47-.16-2.5-.36-.14-1.14,5.54-3.53,5.87-4.08s-5-19.59-6.09-20.92-32-14.28-35.42-20.59c-2.39-4.4,0-18.66,2.54-28.42-.63,4.75.4,23.56,4.38,27.63s31.29,16.38,32.35,17.87S185.82,440.09,184.18,440.88Z" style="opacity:0.1"></path><path d="M158.05,410.32c-6-2.67-12.73-5-17.08-10.22-1.41-1.94-1.29-4.51-1.36-6.78a84.53,84.53,0,0,1,5-26c-1.87,9.6-3.94,19.36-3.37,29.17a5.48,5.48,0,0,0,.9,2.76c4.05,5,10.47,7.66,15.91,11Z" style="fill:#263238"></path><path d="M141.55,370.33a53.22,53.22,0,0,1,.4,8.37,10.59,10.59,0,0,1-.4-8.37Z" style="fill:#263238"></path><path d="M216.65,348.22a90.82,90.82,0,0,1,5.65,17.09,9,9,0,0,1,.11,3.58C220,378,214.59,386.05,209.73,394c-.36.61-1.4,2.22-1.7,2.82-.09-.24.07.3.19.59,1.31,3.47,3.17,6.85,4,10.53a1.91,1.91,0,0,1-.24,1.22,31.86,31.86,0,0,1-2.9,4.83,41.36,41.36,0,0,0,2.44-5,1.32,1.32,0,0,0,.12-.94c-1.17-3.72-3.22-7.1-4.73-10.74a1.31,1.31,0,0,1-.11-.61,20.93,20.93,0,0,1,1.79-3.37c4.57-8,9.93-15.87,12.55-24.73.5-4-1-7.92-2-11.78-.77-2.89-1.66-5.74-2.54-8.6Z" style="fill:#263238"></path><path d="M248.07,285.36a25.33,25.33,0,0,0,3.23-2.72c-.11.22-1.94,3.79-2.62,4.22s-3.28,2.85-4.45,3.62c-7.91,12.12-18.45,27-21.93,37.7-3,9.14,0,15.61,0,15.61l-11.14-10.12c-2-2.74-7.47-11.46-5.47-26.24s13.85-33,2.52-53.29-22.57-14.39-38.92-5c0,0,16.69-27.21,46.2-27.75,19.14-.36,34.89,41.92,33.52,58.34a6.26,6.26,0,0,0,.63-1.51c.26-1.36.37-7.83.37-7.83s1.71,6.28,1.21,9c-.35,2-2.21,4.22-3.71,6.14Z" style="fill:#024959"></path><path d="M206.5,323.56c2.06,4.48,4.11,9.05,4.52,14-1.42-4.71-3.42-9.21-4.52-14Z" style="fill:#263238"></path><path d="M209,330.57a6.57,6.57,0,0,1-.27,4.41,18.63,18.63,0,0,1,.27-4.41Z" style="fill:#263238"></path><path d="M221.11,333.68l.19,2.95c0,3,1,5.77,1.25,8.71a18.21,18.21,0,0,1-1.44-11.66Z" style="fill:#263238"></path><path d="M221.25,339.28a35,35,0,0,1,2.74,4,7.31,7.31,0,0,1-2.74-4Z" style="fill:#263238"></path><path d="M211.15,333.65c-2-2.76-7.46-11.47-5.46-26.22s13.85-33,2.52-53.29-22.57-14.39-38.92-5c0,0,12.5-20.38,35-26.21-8.16,2.89-16.2,11.74-19.73,15.87,0,0,13.93-2,19.73,2.66s14.05,22.78,16.41,32.43-12,29.84-13.1,39.74C206.53,323.28,210.9,333.1,211.15,333.65Z" style="opacity:0.1"></path></g></svg>
