<svg xmlns="http://www.w3.org/2000/svg" viewBox="0 0 500 500"><g id="freepik--background-complete--inject-2"><path d="M407.8,123.1c.16-1.7.54-3.38.82-5.07,1.12-4,2.21-8,4.31-11.66a16.85,16.85,0,0,1,2-2.81c2.38-2.65,5.23-3,8.27-1.18a17.51,17.51,0,0,1,5.46,5.51c3.16,4.77,5.33,10,4.93,15.76a17.85,17.85,0,0,1-7.91,14.18c-5.58,3.78-12.15,2.22-15.59-3.58A18,18,0,0,1,407.8,123.1Z" style="fill:#ebebeb"></path><path d="M378.21,127.4c-3.28-6-3.4-12.24,0-18.24a26.4,26.4,0,0,1,14.17-12,12.82,12.82,0,0,1,3.37-.72,5.73,5.73,0,0,1,6.36,4.06,20.57,20.57,0,0,1,.85,9.18c-.2,2.33-.55,4.65-.83,7-.76,4.26-2.11,8.25-5,11.58a13.92,13.92,0,0,1-6.83,4.53A10.4,10.4,0,0,1,378.21,127.4Z" style="fill:#ebebeb"></path><path d="M360.43,149.5c-5.3-3.89-7.44-9.29-6.89-15.79a19.63,19.63,0,0,1,.44-2.13A22.44,22.44,0,0,1,360,120a10.89,10.89,0,0,1,1-.84c3.38-2.59,6.61-2.27,9.4,1a23.39,23.39,0,0,1,4.27,8.18c1.27,3.86,2.36,7.76,1.85,11.91a14.69,14.69,0,0,1-2.59,7C370.62,151.78,365,152.83,360.43,149.5Z" style="fill:#ebebeb"></path><path d="M426.53,176.49c-.06.62-.17,1.24-.29,2-1.5,6-5.59,9.42-11.59,10.72-6.34,1.37-12.27-.06-17.77-3.24a18.46,18.46,0,0,0-11.65-2.5c-6.23.67-12.12-.41-17.33-4.05-4.37-3.05-7-7.18-6.74-12.69a15.11,15.11,0,0,1,5.27-10.72,29.85,29.85,0,0,1,5.71-4,46.22,46.22,0,0,0,12-9.22,17.87,17.87,0,0,1,26-.4,17.58,17.58,0,0,1,4.53,8.11,24.42,24.42,0,0,0,5.85,10.83,20.83,20.83,0,0,1,6,13.65A10.46,10.46,0,0,1,426.53,176.49Z" style="fill:#ebebeb"></path><path d="M446.72,150.74c-1.61,7.12-5.4,11.64-11.69,13.83s-12.23-1.26-13.23-7.84a14.36,14.36,0,0,1,.63-6.82c1.74-5.21,5.31-9.12,9.27-12.7a21,21,0,0,1,4.74-3.16c3.54-1.73,6.62-.66,8.54,2.77a18.83,18.83,0,0,1,2.09,9.74C447,148.17,446.8,149.77,446.72,150.74Z" style="fill:#ebebeb"></path><path d="M169.89,82.44c-.81-2.49-1.3-5.08-1.94-7.62-.87-6.31-1.8-12.61-1.06-19a25.91,25.91,0,0,1,1.1-5.16c1.72-5.16,5.49-7.43,10.88-6.69a26.78,26.78,0,0,1,11,4.4c7.34,4.78,13.55,10.71,16.53,19.11s2.45,17-2.47,24.71c-5.51,8.7-15.69,10.51-24.05,4.47A27.4,27.4,0,0,1,169.89,82.44Z" style="fill:#dbdbdb"></path><path d="M131,106.48c-8.27-6.45-12.23-15.1-11.18-25.55a40.52,40.52,0,0,1,12.54-25.55,19.42,19.42,0,0,1,4.29-3.05c4.23-2.27,8-1.64,11.41,1.82s5.25,7.85,6.77,12.36c1.15,3.38,2.06,6.85,3.08,10.28,1.54,6.44,2.08,12.85.06,19.28a21.16,21.16,0,0,1-6.82,10.51C145.32,111.29,137.29,111.39,131,106.48Z" style="fill:#dbdbdb"></path><path d="M119.52,148.32c-9.81-2.22-16.1-8.5-19.28-18a26.76,26.76,0,0,1-.68-3.25c-1.33-6.75-1.16-13.41,1.45-19.88a16.75,16.75,0,0,1,.83-1.77c3.17-5.69,7.89-7.21,13.77-4.37a35.79,35.79,0,0,1,11,8.88c4.13,4.64,8,9.45,9.85,15.57a22.54,22.54,0,0,1,.61,11.35C135.21,145.31,127.93,150.23,119.52,148.32Z" style="fill:#dbdbdb"></path><path d="M228.69,145.9c.3.92.52,1.85.85,3.06,1.51,9.26-2.11,16.63-9.74,22.11-8.05,5.78-17.25,7.38-26.91,6.27a28.28,28.28,0,0,0-17.86,3.6c-8.32,4.73-17.24,6.8-26.77,4.87-8-1.62-14.15-5.83-17.18-13.69a23,23,0,0,1,.86-18.25,45.69,45.69,0,0,1,5.56-9.12,71.17,71.17,0,0,0,11.26-20.26A27.29,27.29,0,0,1,185,108.07a26.58,26.58,0,0,1,11.3,8.61,37.39,37.39,0,0,0,14.82,11.63c7.3,3.23,13.19,8.11,16.7,15.5A17.2,17.2,0,0,1,228.69,145.9Z" style="fill:#dbdbdb"></path><path d="M241.32,97.49c2.08,11-.48,19.61-8,26.52-7.66,7.07-17.93,5.69-23.35-2.93a22.17,22.17,0,0,1-3.27-10c-.73-8.37,1.9-16,5.28-23.46a31.79,31.79,0,0,1,4.72-7.32c3.91-4.58,8.88-5,13.66-1.31,4.21,3.21,6.89,7.58,8.87,12.38C240.21,93.68,240.85,96.08,241.32,97.49Z" style="fill:#dbdbdb"></path><path d="M94.25,245.44c-.84-1.49-1.49-3.08-2.22-4.63-1.37-3.94-2.77-7.85-3.12-12a16.58,16.58,0,0,1,0-3.45c.44-3.53,2.56-5.47,6.11-5.68a17.5,17.5,0,0,1,7.63,1.4c5.31,2.12,10.06,5.13,13,10.13a17.91,17.91,0,0,1,1.59,16.16c-2.42,6.29-8.71,8.75-14.85,5.95A17.88,17.88,0,0,1,94.25,245.44Z" style="fill:#ebebeb"></path><path d="M72.4,265.85c-6.13-3.08-9.77-8.11-10.44-15a26.44,26.44,0,0,1,4.76-18,12.47,12.47,0,0,1,2.36-2.51,5.72,5.72,0,0,1,7.54-.3,20.59,20.59,0,0,1,5.93,7c1.17,2,2.2,4.13,3.3,6.2,1.81,3.93,3,8,2.51,12.36a14,14,0,0,1-3,7.61A10.39,10.39,0,0,1,72.4,265.85Z" style="fill:#ebebeb"></path><path d="M70.41,294.15c-6.57-.17-11.41-3.38-14.66-9a19.57,19.57,0,0,1-.86-2,22.53,22.53,0,0,1-1.62-12.94,10.22,10.22,0,0,1,.31-1.24c1.3-4.06,4.13-5.63,8.26-4.57A23.56,23.56,0,0,1,70,268.66c3.24,2.44,6.36,5,8.31,8.71a14.67,14.67,0,0,1,1.84,7.2C80.09,290.21,76.05,294.29,70.41,294.15Z" style="fill:#ebebeb"></path><path d="M140.1,278.59c.31.54.56,1.11.93,1.85,2.16,5.74.78,10.93-3.4,15.42-4.42,4.74-10.11,6.95-16.45,7.48a18.56,18.56,0,0,0-11,4.59c-4.72,4.11-10.18,6.58-16.54,6.57-5.33,0-9.82-1.93-12.77-6.58a15,15,0,0,1-1.79-11.81,30.15,30.15,0,0,1,2.39-6.56,46.57,46.57,0,0,0,4.62-14.43,17.85,17.85,0,0,1,21.15-15.19A17.46,17.46,0,0,1,115.6,264a24.45,24.45,0,0,0,11,5.56,20.8,20.8,0,0,1,12.7,7.79A11.48,11.48,0,0,1,140.1,278.59Z" style="fill:#ebebeb"></path><path d="M142,245.93c2.74,6.76,2.21,12.63-1.7,18s-10.77,5.95-15.34,1.12a14.37,14.37,0,0,1-3.38-6c-1.54-5.28-.84-10.53.37-15.72a20.54,20.54,0,0,1,2.09-5.3c1.92-3.45,5-4.33,8.59-2.6a18.79,18.79,0,0,1,7.27,6.8C140.78,243.63,141.5,245.08,142,245.93Z" style="fill:#ebebeb"></path></g><g id="freepik--Table--inject-2"><polygon points="27.65 449.09 83.23 448.85 138.82 448.76 250 448.59 361.18 448.76 416.77 448.85 472.35 449.09 416.77 449.34 361.18 449.43 250 449.59 138.82 449.42 83.23 449.34 27.65 449.09" style="fill:#263238"></polygon></g><g id="freepik--paw-2--inject-2"><path d="M447.05,306.36c0,1.58,5.86,110.89,7.87,142.73H362.75c4.86-22.72,28.4-145.24,28.82-147.06.79-3.36-9.68-17.07-3.9-25.25,6-8.55,11-5.88,12.8-8s3.38-11.72,12.49-13.93c7.71-1.87,7.72,3.92,11,4.11,1.94.11,2.56-1.57,4.5-2.71l0,0,.05,0a.09.09,0,0,1,.07,0h0c1.32-.73,3.23-1.2,6.48-.74,8.47,1.2,10.65,17.28,12.1,19.37s7.68.54,9.73,9.67C459.88,297.64,447,304.46,447.05,306.36Z" style="fill:#455a64"></path><path d="M411.21,360.45c2.9-5.05,5.34-10.42,6.17-15.78.07-.43.81-.54,1.06-.15.67,1.06,2.56,4,2.83,4.5.08-.33.16-.66.22-1a31.93,31.93,0,0,0,.47-3.34,35.28,35.28,0,0,0-.07-6.74,33.73,33.73,0,0,0-1.39-6.6c-.7-2.18-1.69-4.27-2.59-6.4,0-.1.16-.17.23-.08a25.08,25.08,0,0,1,3.63,6.31,32.42,32.42,0,0,1,2,6.56,29.12,29.12,0,0,1,.46,6.85,30.55,30.55,0,0,1-.38,3.55,8.76,8.76,0,0,1-1,3.4c-.43.7-1.66.33-1.87-.26-.12-.36-2.39-4.55-2.75-5.16a31.35,31.35,0,0,1-2,6.83,34.84,34.84,0,0,1-4.52,7.66C411.51,360.84,411.08,360.67,411.21,360.45Z" style="opacity:0.2"></path><path d="M425.13,276.37c0-1.07.09-2.14.15-3.2a30.45,30.45,0,0,1,1.84-7.54,10.53,10.53,0,0,1,1-1.89,3.73,3.73,0,0,1,5-1.32,10.93,10.93,0,0,1,3.78,3c2.29,2.73,4,5.79,4.18,9.42a11.13,11.13,0,0,1-3.9,9.36,6.57,6.57,0,0,1-9.92-1.12A11.13,11.13,0,0,1,425.13,276.37Z" style="fill:#263238"></path><path d="M407.09,281.14a11.23,11.23,0,0,1-1.33-11.31,16.55,16.55,0,0,1,7.93-8.48,8,8,0,0,1,2-.68,3.57,3.57,0,0,1,4.23,2.06,12.75,12.75,0,0,1,1.18,5.63c.05,1.46,0,2.92,0,4.38a14.39,14.39,0,0,1-2.27,7.54,8.57,8.57,0,0,1-3.9,3.29A6.48,6.48,0,0,1,407.09,281.14Z" style="fill:#263238"></path><path d="M397.64,296.11a10.39,10.39,0,0,1-5.4-9.3,12.3,12.3,0,0,1,.12-1.35,14.05,14.05,0,0,1,2.93-7.59,6.1,6.1,0,0,1,.54-.59c1.91-1.85,3.93-1.88,5.89-.07A14.49,14.49,0,0,1,405,282a16.85,16.85,0,0,1,2,7.25,9.18,9.18,0,0,1-1.11,4.5A5.8,5.8,0,0,1,397.64,296.11Z" style="fill:#263238"></path><path d="M440.55,308.13c0,.39,0,.78,0,1.3-.5,3.79-2.79,6.24-6.42,7.47a15.17,15.17,0,0,1-11.25-.75,11.56,11.56,0,0,0-7.4-.71,15.36,15.36,0,0,1-11-1.28,8.84,8.84,0,0,1-5.08-7.38,9.37,9.37,0,0,1,2.5-7,18.68,18.68,0,0,1,3.25-2.9,28.87,28.87,0,0,0,6.8-6.57A11.16,11.16,0,0,1,428,288.17a10.85,10.85,0,0,1,3.38,4.71,15.3,15.3,0,0,0,4.41,6.3,13,13,0,0,1,4.68,8C440.51,307.52,440.54,307.82,440.55,308.13Z" style="fill:#263238"></path><path d="M451.23,290.73c-.49,4.53-2.52,7.6-6.26,9.41a6,6,0,0,1-8.77-3.92,8.94,8.94,0,0,1-.09-4.27c.71-3.36,2.64-6,4.84-8.54a13,13,0,0,1,2.72-2.29,3.72,3.72,0,0,1,5.49,1.11,11.68,11.68,0,0,1,2,5.88C451.25,289.11,451.21,290.12,451.23,290.73Z" style="fill:#263238"></path><path d="M428.63,256.15s0,0,0,0a1.29,1.29,0,0,0-.16.09Z"></path><path d="M404.67,377.39c0-.2,0-.4.05-.66a4.5,4.5,0,0,1,3.22-3.74,6.7,6.7,0,0,1,5.31.54,5,5,0,0,0,3.48.48,6.72,6.72,0,0,1,5.19.81,4.46,4.46,0,0,1,2.23,3.86,5.14,5.14,0,0,1-1.35,3.57,6.64,6.64,0,0,1-1.61,1.44c-2.43,1.36-4.06,1.43-7.41,1s-4.9-.92-7.06-2.66a5.91,5.91,0,0,1-2-4.18C404.68,377.71,404.67,377.55,404.67,377.39Z" style="fill:#263238"></path></g><g id="freepik--paw-1--inject-2"><path d="M141.45,449.09H56c-1.17-40.88-2.75-96.46-2.76-97.78,0-3.44-13.46-14.28-9.79-23.59C47.34,318,52.76,319.4,54,316.91s.5-12.18,8.83-16.49c7-3.64,8.43,2,11.65,1.39,1.91-.35,2.12-2.14,3.73-3.7l.14-.13h0c1.1-1,2.85-1.91,6.1-2.23,8.51-.86,14.45,14.25,16.35,15.93s7.59-1.29,11.75,7.09c6,12.09-4.88,21.78-4.39,23.61C108.55,343.66,129.44,410.62,141.45,449.09Z" style="fill:#024959"></path><path d="M141.45,449.09H56c-1.17-40.88-2.75-96.46-2.76-97.78,0-3.44-13.46-14.28-9.79-23.59C47.34,318,52.76,319.4,54,316.91s.5-12.18,8.83-16.49c7-3.64,8.43,2,11.65,1.39,1.91-.35,2.12-2.14,3.73-3.7l.14-.13h0c1.1-1,2.85-1.91,6.1-2.23,8.51-.86,14.45,14.25,16.35,15.93s7.59-1.29,11.75,7.09c6,12.09-4.88,21.78-4.39,23.61C108.55,343.66,129.44,410.62,141.45,449.09Z" style="opacity:0.4"></path><path d="M98.9,400.48c-3.9-4.33-7.41-9.06-9.35-14.14-.16-.4-.91-.35-1.07.08-.43,1.18-1.65,4.49-1.82,5-.15-.3-.3-.6-.43-.9a31,31,0,0,1-1.15-3.18,34.73,34.73,0,0,1-1.35-6.59,33.1,33.1,0,0,1,0-6.75c.22-2.28.75-4.53,1.18-6.81,0-.09-.19-.12-.24,0a25.09,25.09,0,0,0-2.22,6.93,31.52,31.52,0,0,0-.53,6.83,29.36,29.36,0,0,0,1,6.78A32.17,32.17,0,0,0,84,391.1a8.85,8.85,0,0,0,1.69,3.11c.57.6,1.7,0,1.77-.65.05-.37,1.39-4.95,1.61-5.62a32.19,32.19,0,0,0,3.37,6.26,35.21,35.21,0,0,0,6,6.54C98.69,400.92,99.07,400.67,98.9,400.48Z" style="opacity:0.2"></path><path d="M79.78,318.43c-.27-1-.41-2.1-.61-3.15a30.54,30.54,0,0,1,0-7.76,10.84,10.84,0,0,1,.56-2.08A3.74,3.74,0,0,1,84.32,303,11,11,0,0,1,88.71,305c2.88,2.11,5.27,4.67,6.3,8.16a11.16,11.16,0,0,1-1.57,10,6.57,6.57,0,0,1-9.9,1.28A11.22,11.22,0,0,1,79.78,318.43Z" style="fill:#ff9bbc"></path><path d="M63.4,327.35a11.22,11.22,0,0,1-4-10.67,16.51,16.51,0,0,1,5.69-10.12,7.67,7.67,0,0,1,1.82-1.15,3.57,3.57,0,0,1,4.6,1A12.62,12.62,0,0,1,74,311.6c.39,1.4.69,2.84,1,4.26a14.4,14.4,0,0,1-.41,7.86,8.57,8.57,0,0,1-3,4.12A6.47,6.47,0,0,1,63.4,327.35Z" style="fill:#ff9bbc"></path><path d="M57.77,344.13A10.26,10.26,0,0,1,50.12,335a14,14,0,0,1,1-8.07,6.94,6.94,0,0,1,.38-.71c1.42-2.24,3.38-2.75,5.71-1.46a14.62,14.62,0,0,1,4.27,3.87,17,17,0,0,1,3.66,6.56,9.23,9.23,0,0,1,0,4.64A5.8,5.8,0,0,1,57.77,344.13Z" style="fill:#ff9bbc"></path><path d="M102.3,345.62c.1.38.17.77.28,1.27.4,3.81-1.24,6.73-4.47,8.79A15.24,15.24,0,0,1,87,357.62a11.57,11.57,0,0,0-7.36,1.06,15.38,15.38,0,0,1-11,1.38,8.84,8.84,0,0,1-6.69-6,9.38,9.38,0,0,1,.76-7.42,18.77,18.77,0,0,1,2.47-3.59,28.94,28.94,0,0,0,5-8,11.14,11.14,0,0,1,15.15-5.86A10.86,10.86,0,0,1,89.78,333a15.28,15.28,0,0,0,5.77,5.08,12.94,12.94,0,0,1,6.46,6.69A6.83,6.83,0,0,1,102.3,345.62Z" style="fill:#ff9bbc"></path><path d="M108.55,326.19c.6,4.51-.64,8-3.85,10.62a6,6,0,0,1-9.44-1.72A9,9,0,0,1,94.15,331c-.11-3.42,1.14-6.48,2.68-9.43a13.17,13.17,0,0,1,2.09-2.88,3.73,3.73,0,0,1,5.6-.22,11.73,11.73,0,0,1,3.33,5.24C108.18,324.61,108.39,325.6,108.55,326.19Z" style="fill:#ff9bbc"></path><path d="M78.39,298l0,0-.13.13Z"></path><path d="M84.7,418.9c-.07-.19-.12-.38-.2-.63a4.51,4.51,0,0,1,1.66-4.65,6.68,6.68,0,0,1,5.14-1.41,5,5,0,0,0,3.43-.81,6.72,6.72,0,0,1,5.13-1.11,4.46,4.46,0,0,1,3.47,2.8,5.15,5.15,0,0,1,0,3.82,6.69,6.69,0,0,1-1,1.92c-1.79,2.14-3.28,2.79-6.55,3.62s-4.91.9-7.55.07a5.94,5.94,0,0,1-3.4-3.18A3.38,3.38,0,0,1,84.7,418.9Z" style="fill:#ff9bbc"></path></g><g id="freepik--Dog--inject-2"><path d="M162.41,449.29l13.3-44.36s-35.47-12.41-44.34-30.37-1.55-110.4,7.32-137.23,45.23-61.19,94.22-73.16,99.54,11.5,118.38,35.22,51.1,102.27,53.1,124.66S370.47,373,370.47,373l23.17,76.3Z" style="fill:#024959"></path><g style="opacity:0.1"><path d="M175.71,404.93c5.44.63,10.67,2.12,16,3.28,3.17.64,6.4,1,9.62,1.71-8.81,1.52-17.74-1.11-25.61-5Z"></path><path d="M348.34,386.59c4.43-3.19,9.28-5.61,14-8.33,2.8-1.66,5.37-3.52,8.16-5.27-5.27,7.2-13.77,11.14-22.13,13.6Z"></path></g><path d="M345.53,449.29s-17.62-36.93-30.59-44.36-74.14-3.59-86.8,13.86c-10.24,14.11-16,30.5-16,30.5Z" style="fill:#fff;opacity:0.45"></path><path d="M271.18,398.48c-49.63,6.2-75.82-35.37-72.67-59.64,3.81-29.34,45.67-41.54,41.56-74.5-2.48-19.82-17.78-23.83-19.13-34.63-2.08-16.63,13.57-45.82,23.29-47s32.06,23.24,34.14,39.87c1.35,10.8-12.5,18.45-10,38.27,4.12,32.95,47.7,34.49,58.61,62C336,345.55,320.82,392.28,271.18,398.48Z" style="fill:#fff;opacity:0.45"></path><path d="M200.8,280.86c-20.6,2.57-16.63,34.58,4,32S221.42,278.28,200.8,280.86Z" style="fill:#263238"></path><path d="M183.37,267c.58-8.19,11.5-13.41,17.94-8-3,.56-5.78.84-8.51,2-3.51,1.41-6.26,3.59-9.43,5.94Z" style="fill:#263238"></path><path d="M324,249.39c-3.65-1.49-6.86-2.93-10.6-3.44-2.94-.47-5.74-.06-8.75.13,4.95-6.87,16.73-4.49,19.35,3.31Z" style="fill:#263238"></path><path d="M310.17,267.2c-20.59,2.57-16.63,34.58,4,32S330.79,264.62,310.17,267.2Z" style="fill:#263238"></path><path d="M277.45,334.87c-.9,6.21-2.41,15.17-12.32,16.41s-13.58-7.08-16-12.87c0,0,5.14,1.82,8.22-.8s3.46-20.79,3.46-20.79,4.83,17.52,8.46,19.31S277.45,334.87,277.45,334.87Z" style="fill:#ff9bbc"></path><path d="M264.36,345.06a94.3,94.3,0,0,1-3.45-27.6,94.55,94.55,0,0,1,3.45,27.6Z" style="fill:#263238"></path><path d="M281.93,301.55c.3,2.42-1.89,5.24-2.82,6.49-1.95,2.56-6.14,3.89-7.54,2.57-1.63-1.52,2.73-2.92,2.16-4.51-.42-1.19-2-3-4.16-2.32s-.57,6.67-1.32,8.68a8.89,8.89,0,0,1-7,5.56l-.22,0a8.9,8.9,0,0,1-8.17-3.66c-1.22-1.76-1.13-8-3.41-8.09s-3.35,2-3.47,3.27c-.16,1.68,4.41,2,3.21,3.84-1,1.62-5.43,1.36-7.94-.64-1.21-1-4-3.18-4.33-5.59-.41-3.23,5.66-10.8,21.16-12.73l.22,0C273.79,292.48,281.53,298.32,281.93,301.55Z" style="fill:#263238"></path><path d="M234.52,324.15A34,34,0,0,0,238.6,329c2.86,2.9,5.89,5.76,9.65,7.34,2.52,1,5.38,2,7.75.66,1.75-1.61,2.13-5.21,2.74-7.66.78-4.09,1.36-8.28,2.08-12.49.7,5.54,1.39,18.18-2.76,22.33-3.25,2.49-7.82,1.25-11-.37-4-2-7-5.4-9.51-9a21.91,21.91,0,0,1-3-5.65Z" style="fill:#263238"></path><path d="M288.12,317.46a21.84,21.84,0,0,1-1.56,6.23c-1.54,4.06-3.65,8.13-7,11-2.66,2.35-6.79,4.68-10.54,3.06-5-3-7.49-15.42-8.18-21,1.74,3.91,3.33,7.82,5.09,11.59,1.19,2.23,2.45,5.63,4.55,6.75,2.61.68,5.15-.95,7.34-2.54,3.27-2.46,5.49-6,7.55-9.49a33,33,0,0,0,2.77-5.66Z" style="fill:#263238"></path><path d="M287,362.88c-5,2.51-10.36,4.55-15.59,5-.42,0-.57.76-.21,1,1,.71,3.75,2.7,4.18,3-.32.06-.64.12-1,.16a29.64,29.64,0,0,1-3.25.26,34.45,34.45,0,0,1-6.5-.46,31.74,31.74,0,0,1-6.29-1.73c-2.07-.79-4-1.87-6-2.87-.09,0-.17.15-.09.22a24.16,24.16,0,0,0,5.89,3.87,31.19,31.19,0,0,0,6.22,2.27,28.66,28.66,0,0,0,6.58.84,33.51,33.51,0,0,0,3.46-.16,8.51,8.51,0,0,0,3.34-.77c.7-.38.41-1.59-.15-1.82-.34-.14-4.25-2.58-4.82-2.95a31.07,31.07,0,0,0,6.71-1.52,33.64,33.64,0,0,0,7.65-3.93C287.33,363.19,287.19,362.77,287,362.88Z" style="fill:#263238"></path><path d="M162.41,449.29l13.3-44.36s-35.47-12.41-44.34-30.37c-7.06-14.3-3.86-75.78,2.21-113.8-.21,15-.87,90.07,11.76,107.92s37.58,29,70.17,36.25c0,0-14.2,14.52-14.2,26.16,0,7.85,11.23,18.2,58.11,18.2Z" style="opacity:0.1"></path><path d="M371.53,376.47s4.59,44.42,2.82,55.06-39.46,17.76-39.46,17.76h58.75Z" style="opacity:0.1"></path><path d="M205.69,173.56c-4.15,1.25-10.58-1.74-13.57-4.95s-8.43-14.53-8.43-14.53-1.66,10.42-.77,15.3a19.25,19.25,0,0,0,3.1,7.76,32,32,0,0,1-10.64-9.09c-4-5.76-6.43-9.53-12-10.53s-21.73,22.17-34.47,29.93-26,11.75-30.82,19.29-4.43,43,3.33,64.29,28.59,43,37.9,39.68,3.71-27.68,17.9-58.27c10.9-23.5,26-33.95,26-33.95Z" style="fill:#024959"></path><path d="M180.35,220.8c-4.91,4.24-15.14,14.44-23.11,31.64-14.18,30.59-8.58,54.95-17.89,58.27S109.2,292.31,101.44,271c4.55,10,25.91,29.7,32.37,24.83,5-3.76,8.66-29.71,16.52-44.34C158,237.35,179,221.76,180.35,220.8Z" style="opacity:0.1"></path><path d="M205.69,173.56c-5,1.27-11.05-1.67-14.39-5.45a57.13,57.13,0,0,1-4.33-6.74c-1.31-2.32-2.56-4.67-3.77-7.05l1-.15c-.87,7.47-2.21,16,2.46,22.46l2.11,2.92-3.16-1.65a34.9,34.9,0,0,1-8.18-5.93c-4.7-4.49-7.17-12.35-14.34-13.35-2.46.42-4.38,2.63-6.27,4.25-7,6.79-13.43,14.5-20.87,21-9.83,8.88-23.46,12.15-33.62,20.29a12.18,12.18,0,0,0-4.45,7.51,90.21,90.21,0,0,0-1.45,19.24c.29,12.93,1.76,26.09,5.79,38.4a78.07,78.07,0,0,0,8.56,17.33c4.71,7.46,18.58,25.31,28.19,23.25,1.16-.38,2.08-1.68,2.76-3.05,2-4.38,2.86-9.26,3.87-14,3.93-19,7.13-39.68,19.93-55.09-8.17,10.39-12,23.31-14.83,36-1.38,6.41-2.42,12.88-3.6,19.35-1,4.87-1.74,9.87-3.81,14.47-2.6,6.38-9.13,4.67-13.85,1.83-8.59-5.29-15.18-13.17-20.79-21.4-11.4-16.65-14.56-37.3-15.12-57.07-.07-3.31,0-6.63.16-10,.43-5.11.61-10.34,3.18-15.07,2.89-4.4,7.65-7.1,12-9.51,7.29-3.89,14.78-7,21.51-11.59a92,92,0,0,0,10.87-9.66c4.63-4.61,9-9.53,13.88-14.05,1.94-1.7,3.86-3.54,6.41-4.49a4,4,0,0,1,2.41-.1l.65.15c7,1.75,9.55,9.25,14.11,14a33,33,0,0,0,7.61,5.74l-1.05,1.27a19.79,19.79,0,0,1-2.61-5.65c-1.8-6.47-.2-13.28.7-19.75,2.5,5.27,5,10.71,8.34,15.48,3.16,3.74,8.89,6.88,13.91,5.82Z" style="fill:#263238"></path><path d="M277.28,162.21c4.32.34,10-4,12.2-7.74s5.12-16,5.12-16,3.85,9.83,4,14.78a19.27,19.27,0,0,1-1.37,8.24,32.14,32.14,0,0,0,8.45-11.15c2.67-6.48,4.24-10.69,9.44-12.85s26,17,40.08,21.87,28,5.91,34.23,12.25S403,212.69,400,235.14,381.21,283.26,371.41,282s-9.54-26.25-29.94-53.1c-15.67-20.63-32.66-27.61-32.66-27.61Z" style="fill:#024959"></path><path d="M400,235.13c-3,22.45-18.74,48.13-28.55,46.88-8.89-1.14-9.49-21.83-24.78-45.72a.31.31,0,0,1,0-.07c8.42,7.54,19.06,34.36,26.6,35.25s19.18-19.91,22.5-34c2-8.49,2.95-36.43,3-37.06C400.56,212,401.34,224.83,400,235.13Z" style="opacity:0.1"></path><path d="M277.28,162.21c5.11,0,10.07-4.33,12.35-8.66,2.26-5.38,3.51-11.22,4.83-16.9,2.26,6.12,5.28,12.44,4.9,19.14a19.15,19.15,0,0,1-1.34,6.07l-1.29-1a33.56,33.56,0,0,0,6.21-7.23c3.44-5.6,4.28-13.48,10.78-16.69a4.8,4.8,0,0,1,3-.7c2.69.38,5,1.77,7.23,3,5.76,3.37,11.05,7.25,16.56,10.76a90.37,90.37,0,0,0,12.69,7.11c7.55,3,15.53,4.48,23.48,6.73,4.82,1.41,10,3,13.81,6.72,3.52,4.06,4.81,9.13,6.33,14,.9,3.21,1.64,6.45,2.28,9.7,3.68,19.43,5,40.28-2.57,59-3.71,9.24-8.47,18.35-15.72,25.35-4,3.73-10,6.9-13.93,1.18-3-4.06-4.82-8.77-6.81-13.32-2.54-6.07-4.93-12.17-7.66-18.13-5.44-11.83-12-23.63-22.19-32,15.81,12.32,23.34,31.79,31.25,49.56,2,4.13,5.66,14.31,10.13,15.23,9.8,0,19.61-20.57,22.56-28.74a78.1,78.1,0,0,0,4.66-18.76c1.3-12.89-.07-26.06-2.56-38.75a90,90,0,0,0-5.53-18.49,12.18,12.18,0,0,0-5.95-6.38c-11.67-5.78-25.68-6.06-37.18-12.63-8.66-4.74-16.58-10.9-24.88-16-2.19-1.19-4.53-2.93-7-2.81-6.79,2.51-7.52,10.71-11.16,16.1a34.71,34.71,0,0,1-6.72,7.54l-2.73,2.3,1.43-3.32c3.18-7.32.05-15.34-2.39-22.46l1-.07c-.66,2.58-1.39,5.14-2.17,7.69a57,57,0,0,1-2.79,7.51c-2.45,4.39-7.71,8.58-12.89,8.4Z" style="fill:#263238"></path><path d="M114,444.53c-1.07,7.07,6.48,15.46,11.47,16.3s8.81-2.83,8.81-2.83,4.49,7,13,7.81a14.53,14.53,0,0,0,12.81-5s5,3.82,13.8,3.82S187,456,187,456s6,1.67,10.31-1.82,5.32-12.14,2.33-18.79S179,408,157.64,407.73,115.63,433.56,114,444.53Z" style="fill:#024959"></path><path d="M136,439.09c-1.6,6.34-2.55,12.63-1.44,19.13-3.9-5.66-2.8-14,1.44-19.13Z" style="fill:#263238"></path><path d="M183.08,435.89c5.16,4.82,7.65,13.57,3.74,19.84,1-7-1.06-13.49-3.74-19.84Z" style="fill:#263238"></path><path d="M159.65,440c1.28,6.9,1.06,13.79.53,20.78-2.23-6.65-2-14-.53-20.78Z" style="fill:#263238"></path><path d="M186.12,457.4c-1.64,2.44-5.72,7.25-12.3,7.25-8.81,0-13.8-3.82-13.8-3.82a14.52,14.52,0,0,1-12.8,5c-8.48-.83-13-7.82-13-7.82s-3.82,3.66-8.81,2.83-12.55-9.22-11.47-16.29c1-6.79,9.31-19.36,20.53-27.9-10.88,10.46-14.08,19.87-12.86,25.73s6.21,11.2,12,8.87c0,0,7.1,8.19,14.19,9.58a14.1,14.1,0,0,0,12-3.59s8.26,5.41,14.93,5.21S186.12,457.4,186.12,457.4Z" style="opacity:0.1"></path><path d="M331.81,449.29h88.78s-4.07-64.71-3.9-66.6,13.74-7.2,12.3-20.62c-1-9.31-7.36-8.49-8.56-10.72s-1.53-18.47-9.81-20.62-8.25,2.81-11.47,2.25-2.58-6.32-10.45-5.34c-9.3,1.15-11.93,10.51-14,12.4s-6.65-1.32-13.64,6.49c-6.67,7.46,2.16,22.28,1,25.52C361.36,374,331.81,449.29,331.81,449.29Z" style="fill:#024959"></path><path d="M387.82,434c-2.16-5.41-3.81-11.06-3.87-16.5,0-.43-.73-.64-1-.29-.81.95-3.11,3.63-3.44,4.05,0-.34-.07-.67-.08-1a31.75,31.75,0,0,1,0-3.38,35.41,35.41,0,0,1,1-6.65,33.48,33.48,0,0,1,2.31-6.34c1-2.06,2.28-4,3.47-6,.06-.09-.13-.19-.21-.11a25,25,0,0,0-4.49,5.73,32.31,32.31,0,0,0-2.87,6.22,29.62,29.62,0,0,0-1.43,6.71,30.28,30.28,0,0,0-.12,3.57,8.9,8.9,0,0,0,.5,3.51c.33.75,1.6.56,1.89,0,.17-.33,3-4.16,3.46-4.71a31.27,31.27,0,0,0,1,7,34.77,34.77,0,0,0,3.39,8.22C387.47,434.33,387.91,434.22,387.82,434Z" style="opacity:0.2"></path><path d="M398.34,350.4c.1-1.06.34-2.11.51-3.17a30.92,30.92,0,0,1,2.69-7.28,10.9,10.9,0,0,1,1.25-1.75,3.73,3.73,0,0,1,5.16-.74,11,11,0,0,1,3.41,3.44c2,3,3.33,6.21,3.08,9.84a11.16,11.16,0,0,1-4.94,8.85,6.57,6.57,0,0,1-9.73-2.24A11.12,11.12,0,0,1,398.34,350.4Z" style="fill:#ff9bbc"></path><path d="M379.87,353.08a11.25,11.25,0,0,1,0-11.39,16.58,16.58,0,0,1,8.85-7.52,7.86,7.86,0,0,1,2.1-.44,3.58,3.58,0,0,1,4,2.53,12.79,12.79,0,0,1,.52,5.73c-.12,1.45-.34,2.9-.52,4.35a14.43,14.43,0,0,1-3.11,7.22,8.64,8.64,0,0,1-4.26,2.83A6.48,6.48,0,0,1,379.87,353.08Z" style="fill:#ff9bbc"></path><path d="M368.77,366.87a10.38,10.38,0,0,1-4.29-9.85,12,12,0,0,1,.27-1.33,14.08,14.08,0,0,1,3.77-7.21,6.09,6.09,0,0,1,.61-.53c2.11-1.61,4.12-1.41,5.86.61a14.71,14.71,0,0,1,2.67,5.11,17,17,0,0,1,1.15,7.43,9.09,9.09,0,0,1-1.62,4.34A5.8,5.8,0,0,1,368.77,366.87Z" style="fill:#ff9bbc"></path><path d="M410,383.71c0,.39-.11.78-.18,1.29-.94,3.71-3.49,5.88-7.24,6.69a15.23,15.23,0,0,1-11.09-2,11.57,11.57,0,0,0-7.27-1.56,15.38,15.38,0,0,1-10.81-2.52,8.87,8.87,0,0,1-4.21-7.92,9.39,9.39,0,0,1,3.29-6.69,18.51,18.51,0,0,1,3.57-2.51,29,29,0,0,0,7.5-5.76,11.15,11.15,0,0,1,16.25-.25,10.85,10.85,0,0,1,2.83,5.06,15.3,15.3,0,0,0,3.65,6.76,13,13,0,0,1,3.74,8.52A7,7,0,0,1,410,383.71Z" style="fill:#ff9bbc"></path><path d="M422.63,367.65c-1,4.44-3.37,7.26-7.29,8.63a6,6,0,0,1-8.26-4.9,8.9,8.9,0,0,1,.39-4.25c1.09-3.26,3.32-5.7,5.79-7.93a13.16,13.16,0,0,1,3-2,3.73,3.73,0,0,1,5.32,1.73,11.68,11.68,0,0,1,1.31,6.08C422.83,366,422.68,367,422.63,367.65Z" style="fill:#ff9bbc"></path><path d="M403.93,330.8c-.94.5-2.94,2.67-4.66,2.59s-4.41-3.82-5.49-4.4-5.08-1.35-9.43,1.33S378,338.63,375.48,341s-3.88,1.33-6.26,2-6.38,3.55-7.26,9.43,4.76,19.28,4.54,20.61-17.23,53.26-14.07,62.74c3.51,10.55,42.95,13.36,42.95,13.36l-.28.2H331.81s29.55-75.27,30.26-77.24c1.16-3.24-7.67-18.06-1-25.52,7-7.81,11.57-4.6,13.63-6.49s4.69-11.25,14-12.4c7.87-1,7.23,4.78,10.45,5.34C401.06,333.31,401.87,331.71,403.93,330.8Z" style="opacity:0.1"></path><path d="M404.12,330.71l0,0-.17.07Z"></path></g></svg>
