<svg xmlns="http://www.w3.org/2000/svg" viewBox="0 0 500 500"><g id="freepik--Floor--inject-5"><path id="freepik--floor--inject-5" d="M91.65,416.53C4.17,366,4.17,284.13,91.65,233.62s229.33-50.51,316.82,0,87.48,132.4,0,182.91S179.14,467,91.65,416.53Z" style="fill:#f5f5f5"></path></g><g id="freepik--Shadows--inject-5"><ellipse id="freepik--Shadow--inject-5" cx="137.15" cy="305.52" rx="94.13" ry="54.35" style="fill:#e0e0e0"></ellipse><ellipse id="freepik--shadow--inject-5" cx="357.39" cy="310.86" rx="105.04" ry="60.64" style="fill:#e0e0e0"></ellipse><path id="freepik--shadow--inject-5" d="M230.6,331.7l-89.42,51.63c-2.2,1.27-2.2,3.33,0,4.6l89.42,51.62a8.75,8.75,0,0,0,8,0L328,387.93c2.2-1.27,2.2-3.33,0-4.6L238.57,331.7A8.81,8.81,0,0,0,230.6,331.7Z" style="fill:#e0e0e0"></path></g><g id="freepik--Plants--inject-5"><g id="freepik--plants--inject-5"><path d="M420.51,302.84l-7.85-6.42s-1.67-22.27,3.52-41.23c7.31-26.65,22.31-36.6,31.5-32.06,6.52,3.21,8.82,13.21-5,27.54C434.46,259.12,423.09,277.64,420.51,302.84Z" style="fill:#024959"></path><path d="M420.51,302.84l-7.85-6.42s-1.67-22.27,3.52-41.23c7.31-26.65,22.31-36.6,31.5-32.06,6.52,3.21,8.82,13.21-5,27.54C434.46,259.12,423.09,277.64,420.51,302.84Z" style="opacity:0.30000000000000004"></path><path d="M417.54,288.43h.08a.61.61,0,0,0,.6-.62c-.68-25.79,13.72-49.18,26.45-59.11a.62.62,0,0,0,.1-.86.6.6,0,0,0-.85-.1c-13,10.12-27.61,33.93-26.92,60.1A.61.61,0,0,0,417.54,288.43Z" style="fill:#fff"></path><path d="M436.39,323.45c5.4-1.76,6.63-4.86,7.56-8.71a28.93,28.93,0,0,0,.57-3.92l.39-3.88a9.36,9.36,0,0,1,.88-3.71c1.25-2.26,4-3.09,6.52-3.76,2.75-.74,5.8-2,6.92-4.83a10.84,10.84,0,0,0-.14-7c-.68-2.28-1.69-4.46-2.2-6.78a7.51,7.51,0,0,1,.33-5,7.94,7.94,0,0,1,2.07-2.4c2.12-1.76,4.62-3.12,6.12-5.52a6,6,0,0,0,1-2.95c.13-3.16-2.42-4.6-4.87-5.39a12.23,12.23,0,0,0-5.22-.21c-5.55.72-10.29,5.07-15.88,5.1-2.16,0-4.27-.64-6.41-.89s-4.52-.06-6.13,1.38c-3.18,2.83-1.62,8.5-4.36,11.76-2,2.39-5.16,2.74-7.69,4.32a14.49,14.49,0,0,0-6.33,7.61,21.59,21.59,0,0,0-1.27,11.22c1.24,7.89,6.9,12.52,12.34,17.65C422.89,319.73,431,325.22,436.39,323.45Z" style="fill:#024959"></path><path d="M436.39,323.45c5.4-1.76,6.63-4.86,7.56-8.71a28.93,28.93,0,0,0,.57-3.92l.39-3.88a9.36,9.36,0,0,1,.88-3.71c1.25-2.26,4-3.09,6.52-3.76,2.75-.74,5.8-2,6.92-4.83a10.84,10.84,0,0,0-.14-7c-.68-2.28-1.69-4.46-2.2-6.78a7.51,7.51,0,0,1,.33-5,7.94,7.94,0,0,1,2.07-2.4c2.12-1.76,4.62-3.12,6.12-5.52a6,6,0,0,0,1-2.95c.13-3.16-2.42-4.6-4.87-5.39a12.23,12.23,0,0,0-5.22-.21c-5.55.72-10.29,5.07-15.88,5.1-2.16,0-4.27-.64-6.41-.89s-4.52-.06-6.13,1.38c-3.18,2.83-1.62,8.5-4.36,11.76-2,2.39-5.16,2.74-7.69,4.32a14.49,14.49,0,0,0-6.33,7.61,21.59,21.59,0,0,0-1.27,11.22c1.24,7.89,6.9,12.52,12.34,17.65C422.89,319.73,431,325.22,436.39,323.45Z" style="opacity:0.1"></path><path d="M458.44,263.75a.61.61,0,0,0-.79-.35c-6.36,2.5-16.23,10.82-24.91,22a.55.55,0,0,0-.28.35,95.09,95.09,0,0,0-14.54,26,.61.61,0,0,0,.35.77h0a.62.62,0,0,0,.78-.37,94.39,94.39,0,0,1,14.28-25.6,83,83,0,0,1,17,3.83.61.61,0,0,0,.78-.38.59.59,0,0,0-.38-.77,84.8,84.8,0,0,0-16.5-3.81c8.39-10.61,17.77-18.47,23.86-20.86A.62.62,0,0,0,458.44,263.75Z" style="fill:#fff"></path></g><g id="freepik--plants--inject-5"><path d="M96.81,296.69c.65-14,2.16-27.14-4.29-47.32C87.1,232.45,71,215.24,60.59,215.61c-9.67.35-15.43,11-3.87,23,2.45,2.54,26.17,23,27.27,46.24l2.54,13.43A2.49,2.49,0,0,0,90.08,300Z" style="fill:#024959"></path><path d="M96.81,296.69c.65-14,2.16-27.14-4.29-47.32C87.1,232.45,71,215.24,60.59,215.61c-9.67.35-15.43,11-3.87,23,2.45,2.54,26.17,23,27.27,46.24l2.54,13.43A2.49,2.49,0,0,0,90.08,300Z" style="opacity:0.30000000000000004"></path><path d="M93,295.74a.63.63,0,0,1-.46-.59c-.46-35.59-13.23-60.52-32.39-71.9a.62.62,0,1,1,.63-1.06c19.41,11.52,32.53,36.91,33,72.94a.61.61,0,0,1-.61.63A.5.5,0,0,1,93,295.74Z" style="fill:#fff"></path><path d="M88.52,300.76a4.51,4.51,0,0,1-6.29-2.43,51.77,51.77,0,0,0-11.38-16.91c-8.85-9.05-21.17-14.81-23.09-20.88-2.3-7.3,4.2-10.94,14.67-8.33C75,255.34,88.58,270.31,90,300Z" style="fill:#024959"></path><path d="M88.52,300.76a4.51,4.51,0,0,1-6.29-2.43,51.77,51.77,0,0,0-11.38-16.91c-8.85-9.05-21.17-14.81-23.09-20.88-2.3-7.3,4.2-10.94,14.67-8.33C75,255.34,88.58,270.31,90,300Z" style="opacity:0.1"></path><path d="M86.5,298.86a.64.64,0,0,1-.45-.51c-4-26.05-20.91-38.2-29.3-41a.62.62,0,0,1-.39-.78.61.61,0,0,1,.78-.4c9.28,3.09,26.07,15.4,30.14,42a.62.62,0,0,1-.52.71A.75.75,0,0,1,86.5,298.86Z" style="fill:#fff"></path></g></g><g id="freepik--character-2--inject-5"><g id="freepik--Character--inject-5"><g id="freepik--Bottom--inject-5"><path d="M417.85,265.31c4.39,13.11,8.16,30,14.1,55.54,5.56,23.9,5.59,40.78-2.13,46.57-7.52,5.63-29.9,2.26-43.92-27.6-4.39-9.33-22.12-39.79-22.12-39.79a54.3,54.3,0,0,1-12.85-4.54l-48.38,2.38c-19.8-4.05-53.09-8.77-50.58-16,2.66-7.72,13.56-13.84,24.44-17.65,23.79-8.32,40.88-10.23,65.13-11.79Z" style="fill:#37474f"></path><path d="M349.68,287c-6.48-10.27-6.59-16.24-6.59-16.24s-1.36,12.74,4.87,21.59l-42.57,5.35,45.54-2.24A54.31,54.31,0,0,0,363.77,300S356.17,297.3,349.68,287Z" style="fill:#263238"></path><path d="M338.57,323.1c3.33,2.51,7.41,4.81,11.11,5.31a9.18,9.18,0,0,0,4-.34c4.48-1.35,11.79-2,15.15,6.89,3.81,10.07,15.78,14,19.49,20.75,1.85,3.41,3.55,13.57,2.6,20-.79,5.27-11.11,2.31-15.36-3.65S362.61,358.5,357,354.17c-8.93-4-19-10.23-23.28-12.7Z" style="fill:#874c4c"></path><path d="M272.87,270.4c-26,4.06-25,19.43-17.56,29.35,8.05,10.69,35.22,23.69,49.86,30.48,13.46,6.25,37.82,16.68,37.82,16.68a27.26,27.26,0,0,1,6.69-18.5c-15.38-8.83-31.53-36.59-56.05-38.46Z" style="fill:#37474f"></path><path d="M387.22,379.22a6,6,0,0,0,4.21-1.38c1.1-.93,3-8.45.1-17.11a38,38,0,0,0-11.22-16.54c-3.12-2.77-4.47-6.16-5.88-10.46s-5.11-9.46-7.41-9.87-5.52,1.62-5.52,1.62Z" style="fill:#263238"></path><path d="M349.93,351c.8,2.75,3.17,3.26,5.75,4,3.5,1.05,7,4.26,10.44,7.9,2.31,2.46,4.27,5,6.39,7.59s4.08,6.47,6.31,8.42c3.26,2.84,9.24,1.73,10.5-2.83,1.09-3.93.88-13.45-4.28-22.13-2.81-4.73-9.78-9-12.09-15.53-1.55-4.4-3.59-9.63-7.21-12.75-2.14-1.85-3.9-1.2-6.3-.29a81.25,81.25,0,0,1-9.76,3,15.21,15.21,0,0,0,3.12,7.64,6.81,6.81,0,0,1,1.48,2.41,5.44,5.44,0,0,1,0,1.93c-.11.88-.34,1.94-1.18,2.25a7.33,7.33,0,0,1-1.06.18c-1.33.3-1.84,1.89-2.07,3.24a12.35,12.35,0,0,0-.16,4.41A4.76,4.76,0,0,0,349.93,351Z" style="fill:#024959"></path><path d="M349.93,351c.8,2.75,3.17,3.26,5.75,4,3.5,1.05,7,4.26,10.44,7.9,2.31,2.46,4.27,5,6.39,7.59s4.08,6.47,6.31,8.42c3.26,2.84,9.24,1.73,10.5-2.83,1.09-3.93.88-13.45-4.28-22.13-2.81-4.73-9.78-9-12.09-15.53-1.55-4.4-3.59-9.63-7.21-12.75-2.14-1.85-3.9-1.2-6.3-.29a81.25,81.25,0,0,1-9.76,3,15.21,15.21,0,0,0,3.12,7.64,6.81,6.81,0,0,1,1.48,2.41,5.44,5.44,0,0,1,0,1.93c-.11.88-.34,1.94-1.18,2.25a7.33,7.33,0,0,1-1.06.18c-1.33.3-1.84,1.89-2.07,3.24a12.35,12.35,0,0,0-.16,4.41A4.76,4.76,0,0,0,349.93,351Z" style="opacity:0.4"></path><path d="M362.74,359.6a4.11,4.11,0,0,1-2.95-2.59c-.88-1.85-.36-5.66.83-8.26a1.65,1.65,0,0,1,2.69-.47h0a1.64,1.64,0,0,1,.28,1.87A12.62,12.62,0,0,0,362.74,359.6Z" style="fill:#f5f5f5"></path><path d="M367.71,364.72a4.71,4.71,0,0,1-2.92-3.22s-1.2-5.11.89-9a1.61,1.61,0,0,1,2.6-.46h0a1.55,1.55,0,0,1,.26,1.8A12.67,12.67,0,0,0,367.71,364.72Z" style="fill:#f5f5f5"></path><path d="M372.51,370.56a5.29,5.29,0,0,1-2.76-3.42s-1.08-4.77,1-8.69a1.61,1.61,0,0,1,2.6-.46h0a1.59,1.59,0,0,1,.26,1.81A12,12,0,0,0,372.51,370.56Z" style="fill:#f5f5f5"></path><path d="M340.75,317.66c-4.66-1.18-11.5-2.85-14.33-6.58s-8.69-7.33-16.62-2.11c-5,3.3-11,4.39-16.93,4.78-2.56.17-5.44-.15-7.94.37-3,.63-6.19,2.47-8.78,4.07a14.44,14.44,0,0,0-4.37,3.77,9,9,0,0,0-.16,9.79,4.66,4.66,0,0,0,3.32,2.23c2.74.6,5-.26,7.62-1,2.14-.59,4.33-1.05,6.53-1.45a109.68,109.68,0,0,1,15-1.75c2.15-.09,6.6-.42,8.75-.27,9,.62,21.66,5.66,21.66,5.66Z" style="fill:#9e6767"></path><path d="M434,360.62c-1.48,9.06-11.65,13.43-33.46,9.07s-73.71-37-73.71-37,2-12.53,14-15.9c0,0,10.85,2,28.56,5.82A234.58,234.58,0,0,1,393,329.11c12,16.07,24.42,9.58,28.91,15.23C429.37,353.78,434,360.62,434,360.62Z" style="fill:#37474f"></path><path d="M269.36,332.25a6,6,0,0,1-2.59-3.6c-.34-1.4,2.53-8.62,10-13.87a38,38,0,0,1,18.83-6.73c4.15-.4,7.24-2.34,10.92-5s9.71-4.61,11.81-3.59,3.5,4.57,3.5,4.57Z" style="fill:#263238"></path><path d="M316.09,331.5c-2.27,1.75-4.49.77-7-.13-3.45-1.23-8.19-.71-13.09.21-3.32.63-6.38,1.5-9.64,2.35s-7.12,2.83-10.07,3.08c-4.3.37-8.47-4.05-6.8-8.48,1.44-3.82,7.23-11.38,16.52-15.34,5.06-2.16,13.18-1.46,18.92-5.4,3.85-2.64,8.58-5.65,13.35-6,2.82-.23,3.86,1.33,5.26,3.48a79.59,79.59,0,0,0,6.13,8.15,15.31,15.31,0,0,1-7,4.33,6.73,6.73,0,0,0-2.62,1.07,5.52,5.52,0,0,0-1.13,1.56c-.43.78-.87,1.76-.38,2.51a7.88,7.88,0,0,0,.76.77c.9,1,.36,2.62-.24,3.84a12.76,12.76,0,0,1-2.47,3.66C316.39,331.26,316.24,331.39,316.09,331.5Z" style="fill:#024959"></path><path d="M316.09,331.5c-2.27,1.75-4.49.77-7-.13-3.45-1.23-8.19-.71-13.09.21-3.32.63-6.38,1.5-9.64,2.35s-7.12,2.83-10.07,3.08c-4.3.37-8.47-4.05-6.8-8.48,1.44-3.82,7.23-11.38,16.52-15.34,5.06-2.16,13.18-1.46,18.92-5.4,3.85-2.64,8.58-5.65,13.35-6,2.82-.23,3.86,1.33,5.26,3.48a79.59,79.59,0,0,0,6.13,8.15,15.31,15.31,0,0,1-7,4.33,6.73,6.73,0,0,0-2.62,1.07,5.52,5.52,0,0,0-1.13,1.56c-.43.78-.87,1.76-.38,2.51a7.88,7.88,0,0,0,.76.77c.9,1,.36,2.62-.24,3.84a12.76,12.76,0,0,1-2.47,3.66C316.39,331.26,316.24,331.39,316.09,331.5Z" style="opacity:0.4"></path><path d="M300.7,330.86a4.1,4.1,0,0,0,3.91-.35c1.8-1,3.63-4.36,4.2-7.16a1.65,1.65,0,0,0-1.89-2h0a1.65,1.65,0,0,0-1.34,1.35A12.6,12.6,0,0,1,300.7,330.86Z" style="fill:#f5f5f5"></path><path d="M293.66,332.06a4.73,4.73,0,0,0,4.26-.88s4-3.42,4.61-7.81a1.61,1.61,0,0,0-1.82-1.91h0a1.57,1.57,0,0,0-1.28,1.3A12.65,12.65,0,0,1,293.66,332.06Z" style="fill:#f5f5f5"></path><path d="M286.34,333.93a5.28,5.28,0,0,0,4.25-1.12s3.69-3.21,4.31-7.61a1.61,1.61,0,0,0-1.82-1.91h0a1.57,1.57,0,0,0-1.28,1.3A12.07,12.07,0,0,1,286.34,333.93Z" style="fill:#f5f5f5"></path><path d="M377.9,324.63s14.65,2.86,25.51,10.18c0,0-11.16-13.07-28.41-15.42Z" style="fill:#263238"></path><path d="M293.63,290c9.68.66,17,5.59,18.93,6.77l1,.61,5.85-.29a33.52,33.52,0,0,0-9.3-5.64A26.82,26.82,0,0,0,293.63,290Z" style="fill:#263238"></path></g><g id="freepik--Top--inject-5"><path d="M311.93,243.64c11.22,2.16,17.72,2.14,23.07-9.91,7-15.83,18-41.38,18-41.38l5.54-43.29c-11.22-1.59-21.24,4.62-27.75,20-6.68,15.78-19.52,48.17-19.52,48.17-8.13-.67-16.32-.56-24.46-1.14-3.76-.27-7.2-.61-10.33-2.94a65.51,65.51,0,0,0-6.21-4.6,27.94,27.94,0,0,0-4.55-2.26,16.5,16.5,0,0,1-3.87-2.37,2.29,2.29,0,0,0-1.22-.54c-.84,0-1.43.87-1.6,1.7a5.58,5.58,0,0,0,.46,3.43,9.71,9.71,0,0,0,2.06,2.83c.28.28.59.72.34,1a.77.77,0,0,1-.77.13,74.63,74.63,0,0,1-8.61-2.24,5.62,5.62,0,0,0-4,.14c-2.15,1-2.59,3.91-2.27,6.27,2.09,15.69,19.64,17.15,31.89,19.81,8.91,1.94,17.82,3.88,26.75,5.74C307.2,242.7,309.56,243.19,311.93,243.64Z" style="fill:#874c4c"></path><path d="M361,148.27c-8,.2-16.84-.94-24.92,10s-19.27,45-19.27,45,20.8,1.91,25.54,13.28l18.4-35.41Z" style="fill:#024959"></path><path d="M389.18,148.52c15.85,2.93,26.42,6.35,29.41,9.25,6.74,13.8-2,60.1-2,60.1l.29,26.75,1,20.69c-17.13,14.47-72.44,8.23-81.79-12.05,0,0-2.39-51.56,0-71.25,2.54-20.92,12-33.12,29.92-34.17Z" style="fill:#e0e0e0"></path><circle cx="350.14" cy="99.97" r="21.56" style="fill:#263238"></circle><path d="M392.84,110.27s-1.74,17.65-2.9,20.65a7.9,7.9,0,0,1-4.11,4.14l-1.09-12.16Z" style="fill:#263238"></path><path d="M385.48,86.09a8.54,8.54,0,0,1,7.31,1.69c3.37,2.75,2.76,12.6,0,22.49L386,111.84Z" style="fill:#263238"></path><path d="M384,112.07c1.47.68,3.15-2.21,4.66-4.19s6.82-5,10.26.51-1.06,13.85-5.15,16a5.44,5.44,0,0,1-7.53-2l2.6,27.9c-6.33,15.23-35.92,17.61-26.43.68l-.77-7.07A49.74,49.74,0,0,1,351,145.31c-3.62-.05-8.28-3-11.59-9.74C335,126.5,333,117.5,333.19,98.21c.19-21.15,25.16-23.08,39.19-16.29S384,112.07,384,112.07Z" style="fill:#9e6767"></path><path d="M383.07,74.81a66.87,66.87,0,0,0-14.79-2.71c-10.84-1.12-21.86-2-32.07-5.84a6.81,6.81,0,0,0-3.91-.67c-2.51.62-3.28,3.83-3.1,6.41a21.17,21.17,0,0,0,1.71,7c-1.55-1.48-4.33-.94-5.68.72a7.08,7.08,0,0,0-1,6.13c3.14,12.67,15.58,13.89,25.57,12.71,3.46-.41,10.72-1.87,13.84-5.69a14.35,14.35,0,0,0,13.16,8.66,46,46,0,0,0,1.92,10.06c.47,1.5,1.23,3.18,2.75,3.58a3.34,3.34,0,0,0,3.23-1.24c1.49-1.71,2.25-4,3.75-5.79,1.91-2.27,2.35-17.86,2.41-20.74a1.34,1.34,0,0,1,.23-.63c2-3.64-1.43-9-4.61-10.53A29.8,29.8,0,0,0,383.07,74.81Z" style="fill:#263238"></path><path d="M389.79,87.11a5.08,5.08,0,1,0,6.95-7.4Z" style="fill:#263238"></path><path d="M361.59,144s10.55-3.2,14.64-6c2.73-1.87,4.78-7.15,5.29-8.95a18.33,18.33,0,0,1-2.73,10.29c-2.83,4.35-16.69,9.26-16.69,9.26Z" style="fill:#874c4c"></path><path d="M359.7,112.73a2.8,2.8,0,0,0,3.05,2.54,2.87,2.87,0,1,0-3.05-2.54Z" style="fill:#263238"></path><path d="M367.46,104.57l-5.61-2.44a3.22,3.22,0,0,0,1.64,4.13A3,3,0,0,0,367.46,104.57Z" style="fill:#263238"></path><path d="M365.08,127l-8.72,4.43a4.8,4.8,0,0,0,6.52,2.32A5.1,5.1,0,0,0,365.08,127Z" style="fill:#874c4c"></path><path d="M365.19,129a4.47,4.47,0,0,0-4.46,4.47,4.15,4.15,0,0,0,.08.79,4.68,4.68,0,0,0,2.07-.51,5,5,0,0,0,2.7-4.71C365.45,129.06,365.33,129,365.19,129Z" style="fill:#f28f8f"></path><path d="M340.76,103.28l-5.07,3.52a3,3,0,0,0,4.22.86A3.24,3.24,0,0,0,340.76,103.28Z" style="fill:#263238"></path><path d="M339.59,114.31a2.76,2.76,0,1,0,2.43-3.16A2.81,2.81,0,0,0,339.59,114.31Z" style="fill:#263238"></path><polygon points="352.1 113.02 352.95 128.08 344.84 126.29 352.1 113.02" style="fill:#874c4c"></polygon><path d="M418.59,157.77c9.55,6.15,13.15,17.29,8.54,33.69-5.06,18-14.55,40.47-24.84,55.91-4.15,6.22-6.4,8-25.09,5-9.46-1.53-18.89-3.56-28.25-5.61-11.21-2.46-24.31-5.72-33.28-10a26,26,0,0,1-8-5.78,8.17,8.17,0,0,1,.53-11.8c9.32-8.88,11.88-1.07,18.66,1.17,0,0,4,0,5.91.26,1.73.21,1.85-.08,3.3.86,2.93,1.89,4.82,3.45,6.6,3.71,11.89,1.75,39.45,3.53,39.45,3.53l17.52-42.39S409.47,156.17,418.59,157.77Z" style="fill:#9e6767"></path><path d="M339.08,223.49c-.32-.11-1.8-3.17-2.24-3.79a33,33,0,0,0-3.32-4.13,13.15,13.15,0,0,0-4.06-2.94c-2.23-.89-4.73-1.36-7-2a1.57,1.57,0,0,0-1-.06,1,1,0,0,0-.59.93,2.51,2.51,0,0,0,.28,1.12,9.06,9.06,0,0,0,2.65,3.37c.87.7,3.52,3.57,4.26,4.42C328,220.38,339.08,224.25,339.08,223.49Z" style="fill:#9e6767"></path><path d="M413.68,155c7.26,1.8,13.53,4.12,15.87,14.11s1.45,15.2-7.48,38.25c-5.43,14-9.76,22.44-9.76,22.44s-5.2-13.2-25.1-14.66l12.91-38.76S407.62,159.46,413.68,155Z" style="fill:#024959"></path></g></g></g><g id="freepik--character-1--inject-5"><g id="freepik--character--inject-5"><g id="freepik--top--inject-5"><path d="M145.38,325.37s-32.73-12-36.77-15.26c-3.38-2.74-1.35-9.3-6-10.42-5.39-1.29-9.24,1.6-12.7,4.78-3.28,3-7.56,4.37-15.63,1.58s-15.86-6.76-19.13-5.18S54,305,68.15,311.5c8.11,3.74,18.44,8.1,25.06,10.71a54.88,54.88,0,0,1,13.39,7.23c8.63,6,10.22,7.33,20.43,13.45,20.41,12.23,32.42,15.45,48.66,12.37Z" style="fill:#ffa8a7"></path><path d="M114.74,313.3c-6.51,3.75-9.65,7.88-10,15.09,0,0,4.39,3.4,11.34,8.21,8.32,5.76,28.46,18.87,41.91,20.24,20.86,2.12,27.47-4.16,27.47-4.16Z" style="fill:#455a64"></path><path d="M108.7,317.94c10.68,18,36.77,29.17,45,30-2.89-2.37-7.14-10.44-11.17-19.19L114.74,313.3A24.51,24.51,0,0,0,108.7,317.94Z" style="fill:#37474f"></path><path d="M47.48,299.37a4.38,4.38,0,0,1,.77-3.73c2.88-3.41,6.56-5.21,9.07-6.48a20,20,0,0,1,9.75-1.82c6.4.38,11.9,5.15,18.3,5.52,4.77.28,9.11-2.15,13.76-3.28a15,15,0,0,1,4.48-.39c1.28.08,3.3,1,3.76,2.05a5.6,5.6,0,0,1,.35,4.11c-.29.86-2.06,2.5-3.34,3.4-1.74,1.24-3.92,1.59-6.52,2.36C91.3,303,61.94,303.73,47.48,299.37Z" style="fill:#37474f"></path><path d="M108.76,308.32c0,.58.1,1.14.16,1.73.09.79-.34,1-1,1.49-2.69,1.85-6.09,1.67-9.16,1.14-2.39-.42-4.82-1.09-7.21-.63-2.84.56-5.11,2.64-7.23,4.62a5.75,5.75,0,0,0-1.15,1.51s-16.51-7.05-24-11c-3.8-2-8.19-3.88-11.18-7.06-.17-.17.73-1.29.82-1.4a7.08,7.08,0,0,1,3.79-2.12,19.57,19.57,0,0,1,7.26-.49c3.69.55,7.28,1.52,10.94,2.24a93,93,0,0,0,9.93,1.4,76.54,76.54,0,0,0,10.92.18,27.35,27.35,0,0,0,9.93-2.11,14.4,14.4,0,0,0,3.41-2.09,10.53,10.53,0,0,0,1.56-2c.51-.73.82-2,1.34-.92,1.26,2.48,1.52,6.3,1.34,9.08-.12,1.91-.37,3.81-.44,5.73C108.75,307.85,108.75,308.08,108.76,308.32Z" style="fill:#024959"></path><path d="M108.76,308.32c0,.58.1,1.14.16,1.73.09.79-.34,1-1,1.49-2.69,1.85-6.09,1.67-9.16,1.14-2.39-.42-4.82-1.09-7.21-.63-2.84.56-5.11,2.64-7.23,4.62a5.75,5.75,0,0,0-1.15,1.51s-16.51-7.05-24-11c-3.8-2-8.19-3.88-11.18-7.06-.17-.17.73-1.29.82-1.4a7.08,7.08,0,0,1,3.79-2.12,19.57,19.57,0,0,1,7.26-.49c3.69.55,7.28,1.52,10.94,2.24a93,93,0,0,0,9.93,1.4,76.54,76.54,0,0,0,10.92.18,27.35,27.35,0,0,0,9.93-2.11,14.4,14.4,0,0,0,3.41-2.09,10.53,10.53,0,0,0,1.56-2c.51-.73.82-2,1.34-.92,1.26,2.48,1.52,6.3,1.34,9.08-.12,1.91-.37,3.81-.44,5.73C108.75,307.85,108.75,308.08,108.76,308.32Z" style="opacity:0.2"></path><path d="M65.76,297.17c-3.08,4.23-3.06,11.72-3.06,11.72s-5.3-2.22-10.51-5.13c-5-2.79-4.71-4.39-4.71-4.39a4.42,4.42,0,0,1,1.46-2.2,9.29,9.29,0,0,1,6.72-2A43.06,43.06,0,0,1,65.76,297.17Z" style="fill:#fafafa"></path><path d="M65.54,306.38a8.51,8.51,0,0,0-.32,3.72,4.24,4.24,0,0,0,1.64.77,15.24,15.24,0,0,1,.4-3.82C67.6,306,65.91,305.35,65.54,306.38Z" style="fill:#fafafa"></path><path d="M70.56,308.69a8.41,8.41,0,0,0-.35,3.72,4.57,4.57,0,0,0,1.67.75,12.94,12.94,0,0,1,.4-3.8C72.62,308.26,70.93,307.65,70.56,308.69Z" style="fill:#fafafa"></path><path d="M75.58,311a8.29,8.29,0,0,0-.32,3.68,4.13,4.13,0,0,0,1.64.8,15.13,15.13,0,0,1,.4-3.81C77.64,310.56,76,310,75.58,311Z" style="fill:#fafafa"></path><path d="M107.86,292.79a3.12,3.12,0,0,0-.49-1.55s-1.65,3.39-7.55,5.35c-5.6,1.86-13.6,2.76-25.14.1s-18.21-5.14-23.43-3.07-3.77,5.75-3.77,5.75,2.49-4.59,9.81-3.73c7.06.83,17.44,4.57,27.1,4.92C94.48,300.94,104.67,299.65,107.86,292.79Z" style="fill:#e0e0e0"></path><path d="M225.19,314.68c-5-15.74-18.59-24.91-30.68-35.05s-31.38-27.13-31.38-27.13h0l-68-13.72c-4.24,8.68-8.5,25.27-8.52,37.89,0,11.77,3.57,27.54,24.17,42.83,12.49,9.27,22.46,16.55,31.41,22.24,9.46,6,30.34,16.59,42.65,12.43a15.42,15.42,0,0,0,10.28-18.71h0c1.45.13,2.89.21,4.23.22,1.56.05,3,0,4.11,0a34.3,34.3,0,0,0,12-1.82C224,330.74,228.08,323.81,225.19,314.68Z" style="fill:#455a64"></path><path d="M198.06,335c-1.33,0-2.78-.09-4.22-.23-7.6-16.21-49.33-49.38-49.33-49.38,3.37-1.64,11.18-5.82,13.8-10.52-1.07,6-4.51,9-7.84,11.46,5.12,4.59,26.64,22.73,32.39,28.18C188.89,320.22,195.15,326.86,198.06,335Z" style="fill:#37474f"></path></g><g id="freepik--bottom--inject-5"><path d="M148.9,152.7c8.88.7,13.11,3.17,21.88,12.86s25,27.23,27.92,31.78,11.41,14.39-1.37,21.76-40.11,9.84-40.11,9.84Z" style="fill:#f28f8f"></path><path d="M164.5,207.05c11.87-9.76,8-22.49,3.63-31.06-8.67-17.14-17.69-23.88-21.45-23.82l-24-3.11a85.78,85.78,0,0,0-27.6,9.32c-9.38,5.42-6.88,11.6-5.63,17.22,3.38,15.29,7.65,24,8.92,28.63s3.61,11.85,1.71,19.35c-.74,2.9-2.7,5.72-5.67,13.72a116.33,116.33,0,0,0-6,20.31s19.08,17.48,52.74,12.67c24.78-3.54,27.93-12.59,27.93-12.59l-5.81-30.48C163.86,217.1,164,213.43,164.5,207.05Z" style="fill:#024959"></path><g style="opacity:0.5"><path d="M164.5,207.05c11.87-9.76,8-22.49,3.63-31.06-8.67-17.14-17.69-23.88-21.45-23.82l-24-3.11a85.78,85.78,0,0,0-27.6,9.32c-9.38,5.42-6.88,11.6-5.63,17.22,3.38,15.29,7.65,24,8.92,28.63s3.61,11.85,1.71,19.35c-.74,2.9-2.7,5.72-5.67,13.72a116.33,116.33,0,0,0-6,20.31s19.08,17.48,52.74,12.67c24.78-3.54,27.93-12.59,27.93-12.59l-5.81-30.48C163.86,217.1,164,213.43,164.5,207.05Z" style="fill:#fff"></path></g><path d="M157,75.69c-12.73-6.87-29.12-4.16-35.56,6.13,0,0-6.49-1.21-13,4.47-7.35,6.46-7.28,16.2-7.38,25.15-.12,10.43-4,13.56-5.42,21.58s4,13.31,9.93,14c0,0-2-7.34.11-10.74,0,0-.64,10.51,9.36,12.29,8.05,1.44,14.1-4,14.1-4s-10.06-1.75-11.79-7.88l1.09-10.23,18.22,19.64c10.49,9.1,25.23,3.39,25.66-.79,0,0-11.88-12.27,4.15-27.61S169.72,82.55,157,75.69Z" style="fill:#37474f"></path><path d="M166.13,122c-2.29,18.31-8.71,22.24-11.82,23.24s-8.81-.38-14.3-1.87l-.89,8.73s8.57,8.45,6.36,10.47c-4.12,3.76-15,2-20.26-.91a22.56,22.56,0,0,1-8.92-8.22,3.45,3.45,0,0,1-.43-2.49l2.6-24.5s-2.93,1.73-7.34-1.24c-4-2.67-4.85-11-1.14-14.59,2.65-2.54,7.56-2.47,10,2.14,1.29,3.34.52,6.37,2.77,6.27s3.21-2.2,3.57-3.94.57-3,1-5.27c5.56-.52,11.73-8,13-13.38,3.67,2.14,7.58,3.87,11.47,4.07,6.12.3,9.4-.54,12.9-4.56a12.48,12.48,0,0,1,1.3,3.45,41.35,41.35,0,0,1,1,7.42A92.91,92.91,0,0,1,166.13,122Z" style="fill:#ffa8a7"></path><path d="M140,143.35c-5.83-1.37-17.62-6.09-19-11.09,0,0,.32,3.08,3.64,6.56s15,8.21,15,8.21Z" style="fill:#f28f8f"></path><path d="M146.2,115.78a2.56,2.56,0,1,1-2.42-2.78A2.6,2.6,0,0,1,146.2,115.78Z" style="fill:#263238"></path><path d="M163.45,116.73A2.36,2.36,0,0,1,161,119a2.21,2.21,0,0,1-2.19-2.53,2.35,2.35,0,0,1,2.44-2.28A2.38,2.38,0,0,1,163.45,116.73Z" style="fill:#263238"></path><polygon points="152.48 111.44 151.26 128.79 159.63 127.06 152.48 111.44" style="fill:#f28f8f"></polygon><path d="M137.47,108l5.09-3.79a3.33,3.33,0,0,1-.68,4.55A3.1,3.1,0,0,1,137.47,108Z" style="fill:#263238"></path><path d="M141.81,128.72l7.81,3.61a4.52,4.52,0,0,1-5.87,2.13A4.19,4.19,0,0,1,141.81,128.72Z" style="fill:#874c4c"></path><path d="M143.75,134.46a4.11,4.11,0,0,1-2.39-3.79,4,4,0,0,1,1.43-.1,4,4,0,0,1,3.47,4.23A4.21,4.21,0,0,1,143.75,134.46Z" style="fill:#f28f8f"></path><path d="M161.89,105.13l4.61,4.43a3.07,3.07,0,0,1-4.45.18A3.35,3.35,0,0,1,161.89,105.13Z" style="fill:#263238"></path></g><g id="freepik--Dog--inject-5"><path d="M173.3,171.22a32.11,32.11,0,0,1-3.48-.73,18.36,18.36,0,0,0-6.54-.78c-2.28.2-5.33,1.15-6.94,2.76-.67.66-.92,2.23.19,2.62a1.4,1.4,0,0,0,.59,1.37,2.43,2.43,0,0,0,1.78.37c0,.62,1,1,2,.91a14.41,14.41,0,0,1,4.29-.48c3.05.09,3.57,1.25,3.57,1.25" style="fill:#455a64"></path><path d="M161.29,174.83a2.72,2.72,0,0,0-3.12,2,5.92,5.92,0,0,0,.73,0A2.37,2.37,0,0,1,161.29,174.83Z" style="fill:#37474f"></path><path d="M159,172.94a3.14,3.14,0,0,0-3,1.78,1.1,1.1,0,0,0,.49.37A3.11,3.11,0,0,1,159,172.94Z" style="fill:#37474f"></path><path d="M200.12,163.67l-5,1.39-10,2.78-.89.22-2.32.39a33,33,0,0,0-4.85.82l-.35,0a7.57,7.57,0,0,0-1.88.32,13.54,13.54,0,0,0-1.16,1l-1.06,1c-.12.13-.24.26-.36.41l-3.12,5.45a5.48,5.48,0,0,1-2.65,1.82,7.21,7.21,0,0,0-4.14,2.56,1.23,1.23,0,0,0-1-.55,1.71,1.71,0,0,0-1-1.31,2.8,2.8,0,0,0-2-.05c0-.51-.87-1.17-2.61-.78-3.44.77-5.47,2.14-9.05,4.4-4.46,2.82-5.9,5.39-5.83,7.5a3.76,3.76,0,0,0,1.89,3.36s-13.87,13.26,5.14,24.52c18.46,10.93,42.6-.75,50.14-18.25a48,48,0,0,0,3.65-14.6C202.7,176.44,200.79,169,200.12,163.67Z" style="fill:#455a64"></path><path d="M161.93,185.15s3-1.34,4.38.3a2.31,2.31,0,0,1,2.21.13,1.52,1.52,0,0,1,.63,1.68,1.19,1.19,0,0,1,1,.71,2.47,2.47,0,0,1-.38,2.2,8.65,8.65,0,0,1-5.2,4.24,7.81,7.81,0,0,1,3.87,6c.69,4.84-.86,7.35-.86,7.35a28.58,28.58,0,0,0,16-10.46c8.46-10.86,5.4-30,5.4-30l-14.16,2.39a11,11,0,0,0-5.7,7.86,16.87,16.87,0,0,0-8.13,3,2.69,2.69,0,0,1,.33.8,1.45,1.45,0,0,1,1,.55A2.38,2.38,0,0,1,161.93,185.15Z" style="fill:#024959"></path><path d="M161.93,185.15s3-1.34,4.38.3a2.31,2.31,0,0,1,2.21.13,1.52,1.52,0,0,1,.63,1.68,1.19,1.19,0,0,1,1,.71,2.47,2.47,0,0,1-.38,2.2,8.65,8.65,0,0,1-5.2,4.24,7.81,7.81,0,0,1,3.87,6c.69,4.84-.86,7.35-.86,7.35a28.58,28.58,0,0,0,16-10.46c8.46-10.86,5.4-30,5.4-30l-14.16,2.39a11,11,0,0,0-5.7,7.86,16.87,16.87,0,0,0-8.13,3,2.69,2.69,0,0,1,.33.8,1.45,1.45,0,0,1,1,.55A2.38,2.38,0,0,1,161.93,185.15Z" style="opacity:0.30000000000000004"></path><path d="M182.89,180c-2.32-.09-5.51.48-7.34,1.89-.76.58-1.2,2.12-.14,2.66a1.43,1.43,0,0,0,.41,1.45,2.45,2.45,0,0,0,1.75.6c-.06.63.86,1.19,1.88,1.17,1.4,0,1.79-.47,4.38.07a7.4,7.4,0,0,1,3.62,2,40.25,40.25,0,0,0,1.73-8.14A16.71,16.71,0,0,0,182.89,180Z" style="opacity:0.1"></path><path d="M189.53,180.15a17,17,0,0,0-6.64-1.84c-2.32-.1-5.51.48-7.34,1.89-.76.58-1.2,2.12-.14,2.66a1.43,1.43,0,0,0,.41,1.45,2.49,2.49,0,0,0,1.75.6c-.06.63.86,1.19,1.88,1.17,1.4,0,1.79-.47,4.38.07a7.48,7.48,0,0,1,4.07,2.46l4.67-7.2A16.39,16.39,0,0,1,189.53,180.15Z" style="fill:#455a64"></path><path d="M179.94,183.26a2.22,2.22,0,0,0-2.26.2,1.84,1.84,0,0,0-.81,1.36,4.76,4.76,0,0,0,.7.09C177.62,183.84,178.81,183.22,179.94,183.26Z" style="fill:#37474f"></path><path d="M174.89,182.31a1.06,1.06,0,0,0,.52.55,2.33,2.33,0,0,1,1.83-1.35A2.54,2.54,0,0,0,174.89,182.31Z" style="fill:#37474f"></path><path d="M201.85,176.59c-.36-5.2-1.3-9.5-1.73-12.92l-5,1.39-10,2.78-.89.22-2.32.39a33,33,0,0,0-4.85.82l-.35,0a7.14,7.14,0,0,0-1.88.32h0a7.9,7.9,0,0,0-.92.53c.66.82,3.15,3.46,8.64,4.66,6.54,1.44,13.48-.75,13.48-.75A5.36,5.36,0,0,0,201.85,176.59Z" style="opacity:0.1"></path><path d="M190.38,143.69c-.48-1.79-2.72-2.57-6.3-2.64-2.83-.06-5.53.8-9.7-1.07s-7.62-1-8.75,3.2-.17,9.36,4.41,11.15c4.24,1.66,11.13.81,15-1.84S190.38,143.69,190.38,143.69Z" style="fill:#37474f"></path><path d="M178,141.91a4.81,4.81,0,0,0,.21-.83,13.18,13.18,0,0,1-3.84-1.1c-4.18-1.88-7.62-1-8.74,3.2a12.33,12.33,0,0,0-.37,4.4,6.83,6.83,0,0,0,2.7.94,2.41,2.41,0,0,0,2.13-.62c.61-.74.39-2,1-2.67s2-.52,3.09-.57A4.41,4.41,0,0,0,178,141.91Z" style="fill:#024959"></path><path d="M178,141.91a4.81,4.81,0,0,0,.21-.83,13.18,13.18,0,0,1-3.84-1.1c-4.18-1.88-7.62-1-8.74,3.2a12.33,12.33,0,0,0-.37,4.4,6.83,6.83,0,0,0,2.7.94,2.41,2.41,0,0,0,2.13-.62c.61-.74.39-2,1-2.67s2-.52,3.09-.57A4.41,4.41,0,0,0,178,141.91Z" style="opacity:0.4"></path><path d="M201.7,151.68c-2-4.31-3.13-5.27-8.69-7.23s-9-1.74-13.87,1.27c-3.08,1.9-4.32,6.94-4.32,6.94a7.49,7.49,0,0,0-5,2.9c-2.15,3.3-.51,9.18.88,11.16a15.34,15.34,0,0,0,9.47,6.13c7.15,1.46,12.92,1,16.51-2.65C201.18,165.65,203.16,154.82,201.7,151.68Z" style="fill:#455a64"></path><path d="M200.65,158.67a7.39,7.39,0,0,0,.14-1.55c0-1.64-.37-3.83-1.48-5.08a7.24,7.24,0,0,0-8.06-2.9,7.32,7.32,0,0,0-4.44,2.86c-1,1.51-1.32,3.24.08,4.58a15.33,15.33,0,0,1,1.5,1.4c.64.81.91,1.87,1.51,2.71a5,5,0,0,0,2.76,1.87,8.1,8.1,0,0,0,3.36.15,5.26,5.26,0,0,0,3.71-1.87A5.66,5.66,0,0,0,200.65,158.67Z" style="fill:#024959"></path><path d="M200.65,158.67a7.39,7.39,0,0,0,.14-1.55c0-1.64-.37-3.83-1.48-5.08a7.24,7.24,0,0,0-8.06-2.9,7.32,7.32,0,0,0-4.44,2.86c-1,1.51-1.32,3.24.08,4.58a15.33,15.33,0,0,1,1.5,1.4c.64.81.91,1.87,1.51,2.71a5,5,0,0,0,2.76,1.87,8.1,8.1,0,0,0,3.36.15,5.26,5.26,0,0,0,3.71-1.87A5.66,5.66,0,0,0,200.65,158.67Z" style="opacity:0.30000000000000004"></path><path d="M191.7,154.75a1.65,1.65,0,1,1-1.64-1.64A1.65,1.65,0,0,1,191.7,154.75Z" style="fill:#263238"></path><path d="M180.08,151.68a1.64,1.64,0,1,1-1.64-1.64A1.64,1.64,0,0,1,180.08,151.68Z" style="fill:#263238"></path><path d="M176.11,165.19H176a.39.39,0,0,1-.31-.46l.73-3.79a.39.39,0,0,1,.77.15l-.73,3.79A.4.4,0,0,1,176.11,165.19Z" style="fill:#263238"></path><path d="M178.46,156.51c-2-.61-3.55-.51-3.93.24-.61,1.26.3,3.1.93,3.83a3.38,3.38,0,0,0,2.6.83c1.13-.12,2.94-.85,3.28-2S180.61,157.17,178.46,156.51Z" style="fill:#263238"></path><path d="M175.3,156.66a1.26,1.26,0,0,0-.5,1.6c.23.41.63-1.12,1.72-1.12a8.3,8.3,0,0,1,3.5,1.19c.68.44.7-.36-.65-1C177.72,156.45,176.16,156.21,175.3,156.66Z" style="fill:#37474f"></path><path d="M178.52,165.56c-.24,0-.47,0-.71,0a5.38,5.38,0,0,1-3.79-1.63.39.39,0,0,1,.62-.48,4.76,4.76,0,0,0,3.23,1.32,5.82,5.82,0,0,0,4.41-1.22.39.39,0,0,1,.54.57A6.3,6.3,0,0,1,178.52,165.56Z" style="fill:#263238"></path><path d="M198.48,147c2.2.25,6.58,1.29,7.93,3.38s5.63,9.07,4.46,15.62a9.9,9.9,0,0,1-10.18,8.38c-3.58-.36-5.78-2-4-7.16s3.13-12.42,1.82-15.88C197.33,148.18,196,146.74,198.48,147Z" style="fill:#37474f"></path><path d="M209.18,155.58a9.48,9.48,0,0,1-3.59,3.12,8.87,8.87,0,0,0-1.94,1.05,1.89,1.89,0,0,0-.72,1.95c.3.87,1.34,1.18,2.22,1.43s1.91.77,1.92,1.69c0,.66-.53,1.22-.58,1.88a1.73,1.73,0,0,0,1.94,1.63,3.56,3.56,0,0,0,2.23-1.38c.08-.3.15-.6.21-.92C211.52,162.37,210.47,158.58,209.18,155.58Z" style="fill:#024959"></path><path d="M209.18,155.58a9.48,9.48,0,0,1-3.59,3.12,8.87,8.87,0,0,0-1.94,1.05,1.89,1.89,0,0,0-.72,1.95c.3.87,1.34,1.18,2.22,1.43s1.91.77,1.92,1.69c0,.66-.53,1.22-.58,1.88a1.73,1.73,0,0,0,1.94,1.63,3.56,3.56,0,0,0,2.23-1.38c.08-.3.15-.6.21-.92C211.52,162.37,210.47,158.58,209.18,155.58Z" style="opacity:0.4"></path><path d="M161.93,185.15c-5.89,2.58-11.51,5.45-12.58,8.83s1.8,4.16,1.8,4.16-2.94-.14-2.94-2.83S150.65,188.45,161.93,185.15Z" style="fill:#37474f"></path><path d="M166.24,188c.66-.09,1.87-.54,2-1.34.07-.55-.41-.66-.87-.65a3,3,0,0,0-1.76.64C164.82,187.32,165.29,188.13,166.24,188Z" style="fill:#37474f"></path><path d="M167.29,190c.67,0,1.94-.19,2.18-1,.16-.53-.28-.72-.74-.8a2.93,2.93,0,0,0-1.84.31C166,189.06,166.34,189.94,167.29,190Z" style="fill:#37474f"></path><path d="M163.25,187c.62,0,1.77-.33,1.93-1.05.12-.5-.31-.65-.73-.68a2.69,2.69,0,0,0-1.68.43C162,186.23,162.37,187,163.25,187Z" style="fill:#37474f"></path><path d="M163.82,188.39c-.7-.66-1.72-1.25-4.8-.37s-4.15,2.3-3.41,2.95c1.09.94,2.88-.53,2.47,1.66-.23,1.24,1.41,2.16,4.2,0S164.59,189.11,163.82,188.39Z" style="fill:#37474f"></path><path d="M158,182.62c.66-.08,1.87-.53,2-1.34.07-.54-.41-.65-.87-.65a3,3,0,0,0-1.76.64C156.61,181.94,157.08,182.74,158,182.62Z" style="fill:#37474f"></path><path d="M159.08,184.6c.67,0,1.93-.19,2.18-1,.16-.52-.28-.72-.74-.79a3,3,0,0,0-1.85.31C157.8,183.67,158.13,184.55,159.08,184.6Z" style="fill:#37474f"></path><path d="M155,181.6c.62,0,1.77-.32,1.93-1,.12-.5-.31-.64-.73-.68a2.75,2.75,0,0,0-1.68.43C153.8,180.84,154.16,181.62,155,181.6Z" style="fill:#37474f"></path><path d="M155.61,183c-.7-.65-1.72-1.25-4.8-.37s-4.15,2.31-3.41,3c1.09.94,2.88-.53,2.47,1.66-.23,1.25,1.41,2.16,4.2,0S156.37,183.72,155.61,183Z" style="fill:#37474f"></path><path d="M142.74,210.29a1,1,0,0,1-.94.5c-6.53-.51-15.28-6-18.8-13.6-3.61-7.84-.7-17,.59-17.12s-1.31,5.14.17,11.75c1.36,6.08,7,13.63,18.22,15.48a1,1,0,0,1,.8.66A3.09,3.09,0,0,1,142.74,210.29Z" style="fill:#37474f"></path><path d="M200.18,194.51c-1-.19-1.55.3-2.61,1.11s-2.34,1.79-3.25,2.54A21.64,21.64,0,0,1,183.18,203a24.16,24.16,0,0,1-5.37.25,2.62,2.62,0,0,1-2.07-1,2.76,2.76,0,0,1,.09-2.31,29.29,29.29,0,0,0,1.38-4.54c.22-1.33.35-4.11-.87-5.06a1.42,1.42,0,0,0-1.65.1,9.09,9.09,0,0,0-1.52,1.85,52.55,52.55,0,0,0-4,5.82,8.1,8.1,0,0,0-2.75-3.64c3.67-2.7,3.44-4.34,3.44-4.34-2,2.92-6.66,4.28-6.66,4.28a7.86,7.86,0,0,1,4.4,6.73,19.21,19.21,0,0,1-2.31,3.88,14.71,14.71,0,0,1-6.72,4.38c-1.83.62-10.73,1.47-18.77,2.14,1.51,2.45,4.07,5,8.16,7.39,18.46,10.93,42.6-.75,50.14-18.25a43.25,43.25,0,0,0,2.15-6.2Z" style="opacity:0.1"></path></g><path id="freepik--Arm--inject-5" d="M131.24,236.32c5.26-.8,10.49-1.86,15.67-3.1,12.45-3,25.21-6.93,36.6-12.85a66.42,66.42,0,0,0,10.13-6.43,18,18,0,0,0,4.12-3.95,31.52,31.52,0,0,0,2.92-5.19,15.68,15.68,0,0,0,1.33-7.38c-.07-.77-.36-1.69-1.12-1.83-1-.18-1.62,1.14-2.19,1.75a27.76,27.76,0,0,1-2.5,2.47,21.86,21.86,0,0,1-11.14,4.84,24.16,24.16,0,0,1-5.37.25,2.63,2.63,0,0,1-2.07-1,2.76,2.76,0,0,1,.09-2.31,29,29,0,0,0,1.38-4.54c.22-1.32.35-4.11-.87-5.05a1.42,1.42,0,0,0-1.65.1,8.53,8.53,0,0,0-1.52,1.85,48.65,48.65,0,0,0-4.35,6.33c-1.17,2.15-2,4.5-3.57,6.4a14.61,14.61,0,0,1-6.72,4.37c-3,1-25.35,2.68-31.24,3.11L115,184s-7.49-23.32-19.86-25.57c-6.46,3.66-8.35,6.84-9.3,14s1.82,13.23,5,22.9,18.24,32.81,22.49,37.42,6.5,4.61,13.7,4.13C128.44,236.73,129.84,236.53,131.24,236.32Z" style="fill:#ffa8a7"></path></g></g><g id="freepik--Box--inject-5"><g id="freepik--box--inject-5"><polygon points="316.85 316.54 234.58 269.04 152.31 316.54 234.58 364.04 316.85 316.54" style="fill:#024959"></polygon><polygon points="316.85 316.54 234.58 269.04 152.31 316.54 234.58 364.04 316.85 316.54" style="fill:#fff;opacity:0.4"></polygon><polygon points="316.85 316.54 234.58 269.04 152.31 316.54 234.58 364.04 316.85 316.54" style="opacity:0.1"></polygon><polygon points="234.58 338.13 234.58 269.04 152.31 316.54 152.31 385.63 234.58 338.13" style="opacity:0.1"></polygon><polygon points="234.58 338.13 152.31 385.63 234.58 433.13 316.85 385.63 234.58 338.13" style="opacity:0.2"></polygon><g id="freepik--dog--inject-5"><g id="freepik--Body--inject-5"><path d="M276.42,180.83c-3.73-1.15-5.73-.49-9,2.28S263.3,186.58,263,190s.71,10.68,4.41,9.54S276.42,180.83,276.42,180.83Z" style="fill:#37474f"></path><path d="M233,287.34c-.69,7.78,5.07,25.07,4.51,29.38s-3.79,11.72-6.07,15.31c-2,3.18-2.57,4.65,0,11.13s7.45,16,8.55,17.94,4.56.81,8-.54,8-4.15,5.24-7.41c-1.28-1.52-8.77,1-8.77,1s-3.73-11-3.1-14.71,10.32-11.83,15.4-19.53-1.74-30.24-1.74-30.24Z" style="fill:#024959"></path><path d="M233,287.34c-.69,7.78,5.07,25.07,4.51,29.38s-3.79,11.72-6.07,15.31c-2,3.18-2.57,4.65,0,11.13s7.45,16,8.55,17.94,4.56.81,8-.54,8-4.15,5.24-7.41c-1.28-1.52-8.77,1-8.77,1s-3.73-11-3.1-14.71,10.32-11.83,15.4-19.53-1.74-30.24-1.74-30.24Z" style="opacity:0.55"></path><path d="M292.79,232.06c-.17-.71-.36-1.39-.56-2,1.2,4.42-3.27,16.63-11.59,26s-4.69,16.6-2.51,26.63c-1.31-6.89-.9-9.13,1.07-14.78C283.16,256.59,296.07,256.06,292.79,232.06Z" style="fill:#024959"></path><path d="M321.73,214.45c-5.45-3.14-9-1.19-13.5,3.5a53.89,53.89,0,0,1-11.11,9.37c-.62-4.15-1.46-8.1-1.59-10.06-.26-3.76-.09-7.72,2.41-10.63s3.56-4.62,6.56-6.84a21.15,21.15,0,0,0,3.07-2.67c.89-1,2.58-3.35,1.77-4.73a8.28,8.28,0,0,1-5.49,1.78,4.57,4.57,0,0,1-2.23-.88.36.36,0,0,1-.19-.29c0-.15.17-.23.31-.28a11.45,11.45,0,0,1,1.52-.33,9.94,9.94,0,0,0,4.3-1.79,5.55,5.55,0,0,0,1.88-2.75c.25-.88.05-1,0-1.88a7.21,7.21,0,0,0-.48-2.05c-.74-1.77-2.28-2.24-3.93-3-3.75-1.83-5.05.2-10.41.76-4,.42-13.29-4.15-20.47.38-7.82,4.93-8.33,13-9.82,20.94a33.29,33.29,0,0,1-1.41,5.18c-2.33,5.21-4.93,6.25-8.25,17-4.91,15.76-3.74,24.36-12.33,36.3-7.73,10.77-9.79,19-9.81,24.87,0,10,1.76,12.68,9.9,19.7,5.88,5.06,8.68,5.92,14.42,13.95,1.86,2.59,2,12.83.62,17.44s-2.61,6.91-1.23,10.53,7.89,18.72,10.26,22.4,5,2.74,12.88.37c7.74-2.31,4.06-7.18,1.29-6.87a63.22,63.22,0,0,0-7,1.41s-5.66-13.31-5.65-16.58,6.73-16.87,12.06-24.05,3.28-18.6,0-33.12-3.44-16-.81-23.52c2.5-7.14,8.56-10,11.87-17.14,4.11-1.8,8-3.55,9.53-5.68,3.12-4.32,9.58-15.1,12.27-18.74,3.63-4.92,6.14-7.77,10-6.39,3.53,1.27,4,.4,4,.4C327.34,218.47,324.91,216.29,321.73,214.45Z" style="fill:#024959"></path><path d="M321.73,214.45c-5.45-3.14-9-1.19-13.5,3.5a53.89,53.89,0,0,1-11.11,9.37c-.62-4.15-1.46-8.1-1.59-10.06-.26-3.76-.09-7.72,2.41-10.63s3.56-4.62,6.56-6.84a21.15,21.15,0,0,0,3.07-2.67c.89-1,2.58-3.35,1.77-4.73a8.28,8.28,0,0,1-5.49,1.78,4.57,4.57,0,0,1-2.23-.88.36.36,0,0,1-.19-.29c0-.15.17-.23.31-.28a11.45,11.45,0,0,1,1.52-.33,9.94,9.94,0,0,0,4.3-1.79,5.55,5.55,0,0,0,1.88-2.75c.25-.88.05-1,0-1.88a7.21,7.21,0,0,0-.48-2.05c-.74-1.77-2.28-2.24-3.93-3-3.75-1.83-5.05.2-10.41.76-4,.42-13.29-4.15-20.47.38-7.82,4.93-8.33,13-9.82,20.94a33.29,33.29,0,0,1-1.41,5.18c-2.33,5.21-4.93,6.25-8.25,17-4.91,15.76-3.74,24.36-12.33,36.3-7.73,10.77-9.79,19-9.81,24.87,0,10,1.76,12.68,9.9,19.7,5.88,5.06,8.68,5.92,14.42,13.95,1.86,2.59,2,12.83.62,17.44s-2.61,6.91-1.23,10.53,7.89,18.72,10.26,22.4,5,2.74,12.88.37c7.74-2.31,4.06-7.18,1.29-6.87a63.22,63.22,0,0,0-7,1.41s-5.66-13.31-5.65-16.58,6.73-16.87,12.06-24.05,3.28-18.6,0-33.12-3.44-16-.81-23.52c2.5-7.14,8.56-10,11.87-17.14,4.11-1.8,8-3.55,9.53-5.68,3.12-4.32,9.58-15.1,12.27-18.74,3.63-4.92,6.14-7.77,10-6.39,3.53,1.27,4,.4,4,.4C327.34,218.47,324.91,216.29,321.73,214.45Z" style="opacity:0.4"></path><path d="M279.2,267.91c-2,5.65-2.38,7.89-1.07,14.78C276,273,272.53,266,279.88,257c2.42-2.43,6.93-4.33,11.19-6.19C287.76,257.92,281.7,260.78,279.2,267.91Z" style="fill:#fafafa"></path><path d="M236.42,287.29c-2.72,3.23-6.41,3.72-16.31,9.85-9,5.59-11.27,16.75-7.31,23.81,3.39,6.06,7.2,10.69,7.81,14.9,1,6.86-2.35,9.75-2.35,9.75s6.59-2.29,7.78-7.11c0,0,1.29,5.88-4.16,11.92,0,0,12.63,2.89,15.22-10.47,2-10.27-1.06-16.24-7.38-21.86-4.86-4.32-7-11.65.28-17.34,8.64-6.72,9.57-10.22,9.57-10.22S240.17,287.34,236.42,287.29Z" style="fill:#263238"></path></g><g id="freepik--Head--inject-5"><path d="M308.24,190a6.41,6.41,0,0,1,4.26,1.71c.8.78,3.36,5.48,1.85,7.1s-5.35.52-6.1-3c0,0-5.74.69-7.65-1.59s.8-3.28,3.36-3.61Z" style="fill:#f28f8f"></path><path d="M309.34,192.39s-2.23,1.9-1.74,3.37c.4,0,.65,0,.65,0a4.88,4.88,0,0,0,1.36,2.53,3.82,3.82,0,0,0,2.63.89c2-.17,1-1.79.44-3.66S310.39,192,309.34,192.39Z" style="fill:#874c4c"></path><path d="M309.34,192.39c.81,1.38-.89,3.78-1.76,4.73a21.84,21.84,0,0,1-3.08,2.68c-3,2.2-4.09,4-6.56,6.84s-2.66,6.86-2.41,10.62c.13,2,1,5.91,1.6,10.06-.32.19-.65.38-1,.55a77.68,77.68,0,0,0-5.29-12.62c-2-3.8-3.78-7.31-1.38-13.41,1.66-4.23,1.22-7,8.32-9.51,6.35-2.22,3.3-6.21,1.38-7.35s-3.3-2.76-2.43-3.69c3.07-1,5.42-1.85,8-.57,1.65.81,3.39,1.43,4.13,3.19a7.35,7.35,0,0,1,.48,2.06c.09.89.29,1,.05,1.88a5.68,5.68,0,0,1-1.89,2.75,9.81,9.81,0,0,1-4.3,1.78c-.51.11-1,.18-1.52.34-.14.05-.29.13-.3.28s.09.22.18.3a4.11,4.11,0,0,0,2.25.65A8.2,8.2,0,0,0,309.34,192.39Z" style="fill:#fafafa"></path><path d="M304.06,182.08l-.05,0a4.73,4.73,0,0,0-.66-.61,5.68,5.68,0,0,0-1.09-.31c-.27-.09-.61-.36-.54-.7,0-.19.2-.28.37-.37a4.52,4.52,0,0,1,1.79-.73,4.69,4.69,0,0,1,2.26.49c2,.9,2.89,1.45,3.32,2.13s-.28,3-.28,3a2,2,0,0,0-.28-1c-.52-1.2-2.14-1.17-3.22-1.28A3.11,3.11,0,0,1,304.06,182.08Z" style="fill:#263238"></path><path d="M295.53,217.26c-.26-3.76-.09-7.72,2.41-10.63s3.56-4.62,6.56-6.84c.4-.29.79-.6,1.17-.91-5.2,3.62-9.38,1.77-12.21,4.2s-.91,8.47,1,11.4A19.47,19.47,0,0,1,295.53,217.26Z" style="opacity:0.1"></path><path d="M282.76,192.54c1.19-1.66,6.52-5.56,8.9-6.51s6.64,4.62,6.63,9.18-3.17,13.38-6.68,13.14-7.06-13.29-8.7-11.75S280.59,195.55,282.76,192.54Z" style="fill:#37474f"></path></g></g><polygon points="234.58 433.13 316.85 385.63 316.85 316.54 234.58 364.04 234.58 433.13" style="fill:#024959"></polygon><polygon points="234.58 433.13 316.85 385.63 316.85 316.54 234.58 364.04 234.58 433.13" style="fill:#fff;opacity:0.6000000000000001"></polygon><polygon points="234.58 364.04 249.48 394.21 316.85 355.4 316.85 316.54 234.58 364.04" style="opacity:0.1"></polygon><polygon points="234.58 433.13 152.31 385.63 152.31 316.54 234.58 364.04 234.58 433.13" style="fill:#024959"></polygon><polygon points="234.58 433.13 152.31 385.63 152.31 316.54 234.58 364.04 234.58 433.13" style="fill:#fff;opacity:0.4"></polygon><polygon points="234.58 364.04 219.69 394.21 152.31 355.4 152.31 316.54 234.58 364.04" style="opacity:0.1"></polygon><path d="M157.92,370.4v8.06a8.82,8.82,0,0,0,4,6.91l18.2,10.51c2.21,1.27,4,.24,4-2.3v-8.07a8.81,8.81,0,0,0-4-6.9l-18.2-10.51C159.71,366.83,157.92,367.86,157.92,370.4Z" style="opacity:0.1"></path><polygon points="152.31 316.54 133.62 340.29 215.95 387.74 234.58 364.04 152.31 316.54" style="fill:#024959"></polygon><polygon points="152.31 316.54 133.62 340.29 215.95 387.74 234.58 364.04 152.31 316.54" style="fill:#fff;opacity:0.6000000000000001"></polygon><polygon points="316.85 316.54 335.55 340.29 253.22 387.74 234.58 364.04 316.85 316.54" style="fill:#024959"></polygon><polygon points="316.85 316.54 335.55 340.29 253.22 387.74 234.58 364.04 316.85 316.54" style="fill:#fff;opacity:0.4"></polygon><g id="freepik--Kittena--inject-5"><path d="M195.12,320.7c1.72,5,9.88,7.27,15.39,16.93a20.8,20.8,0,0,1,2.29,13.83l-48.09-27.77-3.29-7.45Z" style="fill:#f0f0f0"></path><g id="freepik--Paw--inject-5"><path d="M146.55,332.38c.09-2.29,1.47-5.36,3.26-7.89a22.66,22.66,0,0,1,11.61-8.25l11.15,7c-11.91-.4-16,5.87-17.11,9.37-.76,2.41-1.4,4.28-2.81,4.28a1.44,1.44,0,0,1-1.53-1.21,1.42,1.42,0,0,1-2.49-.81,1.25,1.25,0,0,1-1.5-.27A2.82,2.82,0,0,1,146.55,332.38Z" style="fill:#f0f0f0"></path><path d="M147.13,334.56l0,0a.88.88,0,0,0,1.14-.62,6.62,6.62,0,0,1,.7-1.54,7.61,7.61,0,0,0-.32,2.45A1.25,1.25,0,0,1,147.13,334.56Z" style="fill:#e0e0e0"></path><path d="M149.48,336a1.38,1.38,0,0,0,1.22-1.12,3.16,3.16,0,0,1,.66-1.46,6.6,6.6,0,0,0-.24,2.21A1.56,1.56,0,0,1,149.48,336Z" style="fill:#e0e0e0"></path></g><g id="freepik--paw--inject-5"><path d="M168,342.18a18.87,18.87,0,0,1,3.36-8.28,26.55,26.55,0,0,1,9.56-8.59v-3s13.93,2.85,14.19,12.09c-12.13-1.12-16.69,5-18,8.55-.92,2.42-1.69,4.28-3.13,4.2a1.47,1.47,0,0,1-1.49-1.32,1.46,1.46,0,0,1-2.49-1,1.3,1.3,0,0,1-1.52-.36A2.89,2.89,0,0,1,168,342.18Z" style="fill:#f0f0f0"></path><path d="M168.47,344.45l0,0a.91.91,0,0,0,1.21-.56,6.87,6.87,0,0,1,.8-1.54,7.58,7.58,0,0,0-.47,2.49A1.3,1.3,0,0,1,168.47,344.45Z" style="fill:#e0e0e0"></path><path d="M170.79,346.06a1.39,1.39,0,0,0,1.3-1.06,3.25,3.25,0,0,1,.77-1.46,6.78,6.78,0,0,0-.38,2.25A1.57,1.57,0,0,1,170.79,346.06Z" style="fill:#e0e0e0"></path></g><path d="M161.44,316.24h0c-.72.24-1.45.52-2.17.83a35.34,35.34,0,0,0,13.7,8.51c5.24,1.76,13.06,2.79,20,.28a10.08,10.08,0,0,0,3.85-2.52,8.44,8.44,0,0,1-1.49-2.23" style="fill:#e0e0e0"></path><path d="M177.09,292.23c-1.75-4.33-8.31-9.45-13.34-7.42-2.83,1.14-.83,11.76-.83,11.76S172.4,296.56,177.09,292.23Z" style="fill:#e0e0e0"></path><path d="M172.87,294.74a31.36,31.36,0,0,1-10,1.83s-2-10.62.83-11.76C165.61,284.38,170.4,286.9,172.87,294.74Z" style="fill:#ffa8a7"></path><path d="M166.47,291.27a3.89,3.89,0,0,0-.62-2.69c1.73-.14,4.14,1.47,4.57,4.34,0,0-2.58,4.81-6.39,2.83a7.15,7.15,0,0,0-1.52-1.91c-.09-.74-.17-1.57-.22-2.42A10.4,10.4,0,0,1,166.47,291.27Z" style="fill:#f28f8f"></path><path d="M190,296.05c3.87-2.6,12.17-3.15,15.2,1.36,1.7,2.53-7.18,11.15-7.18,11.15S191.43,302.26,190,296.05Z" style="fill:#e0e0e0"></path><path d="M192.06,300.5c2.81,4.11,5.95,8.06,5.95,8.06s8.88-8.62,7.18-11.15C203.89,296,198.52,295.4,192.06,300.5Z" style="fill:#ffa8a7"></path><path d="M197.65,306.47a4.89,4.89,0,0,1,1.48-.79c.53-.56,1.13-1.23,1.74-1.94a10.39,10.39,0,0,0-3.37-2.48,3.9,3.9,0,0,1,2-1.88c-1.37-1.09-4.47-.83-6,1.32a8.14,8.14,0,0,0,.67,3.2c.67.79,1.29,1.48,1.81,2A4.17,4.17,0,0,0,197.65,306.47Z" style="fill:#f28f8f"></path><path d="M173.55,323.72c4.67,1.57,11.64,2.49,17.82.25,7.36-2.67,7.77-13.33,6-18.16s-5.46-9.71-13.87-12.53-14.26-1.15-18.57,1.64-10.33,11.56-6,18.14C162.48,318.59,168.87,322.16,173.55,323.72Z" style="fill:#f5f5f5"></path><path d="M173.59,322.61c-9.33-3.13-8.83-8.91-6.47-11.29s6.26-3,10.72-1.54,7.19,4.38,7.66,7.71S182.91,325.74,173.59,322.61Z" style="fill:#e0e0e0"></path><path d="M176.2,314.74l2.19-.33a.34.34,0,0,0,.27-.37.29.29,0,0,0-.34-.26l-1.91.29L175,312.7a.29.29,0,0,0-.43,0,.34.34,0,0,0,0,.45Z" style="fill:#455a64"></path><path d="M177.78,319.46a2.43,2.43,0,0,0,1.07-.3,2.68,2.68,0,0,0,1.27-1.53.32.32,0,0,0-.18-.4.32.32,0,0,0-.39.21,2.08,2.08,0,0,1-1,1.16,1.79,1.79,0,0,1-1.43.13,1.77,1.77,0,0,1-1.07-1,2,2,0,0,1-.08-1.51l.58-1.75a.31.31,0,0,0-.18-.4.32.32,0,0,0-.39.21l-.58,1.75a2.73,2.73,0,0,0,.1,2,2.42,2.42,0,0,0,1.41,1.29A2.35,2.35,0,0,0,177.78,319.46Z" style="fill:#455a64"></path><path d="M173.67,318.08a2.3,2.3,0,0,0,1.07-.3,2.65,2.65,0,0,0,1.27-1.53l.58-1.75a.31.31,0,0,0-.18-.4.32.32,0,0,0-.39.21l-.58,1.75a2.08,2.08,0,0,1-1,1.16,1.79,1.79,0,0,1-1.43.13,1.94,1.94,0,0,1-1.15-2.48.3.3,0,0,0-.18-.4.32.32,0,0,0-.39.21,2.58,2.58,0,0,0,1.52,3.28A2.27,2.27,0,0,0,173.67,318.08Z" style="fill:#455a64"></path><path d="M167.17,305a2.17,2.17,0,1,0,2.77-1.5A2.22,2.22,0,0,0,167.17,305Z" style="fill:#455a64"></path><path d="M189.21,312.43a2.17,2.17,0,1,1-1.33-2.88A2.23,2.23,0,0,1,189.21,312.43Z" style="fill:#455a64"></path><path d="M195.17,315.79a.47.47,0,0,0,.32-.16,7.59,7.59,0,0,1,8.38-2.47.46.46,0,0,0,.57-.32.45.45,0,0,0-.27-.59c-4.36-1.45-7.48.69-9.32,2.74a.48.48,0,0,0,0,.67A.45.45,0,0,0,195.17,315.79Z" style="fill:#455a64"></path><path d="M196.17,316.94a.49.49,0,0,0,.24-.08,7,7,0,0,1,5.67-.53.45.45,0,0,0,.59-.27.47.47,0,0,0-.23-.62,7.91,7.91,0,0,0-6.5.62.5.5,0,0,0-.15.66A.42.42,0,0,0,196.17,316.94Z" style="fill:#455a64"></path><path d="M203.17,320.7a.44.44,0,0,0,.35-.18.49.49,0,0,0-.05-.67,9.16,9.16,0,0,0-8.26-1.94.51.51,0,0,0-.32.6.45.45,0,0,0,.56.32,8.19,8.19,0,0,1,7.43,1.77A.41.41,0,0,0,203.17,320.7Z" style="fill:#455a64"></path><path d="M161.3,304.55h0a.5.5,0,0,0,.4-.54c-.25-2.75-1.47-6.34-5.82-7.82a.48.48,0,0,0-.3.91,7.66,7.66,0,0,1,5.22,7A.44.44,0,0,0,161.3,304.55Z" style="fill:#455a64"></path><path d="M159.81,304.87l.15,0a.5.5,0,0,0,.28-.62,8,8,0,0,0-4.83-4.42.48.48,0,0,0-.24.93,7.06,7.06,0,0,1,4.22,3.84A.43.43,0,0,0,159.81,304.87Z" style="fill:#455a64"></path><path d="M159.35,306.9a.39.39,0,0,0,.26-.1.49.49,0,0,0,.1-.67,9.16,9.16,0,0,0-7.75-3.44.49.49,0,0,0-.44.51.44.44,0,0,0,.45.45h0a8.24,8.24,0,0,1,7,3.07A.43.43,0,0,0,159.35,306.9Z" style="fill:#455a64"></path><path d="M170.81,292.57c-.41-1.88-2.19-4.19-3.93-4.19a3.91,3.91,0,0,1,.41,2.73s-4.44-1.17-6,.9a4.84,4.84,0,0,1,3.18,3.39C168.06,297.66,170.81,292.57,170.81,292.57Z" style="fill:#f5f5f5"></path><path d="M194,300.69c1.5-1.22,4-1.52,5.38-.43a3.9,3.9,0,0,0-2,1.88s4.2,1.86,4.17,4.48a4.08,4.08,0,0,0-4.11.79C193.16,306.9,194,300.69,194,300.69Z" style="fill:#f5f5f5"></path><path d="M249.24,335.85a1.38,1.38,0,1,1-2.74-.37c.52-3.93-.94-6.89-4-8.1a8.21,8.21,0,0,0-9.51,3.05c-1.71,2.37-1.56,5.12-1.39,8.31.22,4,.46,8.52-3.18,12.92a14.25,14.25,0,0,1-7.7,4.37l-3.82-2.2c3.49-.23,7.36-1.47,9.39-3.93,3-3.57,2.76-7.19,2.55-11-.18-3.4-.37-6.91,1.9-10.07a11,11,0,0,1,12.78-4C246.82,326.12,250.05,329.71,249.24,335.85Z" style="fill:#f0f0f0"></path></g><path d="M248.56,406.67a6.16,6.16,0,0,1,1.52-1.46,3,3,0,0,1,1.13-.49.55.55,0,0,1,.66.35c.18.48.37,1,.58,1.69s.41,1.31.62,2,.42,1.38.62,2.06.37,1.29.52,1.81a2.48,2.48,0,0,1-.44.67,3.62,3.62,0,0,1-.72.61,2,2,0,0,1-.51.26.55.55,0,0,1-.35,0A.43.43,0,0,1,252,414a2.18,2.18,0,0,1-.17-.4l-.27-1-2.3,1.49c-.06.37-.11.76-.16,1.15s-.11.79-.17,1.16a4.4,4.4,0,0,1-.37.38,2.65,2.65,0,0,1-.47.37,1.37,1.37,0,0,1-1,.33c-.22-.06-.33-.26-.34-.6a2.16,2.16,0,0,1,0-.5c0-.18.06-.38.09-.62s.12-.76.21-1.27.18-1.06.29-1.66l.34-1.84c.13-.63.24-1.23.35-1.79s.21-1.07.3-1.51S248.51,406.9,248.56,406.67Zm1.61,1.15c-.1.54-.21,1.14-.34,1.81s-.23,1.32-.33,2l1.57-1c-.14-.52-.28-1-.43-1.52s-.28-.92-.39-1.31Z" style="fill:#455a64"></path><path d="M258.2,410.7l-.5.3a5.28,5.28,0,0,1-.58.3,6.46,6.46,0,0,1-.6.27,2.76,2.76,0,0,1-.56.15c-.47.07-.72-.19-.74-.76l-.31-7.73a1.19,1.19,0,0,1,.13-.63,2.69,2.69,0,0,1,.38-.57,8.73,8.73,0,0,1,1.15-1,12.24,12.24,0,0,1,1.09-.78,6.18,6.18,0,0,1,1.81-.85,2.05,2.05,0,0,1,1.42.08,2,2,0,0,1,1,1.07,5.83,5.83,0,0,1,.41,2.14,10.26,10.26,0,0,1-.21,2.51,9.27,9.27,0,0,1-.81,2.21,8.9,8.9,0,0,1-1.31,1.88A9.3,9.3,0,0,1,258.2,410.7Zm-.81-2,.35-.17a3.44,3.44,0,0,0,.38-.22,3.86,3.86,0,0,0,1.39-1.59,4.34,4.34,0,0,0,.37-1.17,5.89,5.89,0,0,0,.09-1.42c0-1-.24-1.63-.62-1.9s-.86-.22-1.45.16l-.36.25c-.12.09-.25.19-.37.3Z" style="fill:#455a64"></path><path d="M269.79,398.81a7.73,7.73,0,0,1-.17,2,8,8,0,0,1-.62,1.78,6.9,6.9,0,0,1-1,1.51,6.79,6.79,0,0,1-1.35,1.16,3.65,3.65,0,0,1-1.37.58,1.62,1.62,0,0,1-1.08-.18,1.85,1.85,0,0,1-.73-.91,4.59,4.59,0,0,1-.31-1.63,7.35,7.35,0,0,1,.17-1.93,7.76,7.76,0,0,1,.63-1.79,7.12,7.12,0,0,1,1-1.53,6.24,6.24,0,0,1,1.35-1.17,3.24,3.24,0,0,1,1.37-.57,1.62,1.62,0,0,1,1.08.18,1.8,1.8,0,0,1,.73.91A4.5,4.5,0,0,1,269.79,398.81Zm-4.44,2.87a2.13,2.13,0,0,0,.36,1.36c.21.23.49.23.85,0a2.06,2.06,0,0,0,.8-1.08,4.55,4.55,0,0,0,.22-1.72,2.19,2.19,0,0,0-.35-1.35c-.21-.23-.49-.23-.85,0a2.13,2.13,0,0,0-.8,1.07A4.38,4.38,0,0,0,265.35,401.68Z" style="fill:#455a64"></path><path d="M273.39,400.54c-.09.1-.24.22-.43.39s-.4.3-.59.43a3.76,3.76,0,0,1-.52.27.59.59,0,0,1-.38,0,.45.45,0,0,1-.25-.27,2.26,2.26,0,0,1-.1-.65l-.31-7.79a1.23,1.23,0,0,1,.13-.64,2.64,2.64,0,0,1,.38-.56,8.75,8.75,0,0,1,1-.93,11.47,11.47,0,0,1,1.1-.81c1.17-.75,2.08-1,2.72-.75s1,.93,1,2.05a6,6,0,0,1-.13,1.59,7,7,0,0,1-.54,1.51,6.81,6.81,0,0,1-1,1.36,7.27,7.27,0,0,1-1.36,1.14l-.9.58Zm.45-5.74a2.27,2.27,0,0,0,.81-.85,2.24,2.24,0,0,0,.24-1.17q0-.63-.33-.78c-.21-.09-.5,0-.89.23l-.33.22-.27.22.1,2.57Z" style="fill:#455a64"></path><path d="M280.43,393.23c0,.28.09.44.24.47a.84.84,0,0,0,.59-.2,4.41,4.41,0,0,0,.4-.29c.13-.12.25-.23.35-.34a1,1,0,0,1,.21.28,1,1,0,0,1,.1.48,2.37,2.37,0,0,1-.32,1.26,3.62,3.62,0,0,1-1.26,1.23c-.74.48-1.33.63-1.74.45s-.65-.77-.69-1.77l-.28-7.08a5,5,0,0,1,.39-.37,5.23,5.23,0,0,1,.55-.41,1.38,1.38,0,0,1,.88-.31c.22,0,.34.33.36.88l0,1.06,1.66-1.07a2,2,0,0,1,.17.36,2.11,2.11,0,0,1,.09.56,2,2,0,0,1-.16,1,1.46,1.46,0,0,1-.52.6l-1.16.75Z" style="fill:#455a64"></path><path d="M291.39,386.45a2.82,2.82,0,0,1-1,1.06,2,2,0,0,1-.76.34.35.35,0,0,1-.41-.26c-.27-.82-.5-1.48-.68-2s-.31-.95-.41-1.35l-.07,0c0,.67,0,1.27,0,1.82s0,1.07,0,1.58,0,1,0,1.55,0,1.12,0,1.76a3.46,3.46,0,0,1-.43.42,4.61,4.61,0,0,1-.53.4,1.55,1.55,0,0,1-.88.33c-.21,0-.33-.23-.34-.64l0-8.68a3.08,3.08,0,0,1,.43-.75,3.23,3.23,0,0,1,.95-.87,2,2,0,0,1,1.07-.41.7.7,0,0,1,.59.52c.09.22.18.47.29.75s.2.58.3.89.21.61.31.92.18.58.26.82l.07,0c.16-1.06.33-2.09.5-3.09s.33-1.84.47-2.54a5.5,5.5,0,0,1,.48-.54,5.17,5.17,0,0,1,.67-.52,2.22,2.22,0,0,1,1-.41.44.44,0,0,1,.49.39c0,.2.09.51.15,1s.11.92.18,1.47.13,1.12.2,1.74.13,1.2.19,1.77.11,1.08.16,1.56.08.84.09,1.1a3.35,3.35,0,0,1-.44.53,3.59,3.59,0,0,1-.6.46,1.56,1.56,0,0,1-.82.31c-.23,0-.35-.2-.39-.61-.1-1.17-.17-2.23-.22-3.19s-.1-1.74-.15-2.38l-.07,0c-.06.49-.17,1.11-.3,1.87S291.58,385.29,291.39,386.45Z" style="fill:#455a64"></path><path d="M299.35,384.11a4.14,4.14,0,0,1-1.4.63,1.76,1.76,0,0,1-1.15-.1,1.78,1.78,0,0,1-.81-.89,4.71,4.71,0,0,1-.35-1.76,7.56,7.56,0,0,1,.2-2.05,8.15,8.15,0,0,1,.67-1.76,6.52,6.52,0,0,1,1-1.4,5.89,5.89,0,0,1,1.16-1,3.3,3.3,0,0,1,1.23-.52,1.65,1.65,0,0,1,1,.11,1.5,1.5,0,0,1,.67.71,3.17,3.17,0,0,1,.28,1.26,2.12,2.12,0,0,1-.21,1,2.51,2.51,0,0,1-.66.81l-3.11,2.64a.58.58,0,0,0,.6.45,1.88,1.88,0,0,0,1-.36,5.78,5.78,0,0,0,1-.81,6.71,6.71,0,0,0,.74-.9.59.59,0,0,1,.36.25.93.93,0,0,1,.17.53,2.32,2.32,0,0,1-.49,1.46,6,6,0,0,1-.9,1A8.33,8.33,0,0,1,299.35,384.11Zm-.61-6.27a2,2,0,0,0-.52.47,2.31,2.31,0,0,0-.35.57,3.52,3.52,0,0,0-.2.6,4.08,4.08,0,0,0-.06.58l2.16-1.87a.74.74,0,0,0-.31-.48C299.29,377.59,299.05,377.64,298.74,377.84Z" style="fill:#455a64"></path><path d="M305.07,373.44a3,3,0,0,1,.29-1.37,2.41,2.41,0,0,1,.88-1.05c.38-.25.69-.29.92-.12a1.14,1.14,0,0,1,.38,1,2.92,2.92,0,0,1-.29,1.37,2.32,2.32,0,0,1-.88,1c-.38.25-.69.29-.92.12A1.15,1.15,0,0,1,305.07,373.44Zm.21,5.2a3.08,3.08,0,0,1,.28-1.38,2.4,2.4,0,0,1,.89-1c.38-.25.69-.29.92-.12a1.13,1.13,0,0,1,.37.94,2.92,2.92,0,0,1-.28,1.38,2.38,2.38,0,0,1-.88,1c-.39.25-.69.29-.92.12A1.14,1.14,0,0,1,305.28,378.64Z" style="fill:#455a64"></path><path d="M311.88,372a19.41,19.41,0,0,1-.11,3.2,16.67,16.67,0,0,1-.52,2.59,7.26,7.26,0,0,1-.55,1.37,2.57,2.57,0,0,1-.85,1,.76.76,0,0,1-.62.14.81.81,0,0,1-.43-.26c.19-.53.35-1.06.49-1.59s.25-1.06.34-1.6a14.9,14.9,0,0,0,.18-1.68,18.17,18.17,0,0,0,0-1.82,15.81,15.81,0,0,0-.16-1.72,8.19,8.19,0,0,0-.3-1.37,5.4,5.4,0,0,0-.45-1.09,5.05,5.05,0,0,0-.58-.89,3.76,3.76,0,0,1,.38-.79,2,2,0,0,1,.6-.64.85.85,0,0,1,.89-.15,1.74,1.74,0,0,1,.63.61,6.46,6.46,0,0,1,.69,1.81A14.44,14.44,0,0,1,311.88,372Z" style="fill:#455a64"></path></g></g><g id="freepik--Hearts--inject-5"><path id="freepik--Heart--inject-5" d="M81.72,113.89a5.68,5.68,0,0,0-2.66-3h0l0,0a5.7,5.7,0,0,0-4.64-.28c-2.71,1-3.84,4.82-3.19,7.56-1.33-2.49-4.68-4.62-7.38-3.6a5.68,5.68,0,0,0-3.31,3.27v0h0a5.65,5.65,0,0,0,0,4c1.58,4.21,6.35,5.07,10.66,6.61l4.53,1.6L78,125.87C80.27,121.89,83.3,118.1,81.72,113.89Z" style="fill:#024959"></path><path id="freepik--heart--inject-5" d="M315.31,145.12a5.72,5.72,0,0,0-2.66-3h0a5.66,5.66,0,0,0-4.64-.29c-2.71,1-3.84,4.82-3.19,7.56-1.32-2.49-4.68-4.62-7.38-3.6A5.68,5.68,0,0,0,294.1,149v0h0a5.73,5.73,0,0,0,0,4c1.58,4.2,6.36,5.07,10.66,6.6l4.53,1.6,2.37-4.18C313.86,153.12,316.89,149.33,315.31,145.12Z" style="fill:#024959"></path><path id="freepik--heart--inject-5" d="M204.18,119.67a5.66,5.66,0,0,0,.33-4h0v0a5.61,5.61,0,0,0-3-3.5c-2.58-1.23-6.06.57-7.57,2.91.87-2.65.09-6.49-2.49-7.72a5.58,5.58,0,0,0-4.59-.11h0A5.62,5.62,0,0,0,184,110c-1.92,4,.74,8,2.59,12.11l2,4.32,4.59-1.19C197.49,124.11,202.26,123.68,204.18,119.67Z" style="fill:#024959"></path><path id="freepik--heart--inject-5" d="M440.6,122.45a5.55,5.55,0,0,0,.33-4h0v0a5.6,5.6,0,0,0-3-3.5c-2.57-1.23-6.05.57-7.57,2.91.87-2.64.09-6.49-2.49-7.72a5.62,5.62,0,0,0-4.59-.11h0a5.64,5.64,0,0,0-2.89,2.75c-1.91,4,.75,8,2.6,12.11l2,4.32,4.6-1.19C433.92,126.89,438.69,126.46,440.6,122.45Z" style="fill:#024959"></path></g></svg>